G04 #@! TF.FileFunction,Legend,Top*
%FSLAX46Y46*%
G04 Gerber Fmt 4.6, Leading zero omitted, Abs format (unit mm)*
G04 Created by KiCad (PCBNEW 4.0.1-3.201512221402+6198~38~ubuntu15.04.1-stable) date Tue 02 Feb 2016 08:53:14 AM EST*
%MOMM*%
G01*
G04 APERTURE LIST*
%ADD10C,0.100000*%
%ADD11C,0.150000*%
%ADD12C,1.900000*%
%ADD13R,2.432000X2.127200*%
%ADD14O,2.432000X2.127200*%
G04 APERTURE END LIST*
D10*
D11*
X120610000Y-90300000D02*
X116110000Y-90300000D01*
X120610000Y-90300000D02*
X120610000Y-112900000D01*
X120610000Y-112900000D02*
X116110000Y-112900000D01*
X125730000Y-80010000D02*
X125730000Y-128270000D01*
X125730000Y-128270000D02*
X123190000Y-128270000D01*
X123190000Y-128270000D02*
X123190000Y-80010000D01*
X126010000Y-77190000D02*
X126010000Y-78740000D01*
X125730000Y-80010000D02*
X123190000Y-80010000D01*
X122910000Y-78740000D02*
X122910000Y-77190000D01*
X122910000Y-77190000D02*
X126010000Y-77190000D01*
%LPC*%
D12*
X117110000Y-100100000D03*
X117110000Y-102100000D03*
X117110000Y-98100000D03*
X117110000Y-96100000D03*
X117110000Y-94100000D03*
X117110000Y-92100000D03*
X119110000Y-93100000D03*
X119110000Y-95100000D03*
X119110000Y-97100000D03*
X119110000Y-99100000D03*
X119110000Y-101100000D03*
X119110000Y-103100000D03*
X117110000Y-104100000D03*
X119110000Y-105100000D03*
X117110000Y-106100000D03*
X119110000Y-107100000D03*
X117110000Y-108100000D03*
X119110000Y-109100000D03*
X117110000Y-110100000D03*
X119110000Y-111100000D03*
D13*
X124460000Y-78740000D03*
D14*
X124460000Y-81280000D03*
X124460000Y-83820000D03*
X124460000Y-86360000D03*
X124460000Y-88900000D03*
X124460000Y-91440000D03*
X124460000Y-93980000D03*
X124460000Y-96520000D03*
X124460000Y-99060000D03*
X124460000Y-101600000D03*
X124460000Y-104140000D03*
X124460000Y-106680000D03*
X124460000Y-109220000D03*
X124460000Y-111760000D03*
X124460000Y-114300000D03*
X124460000Y-116840000D03*
X124460000Y-119380000D03*
X124460000Y-121920000D03*
X124460000Y-124460000D03*
X124460000Y-127000000D03*
M02*
