G04 #@! TF.FileFunction,Copper,L2,Bot,Signal*
%FSLAX46Y46*%
G04 Gerber Fmt 4.6, Leading zero omitted, Abs format (unit mm)*
G04 Created by KiCad (PCBNEW 4.0.1-3.201512221402+6198~38~ubuntu15.04.1-stable) date Tue 02 Feb 2016 08:53:14 AM EST*
%MOMM*%
G01*
G04 APERTURE LIST*
%ADD10C,0.100000*%
%ADD11C,1.500000*%
%ADD12R,2.032000X1.727200*%
%ADD13O,2.032000X1.727200*%
%ADD14C,0.254000*%
G04 APERTURE END LIST*
D10*
D11*
X117110000Y-100100000D03*
X117110000Y-102100000D03*
X117110000Y-98100000D03*
X117110000Y-96100000D03*
X117110000Y-94100000D03*
X117110000Y-92100000D03*
X119110000Y-93100000D03*
X119110000Y-95100000D03*
X119110000Y-97100000D03*
X119110000Y-99100000D03*
X119110000Y-101100000D03*
X119110000Y-103100000D03*
X117110000Y-104100000D03*
X119110000Y-105100000D03*
X117110000Y-106100000D03*
X119110000Y-107100000D03*
X117110000Y-108100000D03*
X119110000Y-109100000D03*
X117110000Y-110100000D03*
X119110000Y-111100000D03*
D12*
X124460000Y-78740000D03*
D13*
X124460000Y-81280000D03*
X124460000Y-83820000D03*
X124460000Y-86360000D03*
X124460000Y-88900000D03*
X124460000Y-91440000D03*
X124460000Y-93980000D03*
X124460000Y-96520000D03*
X124460000Y-99060000D03*
X124460000Y-101600000D03*
X124460000Y-104140000D03*
X124460000Y-106680000D03*
X124460000Y-109220000D03*
X124460000Y-111760000D03*
X124460000Y-114300000D03*
X124460000Y-116840000D03*
X124460000Y-119380000D03*
X124460000Y-121920000D03*
X124460000Y-124460000D03*
X124460000Y-127000000D03*
D14*
G36*
X126238000Y-128778000D02*
X111887000Y-128778000D01*
X111887000Y-92374285D01*
X115724760Y-92374285D01*
X115935169Y-92883515D01*
X116151313Y-93100036D01*
X115936539Y-93314436D01*
X115725241Y-93823298D01*
X115724760Y-94374285D01*
X115935169Y-94883515D01*
X116151313Y-95100036D01*
X115936539Y-95314436D01*
X115725241Y-95823298D01*
X115724760Y-96374285D01*
X115935169Y-96883515D01*
X116151313Y-97100036D01*
X115936539Y-97314436D01*
X115725241Y-97823298D01*
X115724760Y-98374285D01*
X115935169Y-98883515D01*
X116151313Y-99100036D01*
X115936539Y-99314436D01*
X115725241Y-99823298D01*
X115724760Y-100374285D01*
X115935169Y-100883515D01*
X116151313Y-101100036D01*
X115936539Y-101314436D01*
X115725241Y-101823298D01*
X115724760Y-102374285D01*
X115935169Y-102883515D01*
X116151313Y-103100036D01*
X115936539Y-103314436D01*
X115725241Y-103823298D01*
X115724760Y-104374285D01*
X115935169Y-104883515D01*
X116151313Y-105100036D01*
X115936539Y-105314436D01*
X115725241Y-105823298D01*
X115724760Y-106374285D01*
X115935169Y-106883515D01*
X116151313Y-107100036D01*
X115936539Y-107314436D01*
X115725241Y-107823298D01*
X115724760Y-108374285D01*
X115935169Y-108883515D01*
X116151313Y-109100036D01*
X115936539Y-109314436D01*
X115725241Y-109823298D01*
X115724760Y-110374285D01*
X115935169Y-110883515D01*
X116324436Y-111273461D01*
X116833298Y-111484759D01*
X117384285Y-111485240D01*
X117724786Y-111344548D01*
X117724760Y-111374285D01*
X117935169Y-111883515D01*
X118324436Y-112273461D01*
X118833298Y-112484759D01*
X119384285Y-112485240D01*
X119893515Y-112274831D01*
X120283461Y-111885564D01*
X120494759Y-111376702D01*
X120495240Y-110825715D01*
X120284831Y-110316485D01*
X120068687Y-110099964D01*
X120283461Y-109885564D01*
X120494759Y-109376702D01*
X120495240Y-108825715D01*
X120284831Y-108316485D01*
X120068687Y-108099964D01*
X120283461Y-107885564D01*
X120494759Y-107376702D01*
X120495240Y-106825715D01*
X120284831Y-106316485D01*
X120068687Y-106099964D01*
X120283461Y-105885564D01*
X120494759Y-105376702D01*
X120495240Y-104825715D01*
X120284831Y-104316485D01*
X120068687Y-104099964D01*
X120283461Y-103885564D01*
X120494759Y-103376702D01*
X120495240Y-102825715D01*
X120284831Y-102316485D01*
X120068687Y-102099964D01*
X120283461Y-101885564D01*
X120494759Y-101376702D01*
X120495240Y-100825715D01*
X120284831Y-100316485D01*
X120068687Y-100099964D01*
X120283461Y-99885564D01*
X120494759Y-99376702D01*
X120495240Y-98825715D01*
X120284831Y-98316485D01*
X120068687Y-98099964D01*
X120283461Y-97885564D01*
X120494759Y-97376702D01*
X120495240Y-96825715D01*
X120284831Y-96316485D01*
X120068687Y-96099964D01*
X120283461Y-95885564D01*
X120494759Y-95376702D01*
X120495240Y-94825715D01*
X120284831Y-94316485D01*
X120068687Y-94099964D01*
X120283461Y-93885564D01*
X120494759Y-93376702D01*
X120495240Y-92825715D01*
X120284831Y-92316485D01*
X119895564Y-91926539D01*
X119386702Y-91715241D01*
X118835715Y-91714760D01*
X118495214Y-91855452D01*
X118495240Y-91825715D01*
X118284831Y-91316485D01*
X117895564Y-90926539D01*
X117386702Y-90715241D01*
X116835715Y-90714760D01*
X116326485Y-90925169D01*
X115936539Y-91314436D01*
X115725241Y-91823298D01*
X115724760Y-92374285D01*
X111887000Y-92374285D01*
X111887000Y-81280000D01*
X122776655Y-81280000D01*
X122890729Y-81853489D01*
X123215585Y-82339670D01*
X123530366Y-82550000D01*
X123215585Y-82760330D01*
X122890729Y-83246511D01*
X122776655Y-83820000D01*
X122890729Y-84393489D01*
X123215585Y-84879670D01*
X123530366Y-85090000D01*
X123215585Y-85300330D01*
X122890729Y-85786511D01*
X122776655Y-86360000D01*
X122890729Y-86933489D01*
X123215585Y-87419670D01*
X123530366Y-87630000D01*
X123215585Y-87840330D01*
X122890729Y-88326511D01*
X122776655Y-88900000D01*
X122890729Y-89473489D01*
X123215585Y-89959670D01*
X123530366Y-90170000D01*
X123215585Y-90380330D01*
X122890729Y-90866511D01*
X122776655Y-91440000D01*
X122890729Y-92013489D01*
X123215585Y-92499670D01*
X123530366Y-92710000D01*
X123215585Y-92920330D01*
X122890729Y-93406511D01*
X122776655Y-93980000D01*
X122890729Y-94553489D01*
X123215585Y-95039670D01*
X123530366Y-95250000D01*
X123215585Y-95460330D01*
X122890729Y-95946511D01*
X122776655Y-96520000D01*
X122890729Y-97093489D01*
X123215585Y-97579670D01*
X123530366Y-97790000D01*
X123215585Y-98000330D01*
X122890729Y-98486511D01*
X122776655Y-99060000D01*
X122890729Y-99633489D01*
X123215585Y-100119670D01*
X123530366Y-100330000D01*
X123215585Y-100540330D01*
X122890729Y-101026511D01*
X122776655Y-101600000D01*
X122890729Y-102173489D01*
X123215585Y-102659670D01*
X123530366Y-102870000D01*
X123215585Y-103080330D01*
X122890729Y-103566511D01*
X122776655Y-104140000D01*
X122890729Y-104713489D01*
X123215585Y-105199670D01*
X123530366Y-105410000D01*
X123215585Y-105620330D01*
X122890729Y-106106511D01*
X122776655Y-106680000D01*
X122890729Y-107253489D01*
X123215585Y-107739670D01*
X123530366Y-107950000D01*
X123215585Y-108160330D01*
X122890729Y-108646511D01*
X122776655Y-109220000D01*
X122890729Y-109793489D01*
X123215585Y-110279670D01*
X123530366Y-110490000D01*
X123215585Y-110700330D01*
X122890729Y-111186511D01*
X122776655Y-111760000D01*
X122890729Y-112333489D01*
X123215585Y-112819670D01*
X123530366Y-113030000D01*
X123215585Y-113240330D01*
X122890729Y-113726511D01*
X122776655Y-114300000D01*
X122890729Y-114873489D01*
X123215585Y-115359670D01*
X123530366Y-115570000D01*
X123215585Y-115780330D01*
X122890729Y-116266511D01*
X122776655Y-116840000D01*
X122890729Y-117413489D01*
X123215585Y-117899670D01*
X123530366Y-118110000D01*
X123215585Y-118320330D01*
X122890729Y-118806511D01*
X122776655Y-119380000D01*
X122890729Y-119953489D01*
X123215585Y-120439670D01*
X123530366Y-120650000D01*
X123215585Y-120860330D01*
X122890729Y-121346511D01*
X122776655Y-121920000D01*
X122890729Y-122493489D01*
X123215585Y-122979670D01*
X123530366Y-123190000D01*
X123215585Y-123400330D01*
X122890729Y-123886511D01*
X122776655Y-124460000D01*
X122890729Y-125033489D01*
X123215585Y-125519670D01*
X123530366Y-125730000D01*
X123215585Y-125940330D01*
X122890729Y-126426511D01*
X122776655Y-127000000D01*
X122890729Y-127573489D01*
X123215585Y-128059670D01*
X123701766Y-128384526D01*
X124275255Y-128498600D01*
X124644745Y-128498600D01*
X125218234Y-128384526D01*
X125704415Y-128059670D01*
X126029271Y-127573489D01*
X126143345Y-127000000D01*
X126029271Y-126426511D01*
X125704415Y-125940330D01*
X125389634Y-125730000D01*
X125704415Y-125519670D01*
X126029271Y-125033489D01*
X126143345Y-124460000D01*
X126029271Y-123886511D01*
X125704415Y-123400330D01*
X125389634Y-123190000D01*
X125704415Y-122979670D01*
X126029271Y-122493489D01*
X126143345Y-121920000D01*
X126029271Y-121346511D01*
X125704415Y-120860330D01*
X125389634Y-120650000D01*
X125704415Y-120439670D01*
X126029271Y-119953489D01*
X126143345Y-119380000D01*
X126029271Y-118806511D01*
X125704415Y-118320330D01*
X125389634Y-118110000D01*
X125704415Y-117899670D01*
X126029271Y-117413489D01*
X126143345Y-116840000D01*
X126029271Y-116266511D01*
X125704415Y-115780330D01*
X125389634Y-115570000D01*
X125704415Y-115359670D01*
X126029271Y-114873489D01*
X126143345Y-114300000D01*
X126029271Y-113726511D01*
X125704415Y-113240330D01*
X125389634Y-113030000D01*
X125704415Y-112819670D01*
X126029271Y-112333489D01*
X126143345Y-111760000D01*
X126029271Y-111186511D01*
X125704415Y-110700330D01*
X125389634Y-110490000D01*
X125704415Y-110279670D01*
X126029271Y-109793489D01*
X126143345Y-109220000D01*
X126029271Y-108646511D01*
X125704415Y-108160330D01*
X125389634Y-107950000D01*
X125704415Y-107739670D01*
X126029271Y-107253489D01*
X126143345Y-106680000D01*
X126029271Y-106106511D01*
X125704415Y-105620330D01*
X125389634Y-105410000D01*
X125704415Y-105199670D01*
X126029271Y-104713489D01*
X126143345Y-104140000D01*
X126029271Y-103566511D01*
X125704415Y-103080330D01*
X125389634Y-102870000D01*
X125704415Y-102659670D01*
X126029271Y-102173489D01*
X126143345Y-101600000D01*
X126029271Y-101026511D01*
X125704415Y-100540330D01*
X125389634Y-100330000D01*
X125704415Y-100119670D01*
X126029271Y-99633489D01*
X126143345Y-99060000D01*
X126029271Y-98486511D01*
X125704415Y-98000330D01*
X125389634Y-97790000D01*
X125704415Y-97579670D01*
X126029271Y-97093489D01*
X126143345Y-96520000D01*
X126029271Y-95946511D01*
X125704415Y-95460330D01*
X125389634Y-95250000D01*
X125704415Y-95039670D01*
X126029271Y-94553489D01*
X126143345Y-93980000D01*
X126029271Y-93406511D01*
X125704415Y-92920330D01*
X125389634Y-92710000D01*
X125704415Y-92499670D01*
X126029271Y-92013489D01*
X126143345Y-91440000D01*
X126029271Y-90866511D01*
X125704415Y-90380330D01*
X125389634Y-90170000D01*
X125704415Y-89959670D01*
X126029271Y-89473489D01*
X126143345Y-88900000D01*
X126029271Y-88326511D01*
X125704415Y-87840330D01*
X125389634Y-87630000D01*
X125704415Y-87419670D01*
X126029271Y-86933489D01*
X126143345Y-86360000D01*
X126029271Y-85786511D01*
X125704415Y-85300330D01*
X125389634Y-85090000D01*
X125704415Y-84879670D01*
X126029271Y-84393489D01*
X126143345Y-83820000D01*
X126029271Y-83246511D01*
X125704415Y-82760330D01*
X125389634Y-82550000D01*
X125704415Y-82339670D01*
X126029271Y-81853489D01*
X126143345Y-81280000D01*
X126029271Y-80706511D01*
X125704415Y-80220330D01*
X125690087Y-80210757D01*
X125711317Y-80206762D01*
X125927441Y-80067690D01*
X126072431Y-79855490D01*
X126123440Y-79603600D01*
X126123440Y-77876400D01*
X126079162Y-77641083D01*
X125940090Y-77424959D01*
X125727890Y-77279969D01*
X125476000Y-77228960D01*
X123444000Y-77228960D01*
X123208683Y-77273238D01*
X122992559Y-77412310D01*
X122847569Y-77624510D01*
X122796560Y-77876400D01*
X122796560Y-79603600D01*
X122840838Y-79838917D01*
X122979910Y-80055041D01*
X123192110Y-80200031D01*
X123233439Y-80208400D01*
X123215585Y-80220330D01*
X122890729Y-80706511D01*
X122776655Y-81280000D01*
X111887000Y-81280000D01*
X111887000Y-76962000D01*
X126238000Y-76962000D01*
X126238000Y-128778000D01*
X126238000Y-128778000D01*
G37*
X126238000Y-128778000D02*
X111887000Y-128778000D01*
X111887000Y-92374285D01*
X115724760Y-92374285D01*
X115935169Y-92883515D01*
X116151313Y-93100036D01*
X115936539Y-93314436D01*
X115725241Y-93823298D01*
X115724760Y-94374285D01*
X115935169Y-94883515D01*
X116151313Y-95100036D01*
X115936539Y-95314436D01*
X115725241Y-95823298D01*
X115724760Y-96374285D01*
X115935169Y-96883515D01*
X116151313Y-97100036D01*
X115936539Y-97314436D01*
X115725241Y-97823298D01*
X115724760Y-98374285D01*
X115935169Y-98883515D01*
X116151313Y-99100036D01*
X115936539Y-99314436D01*
X115725241Y-99823298D01*
X115724760Y-100374285D01*
X115935169Y-100883515D01*
X116151313Y-101100036D01*
X115936539Y-101314436D01*
X115725241Y-101823298D01*
X115724760Y-102374285D01*
X115935169Y-102883515D01*
X116151313Y-103100036D01*
X115936539Y-103314436D01*
X115725241Y-103823298D01*
X115724760Y-104374285D01*
X115935169Y-104883515D01*
X116151313Y-105100036D01*
X115936539Y-105314436D01*
X115725241Y-105823298D01*
X115724760Y-106374285D01*
X115935169Y-106883515D01*
X116151313Y-107100036D01*
X115936539Y-107314436D01*
X115725241Y-107823298D01*
X115724760Y-108374285D01*
X115935169Y-108883515D01*
X116151313Y-109100036D01*
X115936539Y-109314436D01*
X115725241Y-109823298D01*
X115724760Y-110374285D01*
X115935169Y-110883515D01*
X116324436Y-111273461D01*
X116833298Y-111484759D01*
X117384285Y-111485240D01*
X117724786Y-111344548D01*
X117724760Y-111374285D01*
X117935169Y-111883515D01*
X118324436Y-112273461D01*
X118833298Y-112484759D01*
X119384285Y-112485240D01*
X119893515Y-112274831D01*
X120283461Y-111885564D01*
X120494759Y-111376702D01*
X120495240Y-110825715D01*
X120284831Y-110316485D01*
X120068687Y-110099964D01*
X120283461Y-109885564D01*
X120494759Y-109376702D01*
X120495240Y-108825715D01*
X120284831Y-108316485D01*
X120068687Y-108099964D01*
X120283461Y-107885564D01*
X120494759Y-107376702D01*
X120495240Y-106825715D01*
X120284831Y-106316485D01*
X120068687Y-106099964D01*
X120283461Y-105885564D01*
X120494759Y-105376702D01*
X120495240Y-104825715D01*
X120284831Y-104316485D01*
X120068687Y-104099964D01*
X120283461Y-103885564D01*
X120494759Y-103376702D01*
X120495240Y-102825715D01*
X120284831Y-102316485D01*
X120068687Y-102099964D01*
X120283461Y-101885564D01*
X120494759Y-101376702D01*
X120495240Y-100825715D01*
X120284831Y-100316485D01*
X120068687Y-100099964D01*
X120283461Y-99885564D01*
X120494759Y-99376702D01*
X120495240Y-98825715D01*
X120284831Y-98316485D01*
X120068687Y-98099964D01*
X120283461Y-97885564D01*
X120494759Y-97376702D01*
X120495240Y-96825715D01*
X120284831Y-96316485D01*
X120068687Y-96099964D01*
X120283461Y-95885564D01*
X120494759Y-95376702D01*
X120495240Y-94825715D01*
X120284831Y-94316485D01*
X120068687Y-94099964D01*
X120283461Y-93885564D01*
X120494759Y-93376702D01*
X120495240Y-92825715D01*
X120284831Y-92316485D01*
X119895564Y-91926539D01*
X119386702Y-91715241D01*
X118835715Y-91714760D01*
X118495214Y-91855452D01*
X118495240Y-91825715D01*
X118284831Y-91316485D01*
X117895564Y-90926539D01*
X117386702Y-90715241D01*
X116835715Y-90714760D01*
X116326485Y-90925169D01*
X115936539Y-91314436D01*
X115725241Y-91823298D01*
X115724760Y-92374285D01*
X111887000Y-92374285D01*
X111887000Y-81280000D01*
X122776655Y-81280000D01*
X122890729Y-81853489D01*
X123215585Y-82339670D01*
X123530366Y-82550000D01*
X123215585Y-82760330D01*
X122890729Y-83246511D01*
X122776655Y-83820000D01*
X122890729Y-84393489D01*
X123215585Y-84879670D01*
X123530366Y-85090000D01*
X123215585Y-85300330D01*
X122890729Y-85786511D01*
X122776655Y-86360000D01*
X122890729Y-86933489D01*
X123215585Y-87419670D01*
X123530366Y-87630000D01*
X123215585Y-87840330D01*
X122890729Y-88326511D01*
X122776655Y-88900000D01*
X122890729Y-89473489D01*
X123215585Y-89959670D01*
X123530366Y-90170000D01*
X123215585Y-90380330D01*
X122890729Y-90866511D01*
X122776655Y-91440000D01*
X122890729Y-92013489D01*
X123215585Y-92499670D01*
X123530366Y-92710000D01*
X123215585Y-92920330D01*
X122890729Y-93406511D01*
X122776655Y-93980000D01*
X122890729Y-94553489D01*
X123215585Y-95039670D01*
X123530366Y-95250000D01*
X123215585Y-95460330D01*
X122890729Y-95946511D01*
X122776655Y-96520000D01*
X122890729Y-97093489D01*
X123215585Y-97579670D01*
X123530366Y-97790000D01*
X123215585Y-98000330D01*
X122890729Y-98486511D01*
X122776655Y-99060000D01*
X122890729Y-99633489D01*
X123215585Y-100119670D01*
X123530366Y-100330000D01*
X123215585Y-100540330D01*
X122890729Y-101026511D01*
X122776655Y-101600000D01*
X122890729Y-102173489D01*
X123215585Y-102659670D01*
X123530366Y-102870000D01*
X123215585Y-103080330D01*
X122890729Y-103566511D01*
X122776655Y-104140000D01*
X122890729Y-104713489D01*
X123215585Y-105199670D01*
X123530366Y-105410000D01*
X123215585Y-105620330D01*
X122890729Y-106106511D01*
X122776655Y-106680000D01*
X122890729Y-107253489D01*
X123215585Y-107739670D01*
X123530366Y-107950000D01*
X123215585Y-108160330D01*
X122890729Y-108646511D01*
X122776655Y-109220000D01*
X122890729Y-109793489D01*
X123215585Y-110279670D01*
X123530366Y-110490000D01*
X123215585Y-110700330D01*
X122890729Y-111186511D01*
X122776655Y-111760000D01*
X122890729Y-112333489D01*
X123215585Y-112819670D01*
X123530366Y-113030000D01*
X123215585Y-113240330D01*
X122890729Y-113726511D01*
X122776655Y-114300000D01*
X122890729Y-114873489D01*
X123215585Y-115359670D01*
X123530366Y-115570000D01*
X123215585Y-115780330D01*
X122890729Y-116266511D01*
X122776655Y-116840000D01*
X122890729Y-117413489D01*
X123215585Y-117899670D01*
X123530366Y-118110000D01*
X123215585Y-118320330D01*
X122890729Y-118806511D01*
X122776655Y-119380000D01*
X122890729Y-119953489D01*
X123215585Y-120439670D01*
X123530366Y-120650000D01*
X123215585Y-120860330D01*
X122890729Y-121346511D01*
X122776655Y-121920000D01*
X122890729Y-122493489D01*
X123215585Y-122979670D01*
X123530366Y-123190000D01*
X123215585Y-123400330D01*
X122890729Y-123886511D01*
X122776655Y-124460000D01*
X122890729Y-125033489D01*
X123215585Y-125519670D01*
X123530366Y-125730000D01*
X123215585Y-125940330D01*
X122890729Y-126426511D01*
X122776655Y-127000000D01*
X122890729Y-127573489D01*
X123215585Y-128059670D01*
X123701766Y-128384526D01*
X124275255Y-128498600D01*
X124644745Y-128498600D01*
X125218234Y-128384526D01*
X125704415Y-128059670D01*
X126029271Y-127573489D01*
X126143345Y-127000000D01*
X126029271Y-126426511D01*
X125704415Y-125940330D01*
X125389634Y-125730000D01*
X125704415Y-125519670D01*
X126029271Y-125033489D01*
X126143345Y-124460000D01*
X126029271Y-123886511D01*
X125704415Y-123400330D01*
X125389634Y-123190000D01*
X125704415Y-122979670D01*
X126029271Y-122493489D01*
X126143345Y-121920000D01*
X126029271Y-121346511D01*
X125704415Y-120860330D01*
X125389634Y-120650000D01*
X125704415Y-120439670D01*
X126029271Y-119953489D01*
X126143345Y-119380000D01*
X126029271Y-118806511D01*
X125704415Y-118320330D01*
X125389634Y-118110000D01*
X125704415Y-117899670D01*
X126029271Y-117413489D01*
X126143345Y-116840000D01*
X126029271Y-116266511D01*
X125704415Y-115780330D01*
X125389634Y-115570000D01*
X125704415Y-115359670D01*
X126029271Y-114873489D01*
X126143345Y-114300000D01*
X126029271Y-113726511D01*
X125704415Y-113240330D01*
X125389634Y-113030000D01*
X125704415Y-112819670D01*
X126029271Y-112333489D01*
X126143345Y-111760000D01*
X126029271Y-111186511D01*
X125704415Y-110700330D01*
X125389634Y-110490000D01*
X125704415Y-110279670D01*
X126029271Y-109793489D01*
X126143345Y-109220000D01*
X126029271Y-108646511D01*
X125704415Y-108160330D01*
X125389634Y-107950000D01*
X125704415Y-107739670D01*
X126029271Y-107253489D01*
X126143345Y-106680000D01*
X126029271Y-106106511D01*
X125704415Y-105620330D01*
X125389634Y-105410000D01*
X125704415Y-105199670D01*
X126029271Y-104713489D01*
X126143345Y-104140000D01*
X126029271Y-103566511D01*
X125704415Y-103080330D01*
X125389634Y-102870000D01*
X125704415Y-102659670D01*
X126029271Y-102173489D01*
X126143345Y-101600000D01*
X126029271Y-101026511D01*
X125704415Y-100540330D01*
X125389634Y-100330000D01*
X125704415Y-100119670D01*
X126029271Y-99633489D01*
X126143345Y-99060000D01*
X126029271Y-98486511D01*
X125704415Y-98000330D01*
X125389634Y-97790000D01*
X125704415Y-97579670D01*
X126029271Y-97093489D01*
X126143345Y-96520000D01*
X126029271Y-95946511D01*
X125704415Y-95460330D01*
X125389634Y-95250000D01*
X125704415Y-95039670D01*
X126029271Y-94553489D01*
X126143345Y-93980000D01*
X126029271Y-93406511D01*
X125704415Y-92920330D01*
X125389634Y-92710000D01*
X125704415Y-92499670D01*
X126029271Y-92013489D01*
X126143345Y-91440000D01*
X126029271Y-90866511D01*
X125704415Y-90380330D01*
X125389634Y-90170000D01*
X125704415Y-89959670D01*
X126029271Y-89473489D01*
X126143345Y-88900000D01*
X126029271Y-88326511D01*
X125704415Y-87840330D01*
X125389634Y-87630000D01*
X125704415Y-87419670D01*
X126029271Y-86933489D01*
X126143345Y-86360000D01*
X126029271Y-85786511D01*
X125704415Y-85300330D01*
X125389634Y-85090000D01*
X125704415Y-84879670D01*
X126029271Y-84393489D01*
X126143345Y-83820000D01*
X126029271Y-83246511D01*
X125704415Y-82760330D01*
X125389634Y-82550000D01*
X125704415Y-82339670D01*
X126029271Y-81853489D01*
X126143345Y-81280000D01*
X126029271Y-80706511D01*
X125704415Y-80220330D01*
X125690087Y-80210757D01*
X125711317Y-80206762D01*
X125927441Y-80067690D01*
X126072431Y-79855490D01*
X126123440Y-79603600D01*
X126123440Y-77876400D01*
X126079162Y-77641083D01*
X125940090Y-77424959D01*
X125727890Y-77279969D01*
X125476000Y-77228960D01*
X123444000Y-77228960D01*
X123208683Y-77273238D01*
X122992559Y-77412310D01*
X122847569Y-77624510D01*
X122796560Y-77876400D01*
X122796560Y-79603600D01*
X122840838Y-79838917D01*
X122979910Y-80055041D01*
X123192110Y-80200031D01*
X123233439Y-80208400D01*
X123215585Y-80220330D01*
X122890729Y-80706511D01*
X122776655Y-81280000D01*
X111887000Y-81280000D01*
X111887000Y-76962000D01*
X126238000Y-76962000D01*
X126238000Y-128778000D01*
M02*
