G04 #@! TF.FileFunction,Copper,L1,Top,Signal*
%FSLAX46Y46*%
G04 Gerber Fmt 4.6, Leading zero omitted, Abs format (unit mm)*
G04 Created by KiCad (PCBNEW 4.0.1-3.201512221402+6198~38~ubuntu15.04.1-stable) date Tue 02 Feb 2016 08:53:14 AM EST*
%MOMM*%
G01*
G04 APERTURE LIST*
%ADD10C,0.100000*%
%ADD11C,1.500000*%
%ADD12R,2.032000X1.727200*%
%ADD13O,2.032000X1.727200*%
%ADD14C,0.250000*%
%ADD15C,0.254000*%
G04 APERTURE END LIST*
D10*
D11*
X117110000Y-100100000D03*
X117110000Y-102100000D03*
X117110000Y-98100000D03*
X117110000Y-96100000D03*
X117110000Y-94100000D03*
X117110000Y-92100000D03*
X119110000Y-93100000D03*
X119110000Y-95100000D03*
X119110000Y-97100000D03*
X119110000Y-99100000D03*
X119110000Y-101100000D03*
X119110000Y-103100000D03*
X117110000Y-104100000D03*
X119110000Y-105100000D03*
X117110000Y-106100000D03*
X119110000Y-107100000D03*
X117110000Y-108100000D03*
X119110000Y-109100000D03*
X117110000Y-110100000D03*
X119110000Y-111100000D03*
D12*
X124460000Y-78740000D03*
D13*
X124460000Y-81280000D03*
X124460000Y-83820000D03*
X124460000Y-86360000D03*
X124460000Y-88900000D03*
X124460000Y-91440000D03*
X124460000Y-93980000D03*
X124460000Y-96520000D03*
X124460000Y-99060000D03*
X124460000Y-101600000D03*
X124460000Y-104140000D03*
X124460000Y-106680000D03*
X124460000Y-109220000D03*
X124460000Y-111760000D03*
X124460000Y-114300000D03*
X124460000Y-116840000D03*
X124460000Y-119380000D03*
X124460000Y-121920000D03*
X124460000Y-124460000D03*
X124460000Y-127000000D03*
D14*
X124460000Y-116840000D02*
X118999000Y-116840000D01*
X113907996Y-103302004D02*
X117110000Y-100100000D01*
X113907996Y-111748996D02*
X113907996Y-103302004D01*
X118999000Y-116840000D02*
X113907996Y-111748996D01*
X124460000Y-114300000D02*
X121031000Y-114300000D01*
X114357998Y-104852002D02*
X117110000Y-102100000D01*
X114357998Y-111436998D02*
X114357998Y-104852002D01*
X117475000Y-114554000D02*
X114357998Y-111436998D01*
X120777000Y-114554000D02*
X117475000Y-114554000D01*
X121031000Y-114300000D02*
X120777000Y-114554000D01*
X124460000Y-119380000D02*
X120777000Y-119380000D01*
X113411000Y-101799000D02*
X117110000Y-98100000D01*
X113411000Y-112014000D02*
X113411000Y-101799000D01*
X120777000Y-119380000D02*
X113411000Y-112014000D01*
X124460000Y-121920000D02*
X122555000Y-121920000D01*
X112960998Y-100249002D02*
X117110000Y-96100000D01*
X112960998Y-112325998D02*
X112960998Y-100249002D01*
X122555000Y-121920000D02*
X112960998Y-112325998D01*
X124460000Y-124460000D02*
X124333000Y-124460000D01*
X124333000Y-124460000D02*
X112510996Y-112637996D01*
X112510996Y-112637996D02*
X112510996Y-98699004D01*
X112510996Y-98699004D02*
X117110000Y-94100000D01*
X124460000Y-127000000D02*
X113538000Y-116078000D01*
X112014000Y-97196000D02*
X117110000Y-92100000D01*
X112014000Y-114554000D02*
X112014000Y-97196000D01*
X113538000Y-116078000D02*
X112014000Y-114554000D01*
X119110000Y-93100000D02*
X119110000Y-84090000D01*
X119110000Y-84090000D02*
X124460000Y-78740000D01*
X119110000Y-95100000D02*
X119110000Y-95012000D01*
X119110000Y-95012000D02*
X120650000Y-93472000D01*
X120650000Y-93472000D02*
X120650000Y-85090000D01*
X120650000Y-85090000D02*
X124460000Y-81280000D01*
X119110000Y-97100000D02*
X119181000Y-97100000D01*
X119181000Y-97100000D02*
X120269000Y-96012000D01*
X120269000Y-96012000D02*
X120269000Y-95250000D01*
X120269000Y-95250000D02*
X121285000Y-94234000D01*
X121285000Y-94234000D02*
X121285000Y-92202000D01*
X121285000Y-92202000D02*
X121666000Y-91821000D01*
X121666000Y-91821000D02*
X121666000Y-86614000D01*
X121666000Y-86614000D02*
X124460000Y-83820000D01*
X119110000Y-99100000D02*
X119213000Y-99100000D01*
X119213000Y-99100000D02*
X120777000Y-97536000D01*
X120777000Y-97536000D02*
X120777000Y-95504000D01*
X120777000Y-95504000D02*
X121793000Y-94488000D01*
X121793000Y-94488000D02*
X121793000Y-92456000D01*
X121793000Y-92456000D02*
X122301000Y-91948000D01*
X122301000Y-91948000D02*
X122301000Y-88519000D01*
X122301000Y-88519000D02*
X124460000Y-86360000D01*
X119110000Y-101100000D02*
X119245000Y-101100000D01*
X119245000Y-101100000D02*
X121285000Y-99060000D01*
X121285000Y-99060000D02*
X121285000Y-95688998D01*
X121285000Y-95688998D02*
X122301000Y-94672998D01*
X122301000Y-94672998D02*
X122301000Y-92710000D01*
X122301000Y-92710000D02*
X122809000Y-92202000D01*
X122809000Y-92202000D02*
X122809000Y-90551000D01*
X122809000Y-90551000D02*
X124460000Y-88900000D01*
X119110000Y-103100000D02*
X119110000Y-103070998D01*
X119110000Y-103070998D02*
X120777000Y-101403998D01*
X120777000Y-101403998D02*
X120777000Y-100330000D01*
X120777000Y-100330000D02*
X121793000Y-99314000D01*
X121793000Y-99314000D02*
X121793000Y-95885000D01*
X121793000Y-95885000D02*
X122809000Y-94869000D01*
X122809000Y-94869000D02*
X122809000Y-93091000D01*
X122809000Y-93091000D02*
X124460000Y-91440000D01*
X124460000Y-111760000D02*
X122682000Y-111760000D01*
X114808000Y-106402000D02*
X117110000Y-104100000D01*
X114808000Y-111125000D02*
X114808000Y-106402000D01*
X117729000Y-114046000D02*
X114808000Y-111125000D01*
X120396000Y-114046000D02*
X117729000Y-114046000D01*
X122682000Y-111760000D02*
X120396000Y-114046000D01*
X119110000Y-105100000D02*
X119112998Y-105100000D01*
X119112998Y-105100000D02*
X121285000Y-102927998D01*
X121285000Y-102927998D02*
X121285000Y-100584000D01*
X121285000Y-100584000D02*
X122301000Y-99568000D01*
X122301000Y-99568000D02*
X122301000Y-96139000D01*
X122301000Y-96139000D02*
X124460000Y-93980000D01*
X117110000Y-106100000D02*
X117110000Y-106283000D01*
X117110000Y-106283000D02*
X115316000Y-108077000D01*
X115316000Y-108077000D02*
X115316000Y-110871000D01*
X115316000Y-110871000D02*
X117983000Y-113538000D01*
X117983000Y-113538000D02*
X120142000Y-113538000D01*
X120142000Y-113538000D02*
X124460000Y-109220000D01*
X119110000Y-107100000D02*
X119110000Y-107077000D01*
X119110000Y-107077000D02*
X121793000Y-104394000D01*
X121793000Y-104394000D02*
X121793000Y-100838000D01*
X121793000Y-100838000D02*
X122809000Y-99822000D01*
X122809000Y-99822000D02*
X122809000Y-98171000D01*
X122809000Y-98171000D02*
X124460000Y-96520000D01*
X117110000Y-108100000D02*
X117071000Y-108100000D01*
X117071000Y-108100000D02*
X115824000Y-109347000D01*
X115824000Y-109347000D02*
X115824000Y-110617000D01*
X115824000Y-110617000D02*
X118237000Y-113030000D01*
X118237000Y-113030000D02*
X119888000Y-113030000D01*
X119888000Y-113030000D02*
X122428000Y-110490000D01*
X122428000Y-110490000D02*
X122428000Y-108712000D01*
X122428000Y-108712000D02*
X124460000Y-106680000D01*
X119110000Y-109100000D02*
X119110000Y-109039998D01*
X119110000Y-109039998D02*
X120904000Y-107245998D01*
X120904000Y-107245998D02*
X120904000Y-106102998D01*
X120904000Y-106102998D02*
X122358998Y-104648000D01*
X122358998Y-104648000D02*
X122358998Y-101161002D01*
X122358998Y-101161002D02*
X124460000Y-99060000D01*
X117110000Y-110100000D02*
X117110000Y-111141000D01*
X121920000Y-106680000D02*
X124460000Y-104140000D01*
X121920000Y-110236000D02*
X121920000Y-106680000D01*
X119634000Y-112522000D02*
X121920000Y-110236000D01*
X118491000Y-112522000D02*
X119634000Y-112522000D01*
X117110000Y-111141000D02*
X118491000Y-112522000D01*
X119110000Y-111100000D02*
X119151000Y-111100000D01*
X119151000Y-111100000D02*
X121412000Y-108839000D01*
X121412000Y-108839000D02*
X121412000Y-106426000D01*
X121412000Y-106426000D02*
X122809000Y-105029000D01*
X122809000Y-105029000D02*
X122809000Y-103251000D01*
X122809000Y-103251000D02*
X124460000Y-101600000D01*
D15*
G36*
X126238000Y-128778000D02*
X111887000Y-128778000D01*
X111887000Y-115501802D01*
X122877619Y-126492421D01*
X122776655Y-127000000D01*
X122890729Y-127573489D01*
X123215585Y-128059670D01*
X123701766Y-128384526D01*
X124275255Y-128498600D01*
X124644745Y-128498600D01*
X125218234Y-128384526D01*
X125704415Y-128059670D01*
X126029271Y-127573489D01*
X126143345Y-127000000D01*
X126029271Y-126426511D01*
X125704415Y-125940330D01*
X125389634Y-125730000D01*
X125704415Y-125519670D01*
X126029271Y-125033489D01*
X126143345Y-124460000D01*
X126029271Y-123886511D01*
X125704415Y-123400330D01*
X125389634Y-123190000D01*
X125704415Y-122979670D01*
X126029271Y-122493489D01*
X126143345Y-121920000D01*
X126029271Y-121346511D01*
X125704415Y-120860330D01*
X125389634Y-120650000D01*
X125704415Y-120439670D01*
X126029271Y-119953489D01*
X126143345Y-119380000D01*
X126029271Y-118806511D01*
X125704415Y-118320330D01*
X125389634Y-118110000D01*
X125704415Y-117899670D01*
X126029271Y-117413489D01*
X126143345Y-116840000D01*
X126029271Y-116266511D01*
X125704415Y-115780330D01*
X125389634Y-115570000D01*
X125704415Y-115359670D01*
X126029271Y-114873489D01*
X126143345Y-114300000D01*
X126029271Y-113726511D01*
X125704415Y-113240330D01*
X125389634Y-113030000D01*
X125704415Y-112819670D01*
X126029271Y-112333489D01*
X126143345Y-111760000D01*
X126029271Y-111186511D01*
X125704415Y-110700330D01*
X125389634Y-110490000D01*
X125704415Y-110279670D01*
X126029271Y-109793489D01*
X126143345Y-109220000D01*
X126029271Y-108646511D01*
X125704415Y-108160330D01*
X125389634Y-107950000D01*
X125704415Y-107739670D01*
X126029271Y-107253489D01*
X126143345Y-106680000D01*
X126029271Y-106106511D01*
X125704415Y-105620330D01*
X125389634Y-105410000D01*
X125704415Y-105199670D01*
X126029271Y-104713489D01*
X126143345Y-104140000D01*
X126029271Y-103566511D01*
X125704415Y-103080330D01*
X125389634Y-102870000D01*
X125704415Y-102659670D01*
X126029271Y-102173489D01*
X126143345Y-101600000D01*
X126029271Y-101026511D01*
X125704415Y-100540330D01*
X125389634Y-100330000D01*
X125704415Y-100119670D01*
X126029271Y-99633489D01*
X126143345Y-99060000D01*
X126029271Y-98486511D01*
X125704415Y-98000330D01*
X125389634Y-97790000D01*
X125704415Y-97579670D01*
X126029271Y-97093489D01*
X126143345Y-96520000D01*
X126029271Y-95946511D01*
X125704415Y-95460330D01*
X125389634Y-95250000D01*
X125704415Y-95039670D01*
X126029271Y-94553489D01*
X126143345Y-93980000D01*
X126029271Y-93406511D01*
X125704415Y-92920330D01*
X125389634Y-92710000D01*
X125704415Y-92499670D01*
X126029271Y-92013489D01*
X126143345Y-91440000D01*
X126029271Y-90866511D01*
X125704415Y-90380330D01*
X125389634Y-90170000D01*
X125704415Y-89959670D01*
X126029271Y-89473489D01*
X126143345Y-88900000D01*
X126029271Y-88326511D01*
X125704415Y-87840330D01*
X125389634Y-87630000D01*
X125704415Y-87419670D01*
X126029271Y-86933489D01*
X126143345Y-86360000D01*
X126029271Y-85786511D01*
X125704415Y-85300330D01*
X125389634Y-85090000D01*
X125704415Y-84879670D01*
X126029271Y-84393489D01*
X126143345Y-83820000D01*
X126029271Y-83246511D01*
X125704415Y-82760330D01*
X125389634Y-82550000D01*
X125704415Y-82339670D01*
X126029271Y-81853489D01*
X126143345Y-81280000D01*
X126029271Y-80706511D01*
X125704415Y-80220330D01*
X125690087Y-80210757D01*
X125711317Y-80206762D01*
X125927441Y-80067690D01*
X126072431Y-79855490D01*
X126123440Y-79603600D01*
X126123440Y-77876400D01*
X126079162Y-77641083D01*
X125940090Y-77424959D01*
X125727890Y-77279969D01*
X125476000Y-77228960D01*
X123444000Y-77228960D01*
X123208683Y-77273238D01*
X122992559Y-77412310D01*
X122847569Y-77624510D01*
X122796560Y-77876400D01*
X122796560Y-79328638D01*
X118572599Y-83552599D01*
X118407852Y-83799161D01*
X118350000Y-84090000D01*
X118350000Y-91474206D01*
X118284831Y-91316485D01*
X117895564Y-90926539D01*
X117386702Y-90715241D01*
X116835715Y-90714760D01*
X116326485Y-90925169D01*
X115936539Y-91314436D01*
X115725241Y-91823298D01*
X115724760Y-92374285D01*
X115735330Y-92399868D01*
X111887000Y-96248198D01*
X111887000Y-76962000D01*
X126238000Y-76962000D01*
X126238000Y-128778000D01*
X126238000Y-128778000D01*
G37*
X126238000Y-128778000D02*
X111887000Y-128778000D01*
X111887000Y-115501802D01*
X122877619Y-126492421D01*
X122776655Y-127000000D01*
X122890729Y-127573489D01*
X123215585Y-128059670D01*
X123701766Y-128384526D01*
X124275255Y-128498600D01*
X124644745Y-128498600D01*
X125218234Y-128384526D01*
X125704415Y-128059670D01*
X126029271Y-127573489D01*
X126143345Y-127000000D01*
X126029271Y-126426511D01*
X125704415Y-125940330D01*
X125389634Y-125730000D01*
X125704415Y-125519670D01*
X126029271Y-125033489D01*
X126143345Y-124460000D01*
X126029271Y-123886511D01*
X125704415Y-123400330D01*
X125389634Y-123190000D01*
X125704415Y-122979670D01*
X126029271Y-122493489D01*
X126143345Y-121920000D01*
X126029271Y-121346511D01*
X125704415Y-120860330D01*
X125389634Y-120650000D01*
X125704415Y-120439670D01*
X126029271Y-119953489D01*
X126143345Y-119380000D01*
X126029271Y-118806511D01*
X125704415Y-118320330D01*
X125389634Y-118110000D01*
X125704415Y-117899670D01*
X126029271Y-117413489D01*
X126143345Y-116840000D01*
X126029271Y-116266511D01*
X125704415Y-115780330D01*
X125389634Y-115570000D01*
X125704415Y-115359670D01*
X126029271Y-114873489D01*
X126143345Y-114300000D01*
X126029271Y-113726511D01*
X125704415Y-113240330D01*
X125389634Y-113030000D01*
X125704415Y-112819670D01*
X126029271Y-112333489D01*
X126143345Y-111760000D01*
X126029271Y-111186511D01*
X125704415Y-110700330D01*
X125389634Y-110490000D01*
X125704415Y-110279670D01*
X126029271Y-109793489D01*
X126143345Y-109220000D01*
X126029271Y-108646511D01*
X125704415Y-108160330D01*
X125389634Y-107950000D01*
X125704415Y-107739670D01*
X126029271Y-107253489D01*
X126143345Y-106680000D01*
X126029271Y-106106511D01*
X125704415Y-105620330D01*
X125389634Y-105410000D01*
X125704415Y-105199670D01*
X126029271Y-104713489D01*
X126143345Y-104140000D01*
X126029271Y-103566511D01*
X125704415Y-103080330D01*
X125389634Y-102870000D01*
X125704415Y-102659670D01*
X126029271Y-102173489D01*
X126143345Y-101600000D01*
X126029271Y-101026511D01*
X125704415Y-100540330D01*
X125389634Y-100330000D01*
X125704415Y-100119670D01*
X126029271Y-99633489D01*
X126143345Y-99060000D01*
X126029271Y-98486511D01*
X125704415Y-98000330D01*
X125389634Y-97790000D01*
X125704415Y-97579670D01*
X126029271Y-97093489D01*
X126143345Y-96520000D01*
X126029271Y-95946511D01*
X125704415Y-95460330D01*
X125389634Y-95250000D01*
X125704415Y-95039670D01*
X126029271Y-94553489D01*
X126143345Y-93980000D01*
X126029271Y-93406511D01*
X125704415Y-92920330D01*
X125389634Y-92710000D01*
X125704415Y-92499670D01*
X126029271Y-92013489D01*
X126143345Y-91440000D01*
X126029271Y-90866511D01*
X125704415Y-90380330D01*
X125389634Y-90170000D01*
X125704415Y-89959670D01*
X126029271Y-89473489D01*
X126143345Y-88900000D01*
X126029271Y-88326511D01*
X125704415Y-87840330D01*
X125389634Y-87630000D01*
X125704415Y-87419670D01*
X126029271Y-86933489D01*
X126143345Y-86360000D01*
X126029271Y-85786511D01*
X125704415Y-85300330D01*
X125389634Y-85090000D01*
X125704415Y-84879670D01*
X126029271Y-84393489D01*
X126143345Y-83820000D01*
X126029271Y-83246511D01*
X125704415Y-82760330D01*
X125389634Y-82550000D01*
X125704415Y-82339670D01*
X126029271Y-81853489D01*
X126143345Y-81280000D01*
X126029271Y-80706511D01*
X125704415Y-80220330D01*
X125690087Y-80210757D01*
X125711317Y-80206762D01*
X125927441Y-80067690D01*
X126072431Y-79855490D01*
X126123440Y-79603600D01*
X126123440Y-77876400D01*
X126079162Y-77641083D01*
X125940090Y-77424959D01*
X125727890Y-77279969D01*
X125476000Y-77228960D01*
X123444000Y-77228960D01*
X123208683Y-77273238D01*
X122992559Y-77412310D01*
X122847569Y-77624510D01*
X122796560Y-77876400D01*
X122796560Y-79328638D01*
X118572599Y-83552599D01*
X118407852Y-83799161D01*
X118350000Y-84090000D01*
X118350000Y-91474206D01*
X118284831Y-91316485D01*
X117895564Y-90926539D01*
X117386702Y-90715241D01*
X116835715Y-90714760D01*
X116326485Y-90925169D01*
X115936539Y-91314436D01*
X115725241Y-91823298D01*
X115724760Y-92374285D01*
X115735330Y-92399868D01*
X111887000Y-96248198D01*
X111887000Y-76962000D01*
X126238000Y-76962000D01*
X126238000Y-128778000D01*
G36*
X122856548Y-124058350D02*
X122812848Y-124278046D01*
X112774000Y-114239198D01*
X112774000Y-113975802D01*
X122856548Y-124058350D01*
X122856548Y-124058350D01*
G37*
X122856548Y-124058350D02*
X122812848Y-124278046D01*
X112774000Y-114239198D01*
X112774000Y-113975802D01*
X122856548Y-124058350D01*
G36*
X123215585Y-120439670D02*
X123530366Y-120650000D01*
X123215585Y-120860330D01*
X123015352Y-121160000D01*
X122869802Y-121160000D01*
X121849802Y-120140000D01*
X123015352Y-120140000D01*
X123215585Y-120439670D01*
X123215585Y-120439670D01*
G37*
X123215585Y-120439670D02*
X123530366Y-120650000D01*
X123215585Y-120860330D01*
X123015352Y-121160000D01*
X122869802Y-121160000D01*
X121849802Y-120140000D01*
X123015352Y-120140000D01*
X123215585Y-120439670D01*
G36*
X123215585Y-117899670D02*
X123530366Y-118110000D01*
X123215585Y-118320330D01*
X123015352Y-118620000D01*
X121091802Y-118620000D01*
X120071802Y-117600000D01*
X123015352Y-117600000D01*
X123215585Y-117899670D01*
X123215585Y-117899670D01*
G37*
X123215585Y-117899670D02*
X123530366Y-118110000D01*
X123215585Y-118320330D01*
X123015352Y-118620000D01*
X121091802Y-118620000D01*
X120071802Y-117600000D01*
X123015352Y-117600000D01*
X123215585Y-117899670D01*
G36*
X123215585Y-115359670D02*
X123530366Y-115570000D01*
X123215585Y-115780330D01*
X123015352Y-116080000D01*
X119313802Y-116080000D01*
X118547802Y-115314000D01*
X120777000Y-115314000D01*
X121067839Y-115256148D01*
X121314401Y-115091401D01*
X121345802Y-115060000D01*
X123015352Y-115060000D01*
X123215585Y-115359670D01*
X123215585Y-115359670D01*
G37*
X123215585Y-115359670D02*
X123530366Y-115570000D01*
X123215585Y-115780330D01*
X123015352Y-116080000D01*
X119313802Y-116080000D01*
X118547802Y-115314000D01*
X120777000Y-115314000D01*
X121067839Y-115256148D01*
X121314401Y-115091401D01*
X121345802Y-115060000D01*
X123015352Y-115060000D01*
X123215585Y-115359670D01*
G36*
X123215585Y-112819670D02*
X123530366Y-113030000D01*
X123215585Y-113240330D01*
X123015352Y-113540000D01*
X121976802Y-113540000D01*
X122996802Y-112520000D01*
X123015352Y-112520000D01*
X123215585Y-112819670D01*
X123215585Y-112819670D01*
G37*
X123215585Y-112819670D02*
X123530366Y-113030000D01*
X123215585Y-113240330D01*
X123015352Y-113540000D01*
X121976802Y-113540000D01*
X122996802Y-112520000D01*
X123015352Y-112520000D01*
X123215585Y-112819670D01*
G36*
X122877619Y-107187579D02*
X122680000Y-107385198D01*
X122680000Y-106994802D01*
X122812848Y-106861954D01*
X122877619Y-107187579D01*
X122877619Y-107187579D01*
G37*
X122877619Y-107187579D02*
X122680000Y-107385198D01*
X122680000Y-106994802D01*
X122812848Y-106861954D01*
X122877619Y-107187579D01*
G36*
X115788836Y-106529362D02*
X115568000Y-106750198D01*
X115568000Y-106716802D01*
X115779072Y-106505730D01*
X115788836Y-106529362D01*
X115788836Y-106529362D01*
G37*
X115788836Y-106529362D02*
X115568000Y-106750198D01*
X115568000Y-106716802D01*
X115779072Y-106505730D01*
X115788836Y-106529362D01*
G36*
X122877619Y-81787579D02*
X120112599Y-84552599D01*
X119947852Y-84799161D01*
X119890000Y-85090000D01*
X119890000Y-91924229D01*
X119870000Y-91915924D01*
X119870000Y-84404802D01*
X122812848Y-81461954D01*
X122877619Y-81787579D01*
X122877619Y-81787579D01*
G37*
X122877619Y-81787579D02*
X120112599Y-84552599D01*
X119947852Y-84799161D01*
X119890000Y-85090000D01*
X119890000Y-91924229D01*
X119870000Y-91915924D01*
X119870000Y-84404802D01*
X122812848Y-81461954D01*
X122877619Y-81787579D01*
G36*
X122877619Y-86867579D02*
X122426000Y-87319198D01*
X122426000Y-86928802D01*
X122812848Y-86541954D01*
X122877619Y-86867579D01*
X122877619Y-86867579D01*
G37*
X122877619Y-86867579D02*
X122426000Y-87319198D01*
X122426000Y-86928802D01*
X122812848Y-86541954D01*
X122877619Y-86867579D01*
G36*
X122877619Y-84327579D02*
X121410000Y-85795198D01*
X121410000Y-85404802D01*
X122812848Y-84001954D01*
X122877619Y-84327579D01*
X122877619Y-84327579D01*
G37*
X122877619Y-84327579D02*
X121410000Y-85795198D01*
X121410000Y-85404802D01*
X122812848Y-84001954D01*
X122877619Y-84327579D01*
M02*
