M48
INCH,TZ
T1C0.028
T2C0.040
%
G90
G05
T1
X46106Y-36260
X46106Y-37047
X46106Y-37835
X46106Y-38622
X46106Y-39409
X46106Y-40197
X46106Y-40984
X46106Y-41772
X46106Y-42559
X46106Y-43346
X46894Y-36654
X46894Y-37441
X46894Y-38228
X46894Y-39016
X46894Y-39803
X46894Y-40591
X46894Y-41378
X46894Y-42165
X46894Y-42953
X46894Y-43740
T2
X49000Y-31000
X49000Y-32000
X49000Y-33000
X49000Y-34000
X49000Y-35000
X49000Y-36000
X49000Y-37000
X49000Y-38000
X49000Y-39000
X49000Y-40000
X49000Y-41000
X49000Y-42000
X49000Y-43000
X49000Y-44000
X49000Y-45000
X49000Y-46000
X49000Y-47000
X49000Y-48000
X49000Y-49000
X49000Y-50000
T0
M30
