G04 #@! TF.FileFunction,Legend,Top*
%FSLAX46Y46*%
G04 Gerber Fmt 4.6, Leading zero omitted, Abs format (unit mm)*
G04 Created by KiCad (PCBNEW 4.0.1-3.201512221402+6198~38~ubuntu15.04.1-stable) date Tue 02 Feb 2016 09:09:18 AM EST*
%MOMM*%
G01*
G04 APERTURE LIST*
%ADD10C,0.100000*%
%ADD11C,0.150000*%
%ADD12C,0.254000*%
%ADD13C,0.508000*%
%ADD14C,2.305000*%
%ADD15C,2.398980*%
%ADD16C,1.924000*%
%ADD17O,2.000000X2.000000*%
%ADD18R,1.797000X1.797000*%
%ADD19C,1.797000*%
%ADD20C,2.940000*%
%ADD21C,1.900000*%
%ADD22R,2.432000X2.432000*%
%ADD23O,2.432000X2.432000*%
%ADD24R,2.127200X2.432000*%
%ADD25O,2.127200X2.432000*%
%ADD26C,2.178000*%
%ADD27R,2.224000X1.924000*%
%ADD28O,2.224000X1.924000*%
%ADD29C,5.480000*%
%ADD30R,1.700000X1.700000*%
%ADD31C,1.700000*%
%ADD32R,2.940000X2.940000*%
%ADD33R,1.800000X1.800000*%
%ADD34C,1.800000*%
%ADD35C,3.448000*%
%ADD36C,3.702000*%
%ADD37C,1.543000*%
%ADD38C,4.210000*%
%ADD39C,6.750000*%
G04 APERTURE END LIST*
D10*
D11*
X178028472Y-116205000D02*
G75*
G03X178028472Y-116205000I-2514472J0D01*
G01*
X162433000Y-113665000D02*
X160655000Y-113665000D01*
X162433000Y-116205000D02*
X160655000Y-116205000D01*
X162433000Y-118745000D02*
X160655000Y-118745000D01*
X170942000Y-121539000D02*
X178943000Y-121539000D01*
X178943000Y-121539000D02*
X178943000Y-110871000D01*
X178943000Y-110871000D02*
X170942000Y-110871000D01*
X162433000Y-121539000D02*
X170942000Y-121539000D01*
X170942000Y-121539000D02*
X170942000Y-110871000D01*
X170942000Y-110871000D02*
X162433000Y-110871000D01*
X162433000Y-116205000D02*
X162433000Y-110871000D01*
X162433000Y-116205000D02*
X162433000Y-121539000D01*
X98214148Y-76367705D02*
X100754148Y-71968295D01*
X100754148Y-71968295D02*
X102953852Y-73238295D01*
X102953852Y-73238295D02*
X100413852Y-77637705D01*
X100413852Y-77637705D02*
X98214148Y-76367705D01*
X99314000Y-77002705D02*
X98679000Y-78102557D01*
X101854000Y-72603295D02*
X102489000Y-71503443D01*
X106019195Y-74665972D02*
G75*
G03X106871217Y-74744262I642486J2316725D01*
G01*
X108831643Y-71314228D02*
G75*
G02X109056695Y-72139710I-2169962J-1035019D01*
G01*
X106871217Y-74744262D02*
X109056695Y-72139710D01*
X104496488Y-73384592D02*
G75*
G02X104823174Y-70806557I2165193J1035345D01*
G01*
X107305314Y-70037162D02*
G75*
G03X104823174Y-70806557I-643633J-2312085D01*
G01*
X115979695Y-75203010D02*
G75*
G03X115492000Y-74500000I-2187695J-996990D01*
G01*
X111604305Y-75203010D02*
G75*
G02X112092000Y-74500000I2187695J-996990D01*
G01*
X115492000Y-74500000D02*
X112092000Y-74500000D01*
X115976879Y-77193127D02*
G75*
G02X113792000Y-78600000I-2184879J993127D01*
G01*
X111607121Y-77193127D02*
G75*
G03X113792000Y-78600000I2184879J993127D01*
G01*
X93697305Y-87991990D02*
G75*
G03X94185000Y-88695000I2187695J996990D01*
G01*
X98072695Y-87991990D02*
G75*
G02X97585000Y-88695000I-2187695J996990D01*
G01*
X94185000Y-88695000D02*
X97585000Y-88695000D01*
X93700121Y-86001873D02*
G75*
G02X95885000Y-84595000I2184879J-993127D01*
G01*
X98069879Y-86001873D02*
G75*
G03X95885000Y-84595000I-2184879J-993127D01*
G01*
X207645000Y-119380000D02*
X207645000Y-118618000D01*
X207645000Y-118618000D02*
X208661000Y-118618000D01*
X208661000Y-118618000D02*
X208661000Y-112522000D01*
X208661000Y-112522000D02*
X207645000Y-112522000D01*
X207645000Y-112522000D02*
X207645000Y-111760000D01*
X207645000Y-112522000D02*
X206629000Y-112522000D01*
X206629000Y-112522000D02*
X206629000Y-118618000D01*
X206629000Y-118618000D02*
X207645000Y-118618000D01*
X208661000Y-118110000D02*
X206629000Y-118110000D01*
X206629000Y-117856000D02*
X208661000Y-117856000D01*
X95250000Y-108585000D02*
X95250000Y-107823000D01*
X95250000Y-107823000D02*
X96266000Y-107823000D01*
X96266000Y-107823000D02*
X96266000Y-101727000D01*
X96266000Y-101727000D02*
X95250000Y-101727000D01*
X95250000Y-101727000D02*
X95250000Y-100965000D01*
X95250000Y-101727000D02*
X94234000Y-101727000D01*
X94234000Y-101727000D02*
X94234000Y-107823000D01*
X94234000Y-107823000D02*
X95250000Y-107823000D01*
X96266000Y-107315000D02*
X94234000Y-107315000D01*
X94234000Y-107061000D02*
X96266000Y-107061000D01*
X93091000Y-98171000D02*
X93091000Y-97409000D01*
X93091000Y-97409000D02*
X94107000Y-97409000D01*
X94107000Y-97409000D02*
X94107000Y-91313000D01*
X94107000Y-91313000D02*
X93091000Y-91313000D01*
X93091000Y-91313000D02*
X93091000Y-90551000D01*
X93091000Y-91313000D02*
X92075000Y-91313000D01*
X92075000Y-91313000D02*
X92075000Y-97409000D01*
X92075000Y-97409000D02*
X93091000Y-97409000D01*
X94107000Y-96901000D02*
X92075000Y-96901000D01*
X92075000Y-96647000D02*
X94107000Y-96647000D01*
X102235000Y-108585000D02*
X102235000Y-107823000D01*
X102235000Y-107823000D02*
X103251000Y-107823000D01*
X103251000Y-107823000D02*
X103251000Y-101727000D01*
X103251000Y-101727000D02*
X102235000Y-101727000D01*
X102235000Y-101727000D02*
X102235000Y-100965000D01*
X102235000Y-101727000D02*
X101219000Y-101727000D01*
X101219000Y-101727000D02*
X101219000Y-107823000D01*
X101219000Y-107823000D02*
X102235000Y-107823000D01*
X103251000Y-107315000D02*
X101219000Y-107315000D01*
X101219000Y-107061000D02*
X103251000Y-107061000D01*
X101727000Y-96901000D02*
X101727000Y-96139000D01*
X101727000Y-96139000D02*
X102743000Y-96139000D01*
X102743000Y-96139000D02*
X102743000Y-90043000D01*
X102743000Y-90043000D02*
X101727000Y-90043000D01*
X101727000Y-90043000D02*
X101727000Y-89281000D01*
X101727000Y-90043000D02*
X100711000Y-90043000D01*
X100711000Y-90043000D02*
X100711000Y-96139000D01*
X100711000Y-96139000D02*
X101727000Y-96139000D01*
X102743000Y-95631000D02*
X100711000Y-95631000D01*
X100711000Y-95377000D02*
X102743000Y-95377000D01*
X109220000Y-108585000D02*
X109220000Y-107823000D01*
X109220000Y-107823000D02*
X110236000Y-107823000D01*
X110236000Y-107823000D02*
X110236000Y-101727000D01*
X110236000Y-101727000D02*
X109220000Y-101727000D01*
X109220000Y-101727000D02*
X109220000Y-100965000D01*
X109220000Y-101727000D02*
X108204000Y-101727000D01*
X108204000Y-101727000D02*
X108204000Y-107823000D01*
X108204000Y-107823000D02*
X109220000Y-107823000D01*
X110236000Y-107315000D02*
X108204000Y-107315000D01*
X108204000Y-107061000D02*
X110236000Y-107061000D01*
X109855000Y-95377000D02*
X109855000Y-94615000D01*
X109855000Y-94615000D02*
X110871000Y-94615000D01*
X110871000Y-94615000D02*
X110871000Y-88519000D01*
X110871000Y-88519000D02*
X109855000Y-88519000D01*
X109855000Y-88519000D02*
X109855000Y-87757000D01*
X109855000Y-88519000D02*
X108839000Y-88519000D01*
X108839000Y-88519000D02*
X108839000Y-94615000D01*
X108839000Y-94615000D02*
X109855000Y-94615000D01*
X110871000Y-94107000D02*
X108839000Y-94107000D01*
X108839000Y-93853000D02*
X110871000Y-93853000D01*
X117983000Y-108839000D02*
X117983000Y-108077000D01*
X117983000Y-108077000D02*
X118999000Y-108077000D01*
X118999000Y-108077000D02*
X118999000Y-101981000D01*
X118999000Y-101981000D02*
X117983000Y-101981000D01*
X117983000Y-101981000D02*
X117983000Y-101219000D01*
X117983000Y-101981000D02*
X116967000Y-101981000D01*
X116967000Y-101981000D02*
X116967000Y-108077000D01*
X116967000Y-108077000D02*
X117983000Y-108077000D01*
X118999000Y-107569000D02*
X116967000Y-107569000D01*
X116967000Y-107315000D02*
X118999000Y-107315000D01*
X117348000Y-94107000D02*
X117348000Y-93345000D01*
X117348000Y-93345000D02*
X118364000Y-93345000D01*
X118364000Y-93345000D02*
X118364000Y-87249000D01*
X118364000Y-87249000D02*
X117348000Y-87249000D01*
X117348000Y-87249000D02*
X117348000Y-86487000D01*
X117348000Y-87249000D02*
X116332000Y-87249000D01*
X116332000Y-87249000D02*
X116332000Y-93345000D01*
X116332000Y-93345000D02*
X117348000Y-93345000D01*
X118364000Y-92837000D02*
X116332000Y-92837000D01*
X116332000Y-92583000D02*
X118364000Y-92583000D01*
D12*
X215900000Y-55880000D02*
X214630000Y-55880000D01*
X220980000Y-55880000D02*
X222250000Y-55880000D01*
X220980000Y-55880000D02*
G75*
G03X218440000Y-55880000I-1270000J-1270000D01*
G01*
X215900000Y-55880000D02*
G75*
G03X218440000Y-55880000I1270000J1270000D01*
G01*
X222250000Y-54610000D02*
X222250000Y-57150000D01*
X214630000Y-54610000D02*
X214630000Y-57150000D01*
X226060000Y-55880000D02*
G75*
G03X226060000Y-55880000I-7620000J0D01*
G01*
X150495000Y-81280000D02*
X150495000Y-82550000D01*
X150495000Y-76200000D02*
X150495000Y-74930000D01*
X150495000Y-76200000D02*
G75*
G03X150495000Y-78740000I1270000J-1270000D01*
G01*
X150495000Y-81280000D02*
G75*
G03X150495000Y-78740000I-1270000J1270000D01*
G01*
X149225000Y-74930000D02*
X151765000Y-74930000D01*
X149225000Y-82550000D02*
X151765000Y-82550000D01*
X158115000Y-78740000D02*
G75*
G03X158115000Y-78740000I-7620000J0D01*
G01*
D11*
X54740000Y-113070000D02*
X54740000Y-117570000D01*
X54740000Y-113070000D02*
X77340000Y-113070000D01*
X77340000Y-113070000D02*
X77340000Y-117570000D01*
X214575000Y-104495000D02*
X215075000Y-104495000D01*
X215075000Y-104495000D02*
X215075000Y-104995000D01*
X215075000Y-104995000D02*
X215575000Y-104995000D01*
X215575000Y-104995000D02*
X215575000Y-103995000D01*
X215575000Y-103995000D02*
X215075000Y-103995000D01*
X215075000Y-103995000D02*
X215075000Y-104495000D01*
X216075000Y-114245000D02*
X216075000Y-105745000D01*
X216075000Y-105745000D02*
X216575000Y-103745000D01*
X217325000Y-118745000D02*
X216575000Y-118745000D01*
X216575000Y-118745000D02*
X216075000Y-118245000D01*
X216075000Y-118245000D02*
X216075000Y-114745000D01*
X223825000Y-115495000D02*
X222825000Y-114495000D01*
X222825000Y-114495000D02*
X220075000Y-114495000D01*
X214325000Y-115495000D02*
X215325000Y-114495000D01*
X215325000Y-114495000D02*
X218075000Y-114495000D01*
X218075000Y-114495000D02*
X218075000Y-114995000D01*
X218075000Y-114995000D02*
X220075000Y-114995000D01*
X220075000Y-114995000D02*
X220075000Y-113995000D01*
X220075000Y-113995000D02*
X218075000Y-113995000D01*
X218075000Y-113995000D02*
X218075000Y-114495000D01*
D12*
X227325000Y-98495000D02*
X210825000Y-98495000D01*
X227325000Y-120995000D02*
X227325000Y-98495000D01*
X210825000Y-120995000D02*
X227325000Y-120995000D01*
X210825000Y-120995000D02*
X210825000Y-98495000D01*
D11*
X51790000Y-53695000D02*
X51790000Y-55245000D01*
X52070000Y-59055000D02*
X52070000Y-56515000D01*
X52070000Y-56515000D02*
X54610000Y-56515000D01*
X54890000Y-55245000D02*
X54890000Y-53695000D01*
X54890000Y-53695000D02*
X51790000Y-53695000D01*
X54610000Y-56515000D02*
X54610000Y-59055000D01*
X54610000Y-59055000D02*
X52070000Y-59055000D01*
X64770000Y-60960000D02*
X52070000Y-60960000D01*
X52070000Y-60960000D02*
X52070000Y-63500000D01*
X52070000Y-63500000D02*
X64770000Y-63500000D01*
X67590000Y-60680000D02*
X66040000Y-60680000D01*
X64770000Y-60960000D02*
X64770000Y-63500000D01*
X66040000Y-63780000D02*
X67590000Y-63780000D01*
X67590000Y-63780000D02*
X67590000Y-60680000D01*
X136398000Y-82169000D02*
X128778000Y-82169000D01*
X136398000Y-79629000D02*
X128778000Y-79629000D01*
X139218000Y-79349000D02*
X137668000Y-79349000D01*
X128778000Y-82169000D02*
X128778000Y-79629000D01*
X136398000Y-79629000D02*
X136398000Y-82169000D01*
X137668000Y-82449000D02*
X139218000Y-82449000D01*
X139218000Y-82449000D02*
X139218000Y-79349000D01*
X94081000Y-83973000D02*
X95631000Y-83973000D01*
X99441000Y-83693000D02*
X96901000Y-83693000D01*
X96901000Y-83693000D02*
X96901000Y-81153000D01*
X95631000Y-80873000D02*
X94081000Y-80873000D01*
X94081000Y-80873000D02*
X94081000Y-83973000D01*
X96901000Y-81153000D02*
X99441000Y-81153000D01*
X99441000Y-81153000D02*
X99441000Y-83693000D01*
X75917305Y-42271990D02*
G75*
G03X76405000Y-42975000I2187695J996990D01*
G01*
X80292695Y-42271990D02*
G75*
G02X79805000Y-42975000I-2187695J996990D01*
G01*
X76405000Y-42975000D02*
X79805000Y-42975000D01*
X75920121Y-40281873D02*
G75*
G02X78105000Y-38875000I2184879J-993127D01*
G01*
X80289879Y-40281873D02*
G75*
G03X78105000Y-38875000I-2184879J-993127D01*
G01*
X207200000Y-107295000D02*
X199200000Y-107295000D01*
D12*
X207200000Y-105045000D02*
X207200000Y-107795000D01*
X207200000Y-107795000D02*
X199200000Y-107795000D01*
X199200000Y-107795000D02*
X199200000Y-105045000D01*
X199200000Y-105045000D02*
X207200000Y-105045000D01*
D11*
X92055000Y-100775000D02*
X92055000Y-108775000D01*
D12*
X89805000Y-100775000D02*
X92555000Y-100775000D01*
X92555000Y-100775000D02*
X92555000Y-108775000D01*
X92555000Y-108775000D02*
X89805000Y-108775000D01*
X89805000Y-108775000D02*
X89805000Y-100775000D01*
D11*
X96540000Y-98107000D02*
X96540000Y-90107000D01*
D12*
X98790000Y-98107000D02*
X96040000Y-98107000D01*
X96040000Y-98107000D02*
X96040000Y-90107000D01*
X96040000Y-90107000D02*
X98790000Y-90107000D01*
X98790000Y-90107000D02*
X98790000Y-98107000D01*
D11*
X106200695Y-79013010D02*
G75*
G03X105713000Y-78310000I-2187695J-996990D01*
G01*
X101825305Y-79013010D02*
G75*
G02X102313000Y-78310000I2187695J-996990D01*
G01*
X105713000Y-78310000D02*
X102313000Y-78310000D01*
X106197879Y-81003127D02*
G75*
G02X104013000Y-82410000I-2184879J993127D01*
G01*
X101828121Y-81003127D02*
G75*
G03X104013000Y-82410000I2184879J993127D01*
G01*
X99675000Y-99505000D02*
X99675000Y-107505000D01*
D12*
X97425000Y-99505000D02*
X100175000Y-99505000D01*
X100175000Y-99505000D02*
X100175000Y-107505000D01*
X100175000Y-107505000D02*
X97425000Y-107505000D01*
X97425000Y-107505000D02*
X97425000Y-99505000D01*
D11*
X104668000Y-97345000D02*
X104668000Y-89345000D01*
D12*
X106918000Y-97345000D02*
X104168000Y-97345000D01*
X104168000Y-97345000D02*
X104168000Y-89345000D01*
X104168000Y-89345000D02*
X106918000Y-89345000D01*
X106918000Y-89345000D02*
X106918000Y-97345000D01*
D11*
X101190305Y-86340990D02*
G75*
G03X101678000Y-87044000I2187695J996990D01*
G01*
X105565695Y-86340990D02*
G75*
G02X105078000Y-87044000I-2187695J996990D01*
G01*
X101678000Y-87044000D02*
X105078000Y-87044000D01*
X101193121Y-84350873D02*
G75*
G02X103378000Y-82944000I2184879J-993127D01*
G01*
X105562879Y-84350873D02*
G75*
G03X103378000Y-82944000I-2184879J-993127D01*
G01*
X113303010Y-80997305D02*
G75*
G03X112600000Y-81485000I996990J-2187695D01*
G01*
X113303010Y-85372695D02*
G75*
G02X112600000Y-84885000I996990J2187695D01*
G01*
X112600000Y-81485000D02*
X112600000Y-84885000D01*
X115293127Y-81000121D02*
G75*
G02X116700000Y-83185000I-993127J-2184879D01*
G01*
X115293127Y-85369879D02*
G75*
G03X116700000Y-83185000I-993127J2184879D01*
G01*
X106660000Y-99505000D02*
X106660000Y-107505000D01*
D12*
X104410000Y-99505000D02*
X107160000Y-99505000D01*
X107160000Y-99505000D02*
X107160000Y-107505000D01*
X107160000Y-107505000D02*
X104410000Y-107505000D01*
X104410000Y-107505000D02*
X104410000Y-99505000D01*
D11*
X112796000Y-96583000D02*
X112796000Y-88583000D01*
D12*
X115046000Y-96583000D02*
X112296000Y-96583000D01*
X112296000Y-96583000D02*
X112296000Y-88583000D01*
X112296000Y-88583000D02*
X115046000Y-88583000D01*
X115046000Y-88583000D02*
X115046000Y-96583000D01*
D11*
X108858010Y-79727305D02*
G75*
G03X108155000Y-80215000I996990J-2187695D01*
G01*
X108858010Y-84102695D02*
G75*
G02X108155000Y-83615000I996990J2187695D01*
G01*
X108155000Y-80215000D02*
X108155000Y-83615000D01*
X110848127Y-79730121D02*
G75*
G02X112255000Y-81915000I-993127J-2184879D01*
G01*
X110848127Y-84099879D02*
G75*
G03X112255000Y-81915000I-993127J2184879D01*
G01*
X115423000Y-99886000D02*
X115423000Y-107886000D01*
D12*
X113173000Y-99886000D02*
X115923000Y-99886000D01*
X115923000Y-99886000D02*
X115923000Y-107886000D01*
X115923000Y-107886000D02*
X113173000Y-107886000D01*
X113173000Y-107886000D02*
X113173000Y-99886000D01*
D11*
X119908000Y-95186000D02*
X119908000Y-87186000D01*
D12*
X122158000Y-95186000D02*
X119408000Y-95186000D01*
X119408000Y-95186000D02*
X119408000Y-87186000D01*
X119408000Y-87186000D02*
X122158000Y-87186000D01*
X122158000Y-87186000D02*
X122158000Y-95186000D01*
D11*
X123463010Y-83537305D02*
G75*
G03X122760000Y-84025000I996990J-2187695D01*
G01*
X123463010Y-87912695D02*
G75*
G02X122760000Y-87425000I996990J2187695D01*
G01*
X122760000Y-84025000D02*
X122760000Y-87425000D01*
X125453127Y-83540121D02*
G75*
G02X126860000Y-85725000I-993127J-2184879D01*
G01*
X125453127Y-87909879D02*
G75*
G03X126860000Y-85725000I-993127J2184879D01*
G01*
X77822305Y-107041990D02*
G75*
G03X78310000Y-107745000I2187695J996990D01*
G01*
X82197695Y-107041990D02*
G75*
G02X81710000Y-107745000I-2187695J996990D01*
G01*
X78310000Y-107745000D02*
X81710000Y-107745000D01*
X77825121Y-105051873D02*
G75*
G02X80010000Y-103645000I2184879J-993127D01*
G01*
X82194879Y-105051873D02*
G75*
G03X80010000Y-103645000I-2184879J-993127D01*
G01*
X61722000Y-91694000D02*
X61722000Y-96774000D01*
X61722000Y-96774000D02*
X59182000Y-96774000D01*
X59182000Y-96774000D02*
X59182000Y-91694000D01*
X59182000Y-91694000D02*
X61722000Y-91694000D01*
X60452000Y-91694000D02*
X60452000Y-90424000D01*
X60452000Y-96774000D02*
X60452000Y-98044000D01*
X59690000Y-57150000D02*
X64770000Y-57150000D01*
X64770000Y-57150000D02*
X64770000Y-59690000D01*
X64770000Y-59690000D02*
X59690000Y-59690000D01*
X59690000Y-59690000D02*
X59690000Y-57150000D01*
X59690000Y-58420000D02*
X58420000Y-58420000D01*
X64770000Y-58420000D02*
X66040000Y-58420000D01*
X89535000Y-46990000D02*
X84455000Y-46990000D01*
X84455000Y-46990000D02*
X84455000Y-44450000D01*
X84455000Y-44450000D02*
X89535000Y-44450000D01*
X89535000Y-44450000D02*
X89535000Y-46990000D01*
X89535000Y-45720000D02*
X90805000Y-45720000D01*
X84455000Y-45720000D02*
X83185000Y-45720000D01*
X89535000Y-60198000D02*
X84455000Y-60198000D01*
X84455000Y-60198000D02*
X84455000Y-57658000D01*
X84455000Y-57658000D02*
X89535000Y-57658000D01*
X89535000Y-57658000D02*
X89535000Y-60198000D01*
X89535000Y-58928000D02*
X90805000Y-58928000D01*
X84455000Y-58928000D02*
X83185000Y-58928000D01*
X89535000Y-54610000D02*
X84455000Y-54610000D01*
X84455000Y-54610000D02*
X84455000Y-52070000D01*
X84455000Y-52070000D02*
X89535000Y-52070000D01*
X89535000Y-52070000D02*
X89535000Y-54610000D01*
X89535000Y-53340000D02*
X90805000Y-53340000D01*
X84455000Y-53340000D02*
X83185000Y-53340000D01*
X89535000Y-57150000D02*
X84455000Y-57150000D01*
X84455000Y-57150000D02*
X84455000Y-54610000D01*
X84455000Y-54610000D02*
X89535000Y-54610000D01*
X89535000Y-54610000D02*
X89535000Y-57150000D01*
X89535000Y-55880000D02*
X90805000Y-55880000D01*
X84455000Y-55880000D02*
X83185000Y-55880000D01*
X84455000Y-41910000D02*
X89535000Y-41910000D01*
X89535000Y-41910000D02*
X89535000Y-44450000D01*
X89535000Y-44450000D02*
X84455000Y-44450000D01*
X84455000Y-44450000D02*
X84455000Y-41910000D01*
X84455000Y-43180000D02*
X83185000Y-43180000D01*
X89535000Y-43180000D02*
X90805000Y-43180000D01*
X84963000Y-73660000D02*
X90043000Y-73660000D01*
X90043000Y-73660000D02*
X90043000Y-76200000D01*
X90043000Y-76200000D02*
X84963000Y-76200000D01*
X84963000Y-76200000D02*
X84963000Y-73660000D01*
X84963000Y-74930000D02*
X83693000Y-74930000D01*
X90043000Y-74930000D02*
X91313000Y-74930000D01*
X84455000Y-76200000D02*
X89535000Y-76200000D01*
X89535000Y-76200000D02*
X89535000Y-78740000D01*
X89535000Y-78740000D02*
X84455000Y-78740000D01*
X84455000Y-78740000D02*
X84455000Y-76200000D01*
X84455000Y-77470000D02*
X83185000Y-77470000D01*
X89535000Y-77470000D02*
X90805000Y-77470000D01*
X89535000Y-81280000D02*
X84455000Y-81280000D01*
X84455000Y-81280000D02*
X84455000Y-78740000D01*
X84455000Y-78740000D02*
X89535000Y-78740000D01*
X89535000Y-78740000D02*
X89535000Y-81280000D01*
X89535000Y-80010000D02*
X90805000Y-80010000D01*
X84455000Y-80010000D02*
X83185000Y-80010000D01*
X89535000Y-83820000D02*
X84455000Y-83820000D01*
X84455000Y-83820000D02*
X84455000Y-81280000D01*
X84455000Y-81280000D02*
X89535000Y-81280000D01*
X89535000Y-81280000D02*
X89535000Y-83820000D01*
X89535000Y-82550000D02*
X90805000Y-82550000D01*
X84455000Y-82550000D02*
X83185000Y-82550000D01*
X85344000Y-86995000D02*
X80264000Y-86995000D01*
X80264000Y-86995000D02*
X80264000Y-84455000D01*
X80264000Y-84455000D02*
X85344000Y-84455000D01*
X85344000Y-84455000D02*
X85344000Y-86995000D01*
X85344000Y-85725000D02*
X86614000Y-85725000D01*
X80264000Y-85725000D02*
X78994000Y-85725000D01*
X82550000Y-89535000D02*
X77470000Y-89535000D01*
X77470000Y-89535000D02*
X77470000Y-86995000D01*
X77470000Y-86995000D02*
X82550000Y-86995000D01*
X82550000Y-86995000D02*
X82550000Y-89535000D01*
X82550000Y-88265000D02*
X83820000Y-88265000D01*
X77470000Y-88265000D02*
X76200000Y-88265000D01*
X77470000Y-116840000D02*
X77470000Y-111760000D01*
X77470000Y-111760000D02*
X80010000Y-111760000D01*
X80010000Y-111760000D02*
X80010000Y-116840000D01*
X80010000Y-116840000D02*
X77470000Y-116840000D01*
X78740000Y-116840000D02*
X78740000Y-118110000D01*
X78740000Y-111760000D02*
X78740000Y-110490000D01*
X198374000Y-100965000D02*
X203454000Y-100965000D01*
X203454000Y-100965000D02*
X203454000Y-103505000D01*
X203454000Y-103505000D02*
X198374000Y-103505000D01*
X198374000Y-103505000D02*
X198374000Y-100965000D01*
X198374000Y-102235000D02*
X197104000Y-102235000D01*
X203454000Y-102235000D02*
X204724000Y-102235000D01*
X196215000Y-118110000D02*
X201295000Y-118110000D01*
X201295000Y-118110000D02*
X201295000Y-120650000D01*
X201295000Y-120650000D02*
X196215000Y-120650000D01*
X196215000Y-120650000D02*
X196215000Y-118110000D01*
X196215000Y-119380000D02*
X194945000Y-119380000D01*
X201295000Y-119380000D02*
X202565000Y-119380000D01*
X89535000Y-52070000D02*
X84455000Y-52070000D01*
X84455000Y-52070000D02*
X84455000Y-49530000D01*
X84455000Y-49530000D02*
X89535000Y-49530000D01*
X89535000Y-49530000D02*
X89535000Y-52070000D01*
X89535000Y-50800000D02*
X90805000Y-50800000D01*
X84455000Y-50800000D02*
X83185000Y-50800000D01*
X95293148Y-76240705D02*
X97833148Y-71841295D01*
X97833148Y-71841295D02*
X100032852Y-73111295D01*
X100032852Y-73111295D02*
X97492852Y-77510705D01*
X97492852Y-77510705D02*
X95293148Y-76240705D01*
X96393000Y-76875705D02*
X95758000Y-77975557D01*
X98933000Y-72476295D02*
X99568000Y-71376443D01*
X89535000Y-49530000D02*
X84455000Y-49530000D01*
X84455000Y-49530000D02*
X84455000Y-46990000D01*
X84455000Y-46990000D02*
X89535000Y-46990000D01*
X89535000Y-46990000D02*
X89535000Y-49530000D01*
X89535000Y-48260000D02*
X90805000Y-48260000D01*
X84455000Y-48260000D02*
X83185000Y-48260000D01*
X126365000Y-73025000D02*
X126365000Y-78105000D01*
X126365000Y-78105000D02*
X123825000Y-78105000D01*
X123825000Y-78105000D02*
X123825000Y-73025000D01*
X123825000Y-73025000D02*
X126365000Y-73025000D01*
X125095000Y-73025000D02*
X125095000Y-71755000D01*
X125095000Y-78105000D02*
X125095000Y-79375000D01*
X140335000Y-73660000D02*
X135255000Y-73660000D01*
X135255000Y-73660000D02*
X135255000Y-71120000D01*
X135255000Y-71120000D02*
X140335000Y-71120000D01*
X140335000Y-71120000D02*
X140335000Y-73660000D01*
X140335000Y-72390000D02*
X141605000Y-72390000D01*
X135255000Y-72390000D02*
X133985000Y-72390000D01*
X133350000Y-73660000D02*
X138430000Y-73660000D01*
X138430000Y-73660000D02*
X138430000Y-76200000D01*
X138430000Y-76200000D02*
X133350000Y-76200000D01*
X133350000Y-76200000D02*
X133350000Y-73660000D01*
X133350000Y-74930000D02*
X132080000Y-74930000D01*
X138430000Y-74930000D02*
X139700000Y-74930000D01*
X101554409Y-117304852D02*
X102824409Y-115105148D01*
X102824409Y-115105148D02*
X94025591Y-110025148D01*
X94025591Y-110025148D02*
X92755591Y-112224852D01*
X92755591Y-112224852D02*
X101554409Y-117304852D01*
X92290739Y-110490000D02*
X93390591Y-111125000D01*
X103289261Y-116840000D02*
X102189409Y-116205000D01*
X108539409Y-117304852D02*
X109809409Y-115105148D01*
X109809409Y-115105148D02*
X101010591Y-110025148D01*
X101010591Y-110025148D02*
X99740591Y-112224852D01*
X99740591Y-112224852D02*
X108539409Y-117304852D01*
X99275739Y-110490000D02*
X100375591Y-111125000D01*
X110274261Y-116840000D02*
X109174409Y-116205000D01*
X115524409Y-117304852D02*
X116794409Y-115105148D01*
X116794409Y-115105148D02*
X107995591Y-110025148D01*
X107995591Y-110025148D02*
X106725591Y-112224852D01*
X106725591Y-112224852D02*
X115524409Y-117304852D01*
X106260739Y-110490000D02*
X107360591Y-111125000D01*
X117259261Y-116840000D02*
X116159409Y-116205000D01*
X122509409Y-117304852D02*
X123779409Y-115105148D01*
X123779409Y-115105148D02*
X114980591Y-110025148D01*
X114980591Y-110025148D02*
X113710591Y-112224852D01*
X113710591Y-112224852D02*
X122509409Y-117304852D01*
X113245739Y-110490000D02*
X114345591Y-111125000D01*
X124244261Y-116840000D02*
X123144409Y-116205000D01*
X120650000Y-78105000D02*
X120650000Y-73025000D01*
X120650000Y-73025000D02*
X123190000Y-73025000D01*
X123190000Y-73025000D02*
X123190000Y-78105000D01*
X123190000Y-78105000D02*
X120650000Y-78105000D01*
X121920000Y-78105000D02*
X121920000Y-79375000D01*
X121920000Y-73025000D02*
X121920000Y-71755000D01*
X107600907Y-74446804D02*
X111492413Y-71181443D01*
X111492413Y-71181443D02*
X113125093Y-73127196D01*
X113125093Y-73127196D02*
X109233587Y-76392557D01*
X109233587Y-76392557D02*
X107600907Y-74446804D01*
X108417247Y-75419681D02*
X107444371Y-76236021D01*
X112308753Y-72154319D02*
X113281629Y-71337979D01*
X117475000Y-78105000D02*
X117475000Y-73025000D01*
X117475000Y-73025000D02*
X120015000Y-73025000D01*
X120015000Y-73025000D02*
X120015000Y-78105000D01*
X120015000Y-78105000D02*
X117475000Y-78105000D01*
X118745000Y-78105000D02*
X118745000Y-79375000D01*
X118745000Y-73025000D02*
X118745000Y-71755000D01*
X82550000Y-111760000D02*
X82550000Y-116840000D01*
X82550000Y-116840000D02*
X80010000Y-116840000D01*
X80010000Y-116840000D02*
X80010000Y-111760000D01*
X80010000Y-111760000D02*
X82550000Y-111760000D01*
X81280000Y-111760000D02*
X81280000Y-110490000D01*
X81280000Y-116840000D02*
X81280000Y-118110000D01*
X89408000Y-100076000D02*
X89408000Y-105156000D01*
X89408000Y-105156000D02*
X86868000Y-105156000D01*
X86868000Y-105156000D02*
X86868000Y-100076000D01*
X86868000Y-100076000D02*
X89408000Y-100076000D01*
X88138000Y-100076000D02*
X88138000Y-98806000D01*
X88138000Y-105156000D02*
X88138000Y-106426000D01*
X73406000Y-107950000D02*
X73406000Y-102870000D01*
X73406000Y-102870000D02*
X75946000Y-102870000D01*
X75946000Y-102870000D02*
X75946000Y-107950000D01*
X75946000Y-107950000D02*
X73406000Y-107950000D01*
X74676000Y-107950000D02*
X74676000Y-109220000D01*
X74676000Y-102870000D02*
X74676000Y-101600000D01*
X82550000Y-116840000D02*
X82550000Y-111760000D01*
X82550000Y-111760000D02*
X85090000Y-111760000D01*
X85090000Y-111760000D02*
X85090000Y-116840000D01*
X85090000Y-116840000D02*
X82550000Y-116840000D01*
X83820000Y-116840000D02*
X83820000Y-118110000D01*
X83820000Y-111760000D02*
X83820000Y-110490000D01*
X89286121Y-113878228D02*
X94288945Y-114760361D01*
X94288945Y-114760361D02*
X93847879Y-117261772D01*
X93847879Y-117261772D02*
X88845055Y-116379639D01*
X88845055Y-116379639D02*
X89286121Y-113878228D01*
X89065588Y-115128934D02*
X87814882Y-114908400D01*
X94068412Y-116011066D02*
X95319118Y-116231600D01*
X64389000Y-100711000D02*
X69469000Y-100711000D01*
X69469000Y-100711000D02*
X69469000Y-103251000D01*
X69469000Y-103251000D02*
X64389000Y-103251000D01*
X64389000Y-103251000D02*
X64389000Y-100711000D01*
X64389000Y-101981000D02*
X63119000Y-101981000D01*
X69469000Y-101981000D02*
X70739000Y-101981000D01*
X64262000Y-96774000D02*
X64262000Y-91694000D01*
X64262000Y-91694000D02*
X66802000Y-91694000D01*
X66802000Y-91694000D02*
X66802000Y-96774000D01*
X66802000Y-96774000D02*
X64262000Y-96774000D01*
X65532000Y-96774000D02*
X65532000Y-98044000D01*
X65532000Y-91694000D02*
X65532000Y-90424000D01*
X64262000Y-91694000D02*
X64262000Y-96774000D01*
X64262000Y-96774000D02*
X61722000Y-96774000D01*
X61722000Y-96774000D02*
X61722000Y-91694000D01*
X61722000Y-91694000D02*
X64262000Y-91694000D01*
X62992000Y-91694000D02*
X62992000Y-90424000D01*
X62992000Y-96774000D02*
X62992000Y-98044000D01*
X61720000Y-66670000D02*
X57660000Y-66670000D01*
X59690000Y-66670000D02*
X59690000Y-67950000D01*
X57660000Y-66670000D02*
X57660000Y-67950000D01*
X57660000Y-67950000D02*
X61720000Y-67950000D01*
X61720000Y-67950000D02*
X61720000Y-66670000D01*
X61720000Y-69210000D02*
X57660000Y-69210000D01*
X59690000Y-69210000D02*
X59690000Y-70490000D01*
X57660000Y-69210000D02*
X57660000Y-70490000D01*
X57660000Y-70490000D02*
X61720000Y-70490000D01*
X61720000Y-70490000D02*
X61720000Y-69210000D01*
X61720000Y-71750000D02*
X57660000Y-71750000D01*
X59690000Y-71750000D02*
X59690000Y-73030000D01*
X57660000Y-71750000D02*
X57660000Y-73030000D01*
X57660000Y-73030000D02*
X61720000Y-73030000D01*
X61720000Y-73030000D02*
X61720000Y-71750000D01*
X61720000Y-74290000D02*
X57660000Y-74290000D01*
X59690000Y-74290000D02*
X59690000Y-75570000D01*
X57660000Y-74290000D02*
X57660000Y-75570000D01*
X57660000Y-75570000D02*
X61720000Y-75570000D01*
X61720000Y-75570000D02*
X61720000Y-74290000D01*
X61720000Y-76830000D02*
X57660000Y-76830000D01*
X59690000Y-76830000D02*
X59690000Y-78110000D01*
X57660000Y-76830000D02*
X57660000Y-78110000D01*
X57660000Y-78110000D02*
X61720000Y-78110000D01*
X61720000Y-78110000D02*
X61720000Y-76830000D01*
X61720000Y-79370000D02*
X57660000Y-79370000D01*
X59690000Y-79370000D02*
X59690000Y-80650000D01*
X57660000Y-79370000D02*
X57660000Y-80650000D01*
X57660000Y-80650000D02*
X61720000Y-80650000D01*
X61720000Y-80650000D02*
X61720000Y-79370000D01*
X61720000Y-81910000D02*
X57660000Y-81910000D01*
X59690000Y-81910000D02*
X59690000Y-83190000D01*
X57660000Y-81910000D02*
X57660000Y-83190000D01*
X57660000Y-83190000D02*
X61720000Y-83190000D01*
X61720000Y-83190000D02*
X61720000Y-81910000D01*
X61720000Y-84450000D02*
X57660000Y-84450000D01*
X59690000Y-84450000D02*
X59690000Y-85730000D01*
X57660000Y-84450000D02*
X57660000Y-85730000D01*
X57660000Y-85730000D02*
X61720000Y-85730000D01*
X61720000Y-85730000D02*
X61720000Y-84450000D01*
X54670000Y-64830000D02*
X64710000Y-64830000D01*
X64710000Y-64830000D02*
X64710000Y-87570000D01*
X64710000Y-87570000D02*
X54670000Y-87570000D01*
X54670000Y-87570000D02*
X54670000Y-67310000D01*
D12*
X66040000Y-45720000D02*
G75*
G03X66040000Y-45720000I-7620000J0D01*
G01*
X159258000Y-109474000D02*
X209042000Y-109474000D01*
X209042000Y-109474000D02*
X209042000Y-50546000D01*
X209042000Y-50546000D02*
X159258000Y-50546000D01*
X159258000Y-50546000D02*
X159258000Y-109474000D01*
D11*
X78605000Y-83575000D02*
X78605000Y-82305000D01*
X71255000Y-83575000D02*
X71255000Y-82305000D01*
X71255000Y-45965000D02*
X71255000Y-47235000D01*
X78605000Y-45965000D02*
X78605000Y-47235000D01*
X78605000Y-83575000D02*
X71255000Y-83575000D01*
X78605000Y-45965000D02*
X71255000Y-45965000D01*
X78605000Y-82305000D02*
X79540000Y-82305000D01*
X77605000Y-90415000D02*
X77605000Y-91685000D01*
X84955000Y-90415000D02*
X84955000Y-91685000D01*
X84955000Y-102625000D02*
X84955000Y-101355000D01*
X77605000Y-102625000D02*
X77605000Y-101355000D01*
X77605000Y-90415000D02*
X84955000Y-90415000D01*
X77605000Y-102625000D02*
X84955000Y-102625000D01*
X77605000Y-91685000D02*
X76670000Y-91685000D01*
X82685000Y-60570000D02*
X82685000Y-61840000D01*
X90035000Y-60570000D02*
X90035000Y-61840000D01*
X90035000Y-72780000D02*
X90035000Y-71510000D01*
X82685000Y-72780000D02*
X82685000Y-71510000D01*
X82685000Y-60570000D02*
X90035000Y-60570000D01*
X82685000Y-72780000D02*
X90035000Y-72780000D01*
X82685000Y-61840000D02*
X81750000Y-61840000D01*
X90531990Y-93627695D02*
G75*
G03X91235000Y-93140000I-996990J2187695D01*
G01*
X90531990Y-89252305D02*
G75*
G02X91235000Y-89740000I-996990J-2187695D01*
G01*
X91235000Y-93140000D02*
X91235000Y-89740000D01*
X88541873Y-93624879D02*
G75*
G02X87135000Y-91440000I993127J2184879D01*
G01*
X88541873Y-89255121D02*
G75*
G03X87135000Y-91440000I993127J-2184879D01*
G01*
X66290000Y-55860000D02*
X63290000Y-55860000D01*
X63290000Y-53360000D02*
X66290000Y-53360000D01*
X122200000Y-102875000D02*
X157200000Y-102875000D01*
X122201000Y-102735000D02*
X157199000Y-102735000D01*
X122204000Y-102595000D02*
X157196000Y-102595000D01*
X122207000Y-102455000D02*
X157193000Y-102455000D01*
X122212000Y-102315000D02*
X157188000Y-102315000D01*
X122217000Y-102175000D02*
X157183000Y-102175000D01*
X122224000Y-102035000D02*
X157176000Y-102035000D01*
X122232000Y-101895000D02*
X157168000Y-101895000D01*
X122241000Y-101755000D02*
X157159000Y-101755000D01*
X122251000Y-101615000D02*
X157149000Y-101615000D01*
X122262000Y-101475000D02*
X157138000Y-101475000D01*
X122275000Y-101335000D02*
X157125000Y-101335000D01*
X122288000Y-101195000D02*
X157112000Y-101195000D01*
X122303000Y-101055000D02*
X157097000Y-101055000D01*
X122319000Y-100915000D02*
X157081000Y-100915000D01*
X122336000Y-100775000D02*
X157064000Y-100775000D01*
X122354000Y-100635000D02*
X157046000Y-100635000D01*
X122373000Y-100495000D02*
X157027000Y-100495000D01*
X122393000Y-100355000D02*
X157007000Y-100355000D01*
X122415000Y-100215000D02*
X156985000Y-100215000D01*
X122438000Y-100075000D02*
X156962000Y-100075000D01*
X122462000Y-99935000D02*
X156938000Y-99935000D01*
X122487000Y-99795000D02*
X156913000Y-99795000D01*
X122513000Y-99655000D02*
X156887000Y-99655000D01*
X122540000Y-99515000D02*
X156860000Y-99515000D01*
X122569000Y-99375000D02*
X156831000Y-99375000D01*
X122599000Y-99235000D02*
X139503000Y-99235000D01*
X139897000Y-99235000D02*
X156801000Y-99235000D01*
X122630000Y-99095000D02*
X139084000Y-99095000D01*
X140316000Y-99095000D02*
X156770000Y-99095000D01*
X122662000Y-98955000D02*
X138875000Y-98955000D01*
X140525000Y-98955000D02*
X156738000Y-98955000D01*
X122696000Y-98815000D02*
X138730000Y-98815000D01*
X140670000Y-98815000D02*
X156704000Y-98815000D01*
X122730000Y-98675000D02*
X138621000Y-98675000D01*
X140779000Y-98675000D02*
X156670000Y-98675000D01*
X122766000Y-98535000D02*
X138539000Y-98535000D01*
X140861000Y-98535000D02*
X156634000Y-98535000D01*
X122803000Y-98395000D02*
X138479000Y-98395000D01*
X140921000Y-98395000D02*
X156597000Y-98395000D01*
X122842000Y-98255000D02*
X138436000Y-98255000D01*
X140964000Y-98255000D02*
X156558000Y-98255000D01*
X122881000Y-98115000D02*
X138411000Y-98115000D01*
X140989000Y-98115000D02*
X156519000Y-98115000D01*
X122922000Y-97975000D02*
X138400000Y-97975000D01*
X141000000Y-97975000D02*
X156478000Y-97975000D01*
X122964000Y-97835000D02*
X138405000Y-97835000D01*
X140995000Y-97835000D02*
X156436000Y-97835000D01*
X123008000Y-97695000D02*
X138425000Y-97695000D01*
X140975000Y-97695000D02*
X156392000Y-97695000D01*
X123052000Y-97555000D02*
X138461000Y-97555000D01*
X140939000Y-97555000D02*
X156348000Y-97555000D01*
X123098000Y-97415000D02*
X138515000Y-97415000D01*
X140885000Y-97415000D02*
X156302000Y-97415000D01*
X123146000Y-97275000D02*
X138589000Y-97275000D01*
X140811000Y-97275000D02*
X156254000Y-97275000D01*
X123194000Y-97135000D02*
X138687000Y-97135000D01*
X140713000Y-97135000D02*
X156206000Y-97135000D01*
X123244000Y-96995000D02*
X138818000Y-96995000D01*
X140582000Y-96995000D02*
X156156000Y-96995000D01*
X123296000Y-96855000D02*
X138999000Y-96855000D01*
X140401000Y-96855000D02*
X156104000Y-96855000D01*
X123348000Y-96715000D02*
X139294000Y-96715000D01*
X140106000Y-96715000D02*
X156052000Y-96715000D01*
X123402000Y-96575000D02*
X155998000Y-96575000D01*
X123458000Y-96435000D02*
X155942000Y-96435000D01*
X123515000Y-96295000D02*
X155885000Y-96295000D01*
X123573000Y-96155000D02*
X155827000Y-96155000D01*
X123633000Y-96015000D02*
X155767000Y-96015000D01*
X123694000Y-95875000D02*
X155706000Y-95875000D01*
X123757000Y-95735000D02*
X155643000Y-95735000D01*
X123821000Y-95595000D02*
X155579000Y-95595000D01*
X123886000Y-95455000D02*
X155514000Y-95455000D01*
X123953000Y-95315000D02*
X155447000Y-95315000D01*
X124022000Y-95175000D02*
X155378000Y-95175000D01*
X124092000Y-95035000D02*
X155308000Y-95035000D01*
X124164000Y-94895000D02*
X155236000Y-94895000D01*
X124237000Y-94755000D02*
X155163000Y-94755000D01*
X124312000Y-94615000D02*
X155088000Y-94615000D01*
X124389000Y-94475000D02*
X155011000Y-94475000D01*
X124467000Y-94335000D02*
X154933000Y-94335000D01*
X124547000Y-94195000D02*
X154853000Y-94195000D01*
X124629000Y-94055000D02*
X154771000Y-94055000D01*
X124713000Y-93915000D02*
X154687000Y-93915000D01*
X124798000Y-93775000D02*
X154602000Y-93775000D01*
X124885000Y-93635000D02*
X154515000Y-93635000D01*
X124974000Y-93495000D02*
X154426000Y-93495000D01*
X125065000Y-93355000D02*
X154335000Y-93355000D01*
X125158000Y-93215000D02*
X154242000Y-93215000D01*
X125252000Y-93075000D02*
X154148000Y-93075000D01*
X125349000Y-92935000D02*
X154051000Y-92935000D01*
X125448000Y-92795000D02*
X153952000Y-92795000D01*
X125549000Y-92655000D02*
X153851000Y-92655000D01*
X125651000Y-92515000D02*
X153749000Y-92515000D01*
X125757000Y-92375000D02*
X153643000Y-92375000D01*
X125864000Y-92235000D02*
X153536000Y-92235000D01*
X125973000Y-92095000D02*
X153427000Y-92095000D01*
X126085000Y-91955000D02*
X153315000Y-91955000D01*
X126200000Y-91815000D02*
X153200000Y-91815000D01*
X126316000Y-91675000D02*
X153084000Y-91675000D01*
X126435000Y-91535000D02*
X152965000Y-91535000D01*
X126557000Y-91395000D02*
X152843000Y-91395000D01*
X126682000Y-91255000D02*
X152718000Y-91255000D01*
X126809000Y-91115000D02*
X152591000Y-91115000D01*
X126939000Y-90975000D02*
X152461000Y-90975000D01*
X127072000Y-90835000D02*
X152328000Y-90835000D01*
X127207000Y-90695000D02*
X152193000Y-90695000D01*
X127346000Y-90555000D02*
X152054000Y-90555000D01*
X127488000Y-90415000D02*
X151912000Y-90415000D01*
X127634000Y-90275000D02*
X151766000Y-90275000D01*
X127783000Y-90135000D02*
X151617000Y-90135000D01*
X127935000Y-89995000D02*
X151465000Y-89995000D01*
X128091000Y-89855000D02*
X151309000Y-89855000D01*
X128251000Y-89715000D02*
X151149000Y-89715000D01*
X128415000Y-89575000D02*
X150985000Y-89575000D01*
X128583000Y-89435000D02*
X150817000Y-89435000D01*
X128755000Y-89295000D02*
X150645000Y-89295000D01*
X128932000Y-89155000D02*
X150468000Y-89155000D01*
X129114000Y-89015000D02*
X150286000Y-89015000D01*
X129301000Y-88875000D02*
X150099000Y-88875000D01*
X129493000Y-88735000D02*
X149907000Y-88735000D01*
X129691000Y-88595000D02*
X149709000Y-88595000D01*
X129895000Y-88455000D02*
X149505000Y-88455000D01*
X130105000Y-88315000D02*
X149295000Y-88315000D01*
X130322000Y-88175000D02*
X149078000Y-88175000D01*
X130546000Y-88035000D02*
X148854000Y-88035000D01*
X130778000Y-87895000D02*
X148622000Y-87895000D01*
X131019000Y-87755000D02*
X148381000Y-87755000D01*
X131269000Y-87615000D02*
X148131000Y-87615000D01*
X131528000Y-87475000D02*
X147872000Y-87475000D01*
X131799000Y-87335000D02*
X147601000Y-87335000D01*
X132082000Y-87195000D02*
X147318000Y-87195000D01*
X132379000Y-87055000D02*
X147021000Y-87055000D01*
X132691000Y-86915000D02*
X146709000Y-86915000D01*
X133020000Y-86775000D02*
X146380000Y-86775000D01*
X133370000Y-86635000D02*
X146030000Y-86635000D01*
X133743000Y-86495000D02*
X145657000Y-86495000D01*
X134145000Y-86355000D02*
X145255000Y-86355000D01*
X134582000Y-86215000D02*
X144818000Y-86215000D01*
X135065000Y-86075000D02*
X144335000Y-86075000D01*
X135609000Y-85935000D02*
X143791000Y-85935000D01*
X136242000Y-85795000D02*
X143158000Y-85795000D01*
X137029000Y-85655000D02*
X142371000Y-85655000D01*
X138193000Y-85515000D02*
X141207000Y-85515000D01*
X141000000Y-97950000D02*
G75*
G03X141000000Y-97950000I-1300000J0D01*
G01*
X157237500Y-102950000D02*
G75*
G03X157237500Y-102950000I-17537500J0D01*
G01*
X186555000Y-121630000D02*
X180555000Y-121630000D01*
X180555000Y-117130000D02*
X186555000Y-117130000D01*
X153055000Y-120265000D02*
X153055000Y-117265000D01*
X155555000Y-117265000D02*
X155555000Y-120265000D01*
X86241000Y-117130000D02*
X92241000Y-117130000D01*
X92241000Y-121630000D02*
X86241000Y-121630000D01*
X68616000Y-109847000D02*
X68616000Y-103847000D01*
X73116000Y-103847000D02*
X73116000Y-109847000D01*
X69941000Y-85479000D02*
X69941000Y-91479000D01*
X65441000Y-91479000D02*
X65441000Y-85479000D01*
X68080000Y-92873000D02*
X74080000Y-92873000D01*
X74080000Y-97373000D02*
X68080000Y-97373000D01*
D12*
X210820000Y-47218600D02*
X222885000Y-47218600D01*
X222885000Y-47218600D02*
X222885000Y-43408600D01*
D11*
X149393219Y-110490000D02*
G75*
G03X149393219Y-110490000I-803219J0D01*
G01*
X149393219Y-103505000D02*
G75*
G03X149393219Y-103505000I-803219J0D01*
G01*
X182413219Y-106680000D02*
G75*
G03X182413219Y-106680000I-803219J0D01*
G01*
X179238219Y-106045000D02*
G75*
G03X179238219Y-106045000I-803219J0D01*
G01*
X71288219Y-84201000D02*
G75*
G03X71288219Y-84201000I-803219J0D01*
G01*
X72939219Y-84201000D02*
G75*
G03X72939219Y-84201000I-803219J0D01*
G01*
X74590219Y-84201000D02*
G75*
G03X74590219Y-84201000I-803219J0D01*
G01*
X68367219Y-106680000D02*
G75*
G03X68367219Y-106680000I-803219J0D01*
G01*
X89449219Y-82296000D02*
G75*
G03X89449219Y-82296000I-803219J0D01*
G01*
X93386219Y-70866000D02*
G75*
G03X93386219Y-70866000I-803219J0D01*
G01*
X101006219Y-75184000D02*
G75*
G03X101006219Y-75184000I-803219J0D01*
G01*
X66843219Y-50546000D02*
G75*
G03X66843219Y-50546000I-803219J0D01*
G01*
X68367219Y-82804000D02*
G75*
G03X68367219Y-82804000I-803219J0D01*
G01*
X166330381Y-116966905D02*
X167139905Y-116966905D01*
X167235143Y-116919286D01*
X167282762Y-116871667D01*
X167330381Y-116776429D01*
X167330381Y-116585952D01*
X167282762Y-116490714D01*
X167235143Y-116443095D01*
X167139905Y-116395476D01*
X166330381Y-116395476D01*
X166330381Y-115443095D02*
X166330381Y-115919286D01*
X166806571Y-115966905D01*
X166758952Y-115919286D01*
X166711333Y-115824048D01*
X166711333Y-115585952D01*
X166758952Y-115490714D01*
X166806571Y-115443095D01*
X166901810Y-115395476D01*
X167139905Y-115395476D01*
X167235143Y-115443095D01*
X167282762Y-115490714D01*
X167330381Y-115585952D01*
X167330381Y-115824048D01*
X167282762Y-115919286D01*
X167235143Y-115966905D01*
X100654345Y-75585921D02*
X100075284Y-75636501D01*
X100368630Y-76080793D02*
X99502605Y-75580793D01*
X99693082Y-75250878D01*
X99781940Y-75192209D01*
X99846989Y-75174779D01*
X99953277Y-75181159D01*
X100076994Y-75252587D01*
X100135663Y-75341446D01*
X100153093Y-75406495D01*
X100146713Y-75512783D01*
X99956237Y-75842698D01*
X99954986Y-74797246D02*
X100264510Y-74261135D01*
X100427757Y-74740287D01*
X100499186Y-74616568D01*
X100588044Y-74557899D01*
X100653093Y-74540469D01*
X100759382Y-74546849D01*
X100965578Y-74665897D01*
X101024247Y-74754755D01*
X101041677Y-74819804D01*
X101035297Y-74926092D01*
X100892440Y-75173528D01*
X100803582Y-75232197D01*
X100738533Y-75249627D01*
X100693082Y-73518827D02*
X100597843Y-73683785D01*
X100591463Y-73790073D01*
X100608893Y-73855122D01*
X100684992Y-74009029D01*
X100826139Y-74145506D01*
X101156054Y-74335983D01*
X101262342Y-74342362D01*
X101327391Y-74324933D01*
X101416249Y-74266264D01*
X101511488Y-74101306D01*
X101517868Y-73995018D01*
X101500438Y-73929969D01*
X101441769Y-73841111D01*
X101235573Y-73722063D01*
X101129284Y-73715683D01*
X101064235Y-73733113D01*
X100975377Y-73791782D01*
X100880138Y-73956740D01*
X100873758Y-74063028D01*
X100891188Y-74128076D01*
X100949858Y-74216935D01*
X109938041Y-70208283D02*
X109895693Y-70110587D01*
X109883954Y-69976412D01*
X109866346Y-69775151D01*
X109823998Y-69677454D01*
X109751041Y-69616236D01*
X109634475Y-69829236D02*
X109592127Y-69731540D01*
X109580389Y-69597366D01*
X109666346Y-69420844D01*
X109880609Y-69165495D01*
X110039523Y-69050191D01*
X110173697Y-69038452D01*
X110277263Y-69063192D01*
X110423177Y-69185628D01*
X110465524Y-69283324D01*
X110477263Y-69417499D01*
X110391306Y-69594021D01*
X110177043Y-69849369D01*
X110018129Y-69964674D01*
X109883954Y-69976412D01*
X109780389Y-69951673D01*
X109634475Y-69829236D01*
X111047915Y-70144982D02*
X110619390Y-70655678D01*
X111110394Y-69700110D02*
X110468869Y-70094241D01*
X110943087Y-70492157D01*
X114712762Y-74207619D02*
X114617524Y-74160000D01*
X114522286Y-74064762D01*
X114379429Y-73921905D01*
X114284190Y-73874286D01*
X114188952Y-73874286D01*
X114236571Y-74112381D02*
X114141333Y-74064762D01*
X114046095Y-73969524D01*
X113998476Y-73779048D01*
X113998476Y-73445714D01*
X114046095Y-73255238D01*
X114141333Y-73160000D01*
X114236571Y-73112381D01*
X114427048Y-73112381D01*
X114522286Y-73160000D01*
X114617524Y-73255238D01*
X114665143Y-73445714D01*
X114665143Y-73779048D01*
X114617524Y-73969524D01*
X114522286Y-74064762D01*
X114427048Y-74112381D01*
X114236571Y-74112381D01*
X114998476Y-73112381D02*
X115665143Y-73112381D01*
X115236571Y-74112381D01*
X93249762Y-85383619D02*
X93154524Y-85336000D01*
X93059286Y-85240762D01*
X92916429Y-85097905D01*
X92821190Y-85050286D01*
X92725952Y-85050286D01*
X92773571Y-85288381D02*
X92678333Y-85240762D01*
X92583095Y-85145524D01*
X92535476Y-84955048D01*
X92535476Y-84621714D01*
X92583095Y-84431238D01*
X92678333Y-84336000D01*
X92773571Y-84288381D01*
X92964048Y-84288381D01*
X93059286Y-84336000D01*
X93154524Y-84431238D01*
X93202143Y-84621714D01*
X93202143Y-84955048D01*
X93154524Y-85145524D01*
X93059286Y-85240762D01*
X92964048Y-85288381D01*
X92773571Y-85288381D01*
X93535476Y-84288381D02*
X94154524Y-84288381D01*
X93821190Y-84669333D01*
X93964048Y-84669333D01*
X94059286Y-84716952D01*
X94106905Y-84764571D01*
X94154524Y-84859810D01*
X94154524Y-85097905D01*
X94106905Y-85193143D01*
X94059286Y-85240762D01*
X93964048Y-85288381D01*
X93678333Y-85288381D01*
X93583095Y-85240762D01*
X93535476Y-85193143D01*
X208097381Y-116308095D02*
X207097381Y-116308095D01*
X207097381Y-116070000D01*
X207145000Y-115927142D01*
X207240238Y-115831904D01*
X207335476Y-115784285D01*
X207525952Y-115736666D01*
X207668810Y-115736666D01*
X207859286Y-115784285D01*
X207954524Y-115831904D01*
X208049762Y-115927142D01*
X208097381Y-116070000D01*
X208097381Y-116308095D01*
X207192619Y-115355714D02*
X207145000Y-115308095D01*
X207097381Y-115212857D01*
X207097381Y-114974761D01*
X207145000Y-114879523D01*
X207192619Y-114831904D01*
X207287857Y-114784285D01*
X207383095Y-114784285D01*
X207525952Y-114831904D01*
X208097381Y-115403333D01*
X208097381Y-114784285D01*
X95702381Y-105513095D02*
X94702381Y-105513095D01*
X94702381Y-105275000D01*
X94750000Y-105132142D01*
X94845238Y-105036904D01*
X94940476Y-104989285D01*
X95130952Y-104941666D01*
X95273810Y-104941666D01*
X95464286Y-104989285D01*
X95559524Y-105036904D01*
X95654762Y-105132142D01*
X95702381Y-105275000D01*
X95702381Y-105513095D01*
X94702381Y-104608333D02*
X94702381Y-103989285D01*
X95083333Y-104322619D01*
X95083333Y-104179761D01*
X95130952Y-104084523D01*
X95178571Y-104036904D01*
X95273810Y-103989285D01*
X95511905Y-103989285D01*
X95607143Y-104036904D01*
X95654762Y-104084523D01*
X95702381Y-104179761D01*
X95702381Y-104465476D01*
X95654762Y-104560714D01*
X95607143Y-104608333D01*
X93543381Y-95099095D02*
X92543381Y-95099095D01*
X92543381Y-94861000D01*
X92591000Y-94718142D01*
X92686238Y-94622904D01*
X92781476Y-94575285D01*
X92971952Y-94527666D01*
X93114810Y-94527666D01*
X93305286Y-94575285D01*
X93400524Y-94622904D01*
X93495762Y-94718142D01*
X93543381Y-94861000D01*
X93543381Y-95099095D01*
X92876714Y-93670523D02*
X93543381Y-93670523D01*
X92495762Y-93908619D02*
X93210048Y-94146714D01*
X93210048Y-93527666D01*
X102687381Y-105513095D02*
X101687381Y-105513095D01*
X101687381Y-105275000D01*
X101735000Y-105132142D01*
X101830238Y-105036904D01*
X101925476Y-104989285D01*
X102115952Y-104941666D01*
X102258810Y-104941666D01*
X102449286Y-104989285D01*
X102544524Y-105036904D01*
X102639762Y-105132142D01*
X102687381Y-105275000D01*
X102687381Y-105513095D01*
X101687381Y-104036904D02*
X101687381Y-104513095D01*
X102163571Y-104560714D01*
X102115952Y-104513095D01*
X102068333Y-104417857D01*
X102068333Y-104179761D01*
X102115952Y-104084523D01*
X102163571Y-104036904D01*
X102258810Y-103989285D01*
X102496905Y-103989285D01*
X102592143Y-104036904D01*
X102639762Y-104084523D01*
X102687381Y-104179761D01*
X102687381Y-104417857D01*
X102639762Y-104513095D01*
X102592143Y-104560714D01*
X102179381Y-93829095D02*
X101179381Y-93829095D01*
X101179381Y-93591000D01*
X101227000Y-93448142D01*
X101322238Y-93352904D01*
X101417476Y-93305285D01*
X101607952Y-93257666D01*
X101750810Y-93257666D01*
X101941286Y-93305285D01*
X102036524Y-93352904D01*
X102131762Y-93448142D01*
X102179381Y-93591000D01*
X102179381Y-93829095D01*
X101179381Y-92400523D02*
X101179381Y-92591000D01*
X101227000Y-92686238D01*
X101274619Y-92733857D01*
X101417476Y-92829095D01*
X101607952Y-92876714D01*
X101988905Y-92876714D01*
X102084143Y-92829095D01*
X102131762Y-92781476D01*
X102179381Y-92686238D01*
X102179381Y-92495761D01*
X102131762Y-92400523D01*
X102084143Y-92352904D01*
X101988905Y-92305285D01*
X101750810Y-92305285D01*
X101655571Y-92352904D01*
X101607952Y-92400523D01*
X101560333Y-92495761D01*
X101560333Y-92686238D01*
X101607952Y-92781476D01*
X101655571Y-92829095D01*
X101750810Y-92876714D01*
X109672381Y-105513095D02*
X108672381Y-105513095D01*
X108672381Y-105275000D01*
X108720000Y-105132142D01*
X108815238Y-105036904D01*
X108910476Y-104989285D01*
X109100952Y-104941666D01*
X109243810Y-104941666D01*
X109434286Y-104989285D01*
X109529524Y-105036904D01*
X109624762Y-105132142D01*
X109672381Y-105275000D01*
X109672381Y-105513095D01*
X108672381Y-104608333D02*
X108672381Y-103941666D01*
X109672381Y-104370238D01*
X110307381Y-92305095D02*
X109307381Y-92305095D01*
X109307381Y-92067000D01*
X109355000Y-91924142D01*
X109450238Y-91828904D01*
X109545476Y-91781285D01*
X109735952Y-91733666D01*
X109878810Y-91733666D01*
X110069286Y-91781285D01*
X110164524Y-91828904D01*
X110259762Y-91924142D01*
X110307381Y-92067000D01*
X110307381Y-92305095D01*
X109735952Y-91162238D02*
X109688333Y-91257476D01*
X109640714Y-91305095D01*
X109545476Y-91352714D01*
X109497857Y-91352714D01*
X109402619Y-91305095D01*
X109355000Y-91257476D01*
X109307381Y-91162238D01*
X109307381Y-90971761D01*
X109355000Y-90876523D01*
X109402619Y-90828904D01*
X109497857Y-90781285D01*
X109545476Y-90781285D01*
X109640714Y-90828904D01*
X109688333Y-90876523D01*
X109735952Y-90971761D01*
X109735952Y-91162238D01*
X109783571Y-91257476D01*
X109831190Y-91305095D01*
X109926429Y-91352714D01*
X110116905Y-91352714D01*
X110212143Y-91305095D01*
X110259762Y-91257476D01*
X110307381Y-91162238D01*
X110307381Y-90971761D01*
X110259762Y-90876523D01*
X110212143Y-90828904D01*
X110116905Y-90781285D01*
X109926429Y-90781285D01*
X109831190Y-90828904D01*
X109783571Y-90876523D01*
X109735952Y-90971761D01*
X118435381Y-105767095D02*
X117435381Y-105767095D01*
X117435381Y-105529000D01*
X117483000Y-105386142D01*
X117578238Y-105290904D01*
X117673476Y-105243285D01*
X117863952Y-105195666D01*
X118006810Y-105195666D01*
X118197286Y-105243285D01*
X118292524Y-105290904D01*
X118387762Y-105386142D01*
X118435381Y-105529000D01*
X118435381Y-105767095D01*
X118435381Y-104719476D02*
X118435381Y-104529000D01*
X118387762Y-104433761D01*
X118340143Y-104386142D01*
X118197286Y-104290904D01*
X118006810Y-104243285D01*
X117625857Y-104243285D01*
X117530619Y-104290904D01*
X117483000Y-104338523D01*
X117435381Y-104433761D01*
X117435381Y-104624238D01*
X117483000Y-104719476D01*
X117530619Y-104767095D01*
X117625857Y-104814714D01*
X117863952Y-104814714D01*
X117959190Y-104767095D01*
X118006810Y-104719476D01*
X118054429Y-104624238D01*
X118054429Y-104433761D01*
X118006810Y-104338523D01*
X117959190Y-104290904D01*
X117863952Y-104243285D01*
X117800381Y-91511286D02*
X116800381Y-91511286D01*
X116800381Y-91273191D01*
X116848000Y-91130333D01*
X116943238Y-91035095D01*
X117038476Y-90987476D01*
X117228952Y-90939857D01*
X117371810Y-90939857D01*
X117562286Y-90987476D01*
X117657524Y-91035095D01*
X117752762Y-91130333D01*
X117800381Y-91273191D01*
X117800381Y-91511286D01*
X117800381Y-89987476D02*
X117800381Y-90558905D01*
X117800381Y-90273191D02*
X116800381Y-90273191D01*
X116943238Y-90368429D01*
X117038476Y-90463667D01*
X117086095Y-90558905D01*
X116800381Y-89368429D02*
X116800381Y-89273190D01*
X116848000Y-89177952D01*
X116895619Y-89130333D01*
X116990857Y-89082714D01*
X117181333Y-89035095D01*
X117419429Y-89035095D01*
X117609905Y-89082714D01*
X117705143Y-89130333D01*
X117752762Y-89177952D01*
X117800381Y-89273190D01*
X117800381Y-89368429D01*
X117752762Y-89463667D01*
X117705143Y-89511286D01*
X117609905Y-89558905D01*
X117419429Y-89606524D01*
X117181333Y-89606524D01*
X116990857Y-89558905D01*
X116895619Y-89511286D01*
X116848000Y-89463667D01*
X116800381Y-89368429D01*
X218106667Y-46918571D02*
X217773333Y-46918571D01*
X217773333Y-47442381D02*
X217773333Y-46442381D01*
X218249524Y-46442381D01*
X219154286Y-47442381D02*
X218582857Y-47442381D01*
X218868571Y-47442381D02*
X218868571Y-46442381D01*
X218773333Y-46585238D01*
X218678095Y-46680476D01*
X218582857Y-46728095D01*
X141533571Y-79073333D02*
X141533571Y-79406667D01*
X142057381Y-79406667D02*
X141057381Y-79406667D01*
X141057381Y-78930476D01*
X141152619Y-78597143D02*
X141105000Y-78549524D01*
X141057381Y-78454286D01*
X141057381Y-78216190D01*
X141105000Y-78120952D01*
X141152619Y-78073333D01*
X141247857Y-78025714D01*
X141343095Y-78025714D01*
X141485952Y-78073333D01*
X142057381Y-78644762D01*
X142057381Y-78025714D01*
X65833667Y-111466381D02*
X65833667Y-112180667D01*
X65786047Y-112323524D01*
X65690809Y-112418762D01*
X65547952Y-112466381D01*
X65452714Y-112466381D01*
X66214619Y-111466381D02*
X66833667Y-111466381D01*
X66500333Y-111847333D01*
X66643191Y-111847333D01*
X66738429Y-111894952D01*
X66786048Y-111942571D01*
X66833667Y-112037810D01*
X66833667Y-112275905D01*
X66786048Y-112371143D01*
X66738429Y-112418762D01*
X66643191Y-112466381D01*
X66357476Y-112466381D01*
X66262238Y-112418762D01*
X66214619Y-112371143D01*
X218336905Y-97607381D02*
X218336905Y-96607381D01*
X218908334Y-97607381D02*
X218479762Y-97035952D01*
X218908334Y-96607381D02*
X218336905Y-97178810D01*
X219860715Y-97607381D02*
X219289286Y-97607381D01*
X219575000Y-97607381D02*
X219575000Y-96607381D01*
X219479762Y-96750238D01*
X219384524Y-96845476D01*
X219289286Y-96893095D01*
X58892381Y-55983095D02*
X57892381Y-55983095D01*
X57892381Y-55602142D01*
X57940000Y-55506904D01*
X57987619Y-55459285D01*
X58082857Y-55411666D01*
X58225714Y-55411666D01*
X58320952Y-55459285D01*
X58368571Y-55506904D01*
X58416190Y-55602142D01*
X58416190Y-55983095D01*
X58892381Y-54459285D02*
X58892381Y-55030714D01*
X58892381Y-54745000D02*
X57892381Y-54745000D01*
X58035238Y-54840238D01*
X58130476Y-54935476D01*
X58178095Y-55030714D01*
X65301905Y-67782381D02*
X65301905Y-66782381D01*
X65682858Y-66782381D01*
X65778096Y-66830000D01*
X65825715Y-66877619D01*
X65873334Y-66972857D01*
X65873334Y-67115714D01*
X65825715Y-67210952D01*
X65778096Y-67258571D01*
X65682858Y-67306190D01*
X65301905Y-67306190D01*
X66254286Y-66877619D02*
X66301905Y-66830000D01*
X66397143Y-66782381D01*
X66635239Y-66782381D01*
X66730477Y-66830000D01*
X66778096Y-66877619D01*
X66825715Y-66972857D01*
X66825715Y-67068095D01*
X66778096Y-67210952D01*
X66206667Y-67782381D01*
X66825715Y-67782381D01*
X136929905Y-86451381D02*
X136929905Y-85451381D01*
X137310858Y-85451381D01*
X137406096Y-85499000D01*
X137453715Y-85546619D01*
X137501334Y-85641857D01*
X137501334Y-85784714D01*
X137453715Y-85879952D01*
X137406096Y-85927571D01*
X137310858Y-85975190D01*
X136929905Y-85975190D01*
X137834667Y-85451381D02*
X138453715Y-85451381D01*
X138120381Y-85832333D01*
X138263239Y-85832333D01*
X138358477Y-85879952D01*
X138406096Y-85927571D01*
X138453715Y-86022810D01*
X138453715Y-86260905D01*
X138406096Y-86356143D01*
X138358477Y-86403762D01*
X138263239Y-86451381D01*
X137977524Y-86451381D01*
X137882286Y-86403762D01*
X137834667Y-86356143D01*
X94892905Y-77775381D02*
X94892905Y-76775381D01*
X95273858Y-76775381D01*
X95369096Y-76823000D01*
X95416715Y-76870619D01*
X95464334Y-76965857D01*
X95464334Y-77108714D01*
X95416715Y-77203952D01*
X95369096Y-77251571D01*
X95273858Y-77299190D01*
X94892905Y-77299190D01*
X96369096Y-76775381D02*
X95892905Y-76775381D01*
X95845286Y-77251571D01*
X95892905Y-77203952D01*
X95988143Y-77156333D01*
X96226239Y-77156333D01*
X96321477Y-77203952D01*
X96369096Y-77251571D01*
X96416715Y-77346810D01*
X96416715Y-77584905D01*
X96369096Y-77680143D01*
X96321477Y-77727762D01*
X96226239Y-77775381D01*
X95988143Y-77775381D01*
X95892905Y-77727762D01*
X95845286Y-77680143D01*
X198175714Y-117292381D02*
X198175714Y-116292381D01*
X198556667Y-116292381D01*
X198651905Y-116340000D01*
X198699524Y-116387619D01*
X198747143Y-116482857D01*
X198747143Y-116625714D01*
X198699524Y-116720952D01*
X198651905Y-116768571D01*
X198556667Y-116816190D01*
X198175714Y-116816190D01*
X199699524Y-117292381D02*
X199128095Y-117292381D01*
X199413809Y-117292381D02*
X199413809Y-116292381D01*
X199318571Y-116435238D01*
X199223333Y-116530476D01*
X199128095Y-116578095D01*
X200080476Y-116387619D02*
X200128095Y-116340000D01*
X200223333Y-116292381D01*
X200461429Y-116292381D01*
X200556667Y-116340000D01*
X200604286Y-116387619D01*
X200651905Y-116482857D01*
X200651905Y-116578095D01*
X200604286Y-116720952D01*
X200032857Y-117292381D01*
X200651905Y-117292381D01*
X188650714Y-117292381D02*
X188650714Y-116292381D01*
X189031667Y-116292381D01*
X189126905Y-116340000D01*
X189174524Y-116387619D01*
X189222143Y-116482857D01*
X189222143Y-116625714D01*
X189174524Y-116720952D01*
X189126905Y-116768571D01*
X189031667Y-116816190D01*
X188650714Y-116816190D01*
X189603095Y-116387619D02*
X189650714Y-116340000D01*
X189745952Y-116292381D01*
X189984048Y-116292381D01*
X190079286Y-116340000D01*
X190126905Y-116387619D01*
X190174524Y-116482857D01*
X190174524Y-116578095D01*
X190126905Y-116720952D01*
X189555476Y-117292381D01*
X190174524Y-117292381D01*
X191031667Y-116625714D02*
X191031667Y-117292381D01*
X190793571Y-116244762D02*
X190555476Y-116959048D01*
X191174524Y-116959048D01*
X74207619Y-41370238D02*
X74160000Y-41465476D01*
X74064762Y-41560714D01*
X73921905Y-41703571D01*
X73874286Y-41798810D01*
X73874286Y-41894048D01*
X74112381Y-41846429D02*
X74064762Y-41941667D01*
X73969524Y-42036905D01*
X73779048Y-42084524D01*
X73445714Y-42084524D01*
X73255238Y-42036905D01*
X73160000Y-41941667D01*
X73112381Y-41846429D01*
X73112381Y-41655952D01*
X73160000Y-41560714D01*
X73255238Y-41465476D01*
X73445714Y-41417857D01*
X73779048Y-41417857D01*
X73969524Y-41465476D01*
X74064762Y-41560714D01*
X74112381Y-41655952D01*
X74112381Y-41846429D01*
X74112381Y-40465476D02*
X74112381Y-41036905D01*
X74112381Y-40751191D02*
X73112381Y-40751191D01*
X73255238Y-40846429D01*
X73350476Y-40941667D01*
X73398095Y-41036905D01*
X208747619Y-106140238D02*
X208700000Y-106235476D01*
X208604762Y-106330714D01*
X208461905Y-106473571D01*
X208414286Y-106568810D01*
X208414286Y-106664048D01*
X208652381Y-106616429D02*
X208604762Y-106711667D01*
X208509524Y-106806905D01*
X208319048Y-106854524D01*
X207985714Y-106854524D01*
X207795238Y-106806905D01*
X207700000Y-106711667D01*
X207652381Y-106616429D01*
X207652381Y-106425952D01*
X207700000Y-106330714D01*
X207795238Y-106235476D01*
X207985714Y-106187857D01*
X208319048Y-106187857D01*
X208509524Y-106235476D01*
X208604762Y-106330714D01*
X208652381Y-106425952D01*
X208652381Y-106616429D01*
X207747619Y-105806905D02*
X207700000Y-105759286D01*
X207652381Y-105664048D01*
X207652381Y-105425952D01*
X207700000Y-105330714D01*
X207747619Y-105283095D01*
X207842857Y-105235476D01*
X207938095Y-105235476D01*
X208080952Y-105283095D01*
X208652381Y-105854524D01*
X208652381Y-105235476D01*
X90709762Y-100322619D02*
X90614524Y-100275000D01*
X90519286Y-100179762D01*
X90376429Y-100036905D01*
X90281190Y-99989286D01*
X90185952Y-99989286D01*
X90233571Y-100227381D02*
X90138333Y-100179762D01*
X90043095Y-100084524D01*
X89995476Y-99894048D01*
X89995476Y-99560714D01*
X90043095Y-99370238D01*
X90138333Y-99275000D01*
X90233571Y-99227381D01*
X90424048Y-99227381D01*
X90519286Y-99275000D01*
X90614524Y-99370238D01*
X90662143Y-99560714D01*
X90662143Y-99894048D01*
X90614524Y-100084524D01*
X90519286Y-100179762D01*
X90424048Y-100227381D01*
X90233571Y-100227381D01*
X91566905Y-99227381D02*
X91090714Y-99227381D01*
X91043095Y-99703571D01*
X91090714Y-99655952D01*
X91185952Y-99608333D01*
X91424048Y-99608333D01*
X91519286Y-99655952D01*
X91566905Y-99703571D01*
X91614524Y-99798810D01*
X91614524Y-100036905D01*
X91566905Y-100132143D01*
X91519286Y-100179762D01*
X91424048Y-100227381D01*
X91185952Y-100227381D01*
X91090714Y-100179762D01*
X91043095Y-100132143D01*
X98329762Y-90082619D02*
X98234524Y-90035000D01*
X98139286Y-89939762D01*
X97996429Y-89796905D01*
X97901190Y-89749286D01*
X97805952Y-89749286D01*
X97853571Y-89987381D02*
X97758333Y-89939762D01*
X97663095Y-89844524D01*
X97615476Y-89654048D01*
X97615476Y-89320714D01*
X97663095Y-89130238D01*
X97758333Y-89035000D01*
X97853571Y-88987381D01*
X98044048Y-88987381D01*
X98139286Y-89035000D01*
X98234524Y-89130238D01*
X98282143Y-89320714D01*
X98282143Y-89654048D01*
X98234524Y-89844524D01*
X98139286Y-89939762D01*
X98044048Y-89987381D01*
X97853571Y-89987381D01*
X99139286Y-88987381D02*
X98948809Y-88987381D01*
X98853571Y-89035000D01*
X98805952Y-89082619D01*
X98710714Y-89225476D01*
X98663095Y-89415952D01*
X98663095Y-89796905D01*
X98710714Y-89892143D01*
X98758333Y-89939762D01*
X98853571Y-89987381D01*
X99044048Y-89987381D01*
X99139286Y-89939762D01*
X99186905Y-89892143D01*
X99234524Y-89796905D01*
X99234524Y-89558810D01*
X99186905Y-89463571D01*
X99139286Y-89415952D01*
X99044048Y-89368333D01*
X98853571Y-89368333D01*
X98758333Y-89415952D01*
X98710714Y-89463571D01*
X98663095Y-89558810D01*
X103917762Y-78017619D02*
X103822524Y-77970000D01*
X103727286Y-77874762D01*
X103584429Y-77731905D01*
X103489190Y-77684286D01*
X103393952Y-77684286D01*
X103441571Y-77922381D02*
X103346333Y-77874762D01*
X103251095Y-77779524D01*
X103203476Y-77589048D01*
X103203476Y-77255714D01*
X103251095Y-77065238D01*
X103346333Y-76970000D01*
X103441571Y-76922381D01*
X103632048Y-76922381D01*
X103727286Y-76970000D01*
X103822524Y-77065238D01*
X103870143Y-77255714D01*
X103870143Y-77589048D01*
X103822524Y-77779524D01*
X103727286Y-77874762D01*
X103632048Y-77922381D01*
X103441571Y-77922381D01*
X104441571Y-77350952D02*
X104346333Y-77303333D01*
X104298714Y-77255714D01*
X104251095Y-77160476D01*
X104251095Y-77112857D01*
X104298714Y-77017619D01*
X104346333Y-76970000D01*
X104441571Y-76922381D01*
X104632048Y-76922381D01*
X104727286Y-76970000D01*
X104774905Y-77017619D01*
X104822524Y-77112857D01*
X104822524Y-77160476D01*
X104774905Y-77255714D01*
X104727286Y-77303333D01*
X104632048Y-77350952D01*
X104441571Y-77350952D01*
X104346333Y-77398571D01*
X104298714Y-77446190D01*
X104251095Y-77541429D01*
X104251095Y-77731905D01*
X104298714Y-77827143D01*
X104346333Y-77874762D01*
X104441571Y-77922381D01*
X104632048Y-77922381D01*
X104727286Y-77874762D01*
X104774905Y-77827143D01*
X104822524Y-77731905D01*
X104822524Y-77541429D01*
X104774905Y-77446190D01*
X104727286Y-77398571D01*
X104632048Y-77350952D01*
X95924619Y-94837238D02*
X95877000Y-94932476D01*
X95781762Y-95027714D01*
X95638905Y-95170571D01*
X95591286Y-95265810D01*
X95591286Y-95361048D01*
X95829381Y-95313429D02*
X95781762Y-95408667D01*
X95686524Y-95503905D01*
X95496048Y-95551524D01*
X95162714Y-95551524D01*
X94972238Y-95503905D01*
X94877000Y-95408667D01*
X94829381Y-95313429D01*
X94829381Y-95122952D01*
X94877000Y-95027714D01*
X94972238Y-94932476D01*
X95162714Y-94884857D01*
X95496048Y-94884857D01*
X95686524Y-94932476D01*
X95781762Y-95027714D01*
X95829381Y-95122952D01*
X95829381Y-95313429D01*
X95829381Y-94408667D02*
X95829381Y-94218191D01*
X95781762Y-94122952D01*
X95734143Y-94075333D01*
X95591286Y-93980095D01*
X95400810Y-93932476D01*
X95019857Y-93932476D01*
X94924619Y-93980095D01*
X94877000Y-94027714D01*
X94829381Y-94122952D01*
X94829381Y-94313429D01*
X94877000Y-94408667D01*
X94924619Y-94456286D01*
X95019857Y-94503905D01*
X95257952Y-94503905D01*
X95353190Y-94456286D01*
X95400810Y-94408667D01*
X95448429Y-94313429D01*
X95448429Y-94122952D01*
X95400810Y-94027714D01*
X95353190Y-93980095D01*
X95257952Y-93932476D01*
X108243619Y-93154428D02*
X108196000Y-93249666D01*
X108100762Y-93344904D01*
X107957905Y-93487761D01*
X107910286Y-93583000D01*
X107910286Y-93678238D01*
X108148381Y-93630619D02*
X108100762Y-93725857D01*
X108005524Y-93821095D01*
X107815048Y-93868714D01*
X107481714Y-93868714D01*
X107291238Y-93821095D01*
X107196000Y-93725857D01*
X107148381Y-93630619D01*
X107148381Y-93440142D01*
X107196000Y-93344904D01*
X107291238Y-93249666D01*
X107481714Y-93202047D01*
X107815048Y-93202047D01*
X108005524Y-93249666D01*
X108100762Y-93344904D01*
X108148381Y-93440142D01*
X108148381Y-93630619D01*
X108148381Y-92249666D02*
X108148381Y-92821095D01*
X108148381Y-92535381D02*
X107148381Y-92535381D01*
X107291238Y-92630619D01*
X107386476Y-92725857D01*
X107434095Y-92821095D01*
X107148381Y-91630619D02*
X107148381Y-91535380D01*
X107196000Y-91440142D01*
X107243619Y-91392523D01*
X107338857Y-91344904D01*
X107529333Y-91297285D01*
X107767429Y-91297285D01*
X107957905Y-91344904D01*
X108053143Y-91392523D01*
X108100762Y-91440142D01*
X108148381Y-91535380D01*
X108148381Y-91630619D01*
X108100762Y-91725857D01*
X108053143Y-91773476D01*
X107957905Y-91821095D01*
X107767429Y-91868714D01*
X107529333Y-91868714D01*
X107338857Y-91821095D01*
X107243619Y-91773476D01*
X107196000Y-91725857D01*
X107148381Y-91630619D01*
X102679572Y-88304619D02*
X102584334Y-88257000D01*
X102489096Y-88161762D01*
X102346239Y-88018905D01*
X102251000Y-87971286D01*
X102155762Y-87971286D01*
X102203381Y-88209381D02*
X102108143Y-88161762D01*
X102012905Y-88066524D01*
X101965286Y-87876048D01*
X101965286Y-87542714D01*
X102012905Y-87352238D01*
X102108143Y-87257000D01*
X102203381Y-87209381D01*
X102393858Y-87209381D01*
X102489096Y-87257000D01*
X102584334Y-87352238D01*
X102631953Y-87542714D01*
X102631953Y-87876048D01*
X102584334Y-88066524D01*
X102489096Y-88161762D01*
X102393858Y-88209381D01*
X102203381Y-88209381D01*
X103584334Y-88209381D02*
X103012905Y-88209381D01*
X103298619Y-88209381D02*
X103298619Y-87209381D01*
X103203381Y-87352238D01*
X103108143Y-87447476D01*
X103012905Y-87495095D01*
X104536715Y-88209381D02*
X103965286Y-88209381D01*
X104251000Y-88209381D02*
X104251000Y-87209381D01*
X104155762Y-87352238D01*
X104060524Y-87447476D01*
X103965286Y-87495095D01*
X117792572Y-83986619D02*
X117697334Y-83939000D01*
X117602096Y-83843762D01*
X117459239Y-83700905D01*
X117364000Y-83653286D01*
X117268762Y-83653286D01*
X117316381Y-83891381D02*
X117221143Y-83843762D01*
X117125905Y-83748524D01*
X117078286Y-83558048D01*
X117078286Y-83224714D01*
X117125905Y-83034238D01*
X117221143Y-82939000D01*
X117316381Y-82891381D01*
X117506858Y-82891381D01*
X117602096Y-82939000D01*
X117697334Y-83034238D01*
X117744953Y-83224714D01*
X117744953Y-83558048D01*
X117697334Y-83748524D01*
X117602096Y-83843762D01*
X117506858Y-83891381D01*
X117316381Y-83891381D01*
X118697334Y-83891381D02*
X118125905Y-83891381D01*
X118411619Y-83891381D02*
X118411619Y-82891381D01*
X118316381Y-83034238D01*
X118221143Y-83129476D01*
X118125905Y-83177095D01*
X119078286Y-82986619D02*
X119125905Y-82939000D01*
X119221143Y-82891381D01*
X119459239Y-82891381D01*
X119554477Y-82939000D01*
X119602096Y-82986619D01*
X119649715Y-83081857D01*
X119649715Y-83177095D01*
X119602096Y-83319952D01*
X119030667Y-83891381D01*
X119649715Y-83891381D01*
X104838572Y-99052619D02*
X104743334Y-99005000D01*
X104648096Y-98909762D01*
X104505239Y-98766905D01*
X104410000Y-98719286D01*
X104314762Y-98719286D01*
X104362381Y-98957381D02*
X104267143Y-98909762D01*
X104171905Y-98814524D01*
X104124286Y-98624048D01*
X104124286Y-98290714D01*
X104171905Y-98100238D01*
X104267143Y-98005000D01*
X104362381Y-97957381D01*
X104552858Y-97957381D01*
X104648096Y-98005000D01*
X104743334Y-98100238D01*
X104790953Y-98290714D01*
X104790953Y-98624048D01*
X104743334Y-98814524D01*
X104648096Y-98909762D01*
X104552858Y-98957381D01*
X104362381Y-98957381D01*
X105743334Y-98957381D02*
X105171905Y-98957381D01*
X105457619Y-98957381D02*
X105457619Y-97957381D01*
X105362381Y-98100238D01*
X105267143Y-98195476D01*
X105171905Y-98243095D01*
X106076667Y-97957381D02*
X106695715Y-97957381D01*
X106362381Y-98338333D01*
X106505239Y-98338333D01*
X106600477Y-98385952D01*
X106648096Y-98433571D01*
X106695715Y-98528810D01*
X106695715Y-98766905D01*
X106648096Y-98862143D01*
X106600477Y-98909762D01*
X106505239Y-98957381D01*
X106219524Y-98957381D01*
X106124286Y-98909762D01*
X106076667Y-98862143D01*
X112839572Y-88050619D02*
X112744334Y-88003000D01*
X112649096Y-87907762D01*
X112506239Y-87764905D01*
X112411000Y-87717286D01*
X112315762Y-87717286D01*
X112363381Y-87955381D02*
X112268143Y-87907762D01*
X112172905Y-87812524D01*
X112125286Y-87622048D01*
X112125286Y-87288714D01*
X112172905Y-87098238D01*
X112268143Y-87003000D01*
X112363381Y-86955381D01*
X112553858Y-86955381D01*
X112649096Y-87003000D01*
X112744334Y-87098238D01*
X112791953Y-87288714D01*
X112791953Y-87622048D01*
X112744334Y-87812524D01*
X112649096Y-87907762D01*
X112553858Y-87955381D01*
X112363381Y-87955381D01*
X113744334Y-87955381D02*
X113172905Y-87955381D01*
X113458619Y-87955381D02*
X113458619Y-86955381D01*
X113363381Y-87098238D01*
X113268143Y-87193476D01*
X113172905Y-87241095D01*
X114601477Y-87288714D02*
X114601477Y-87955381D01*
X114363381Y-86907762D02*
X114125286Y-87622048D01*
X114744334Y-87622048D01*
X107989619Y-83248428D02*
X107942000Y-83343666D01*
X107846762Y-83438904D01*
X107703905Y-83581761D01*
X107656286Y-83677000D01*
X107656286Y-83772238D01*
X107894381Y-83724619D02*
X107846762Y-83819857D01*
X107751524Y-83915095D01*
X107561048Y-83962714D01*
X107227714Y-83962714D01*
X107037238Y-83915095D01*
X106942000Y-83819857D01*
X106894381Y-83724619D01*
X106894381Y-83534142D01*
X106942000Y-83438904D01*
X107037238Y-83343666D01*
X107227714Y-83296047D01*
X107561048Y-83296047D01*
X107751524Y-83343666D01*
X107846762Y-83438904D01*
X107894381Y-83534142D01*
X107894381Y-83724619D01*
X107894381Y-82343666D02*
X107894381Y-82915095D01*
X107894381Y-82629381D02*
X106894381Y-82629381D01*
X107037238Y-82724619D01*
X107132476Y-82819857D01*
X107180095Y-82915095D01*
X106894381Y-81438904D02*
X106894381Y-81915095D01*
X107370571Y-81962714D01*
X107322952Y-81915095D01*
X107275333Y-81819857D01*
X107275333Y-81581761D01*
X107322952Y-81486523D01*
X107370571Y-81438904D01*
X107465810Y-81391285D01*
X107703905Y-81391285D01*
X107799143Y-81438904D01*
X107846762Y-81486523D01*
X107894381Y-81581761D01*
X107894381Y-81819857D01*
X107846762Y-81915095D01*
X107799143Y-81962714D01*
X113601572Y-99433619D02*
X113506334Y-99386000D01*
X113411096Y-99290762D01*
X113268239Y-99147905D01*
X113173000Y-99100286D01*
X113077762Y-99100286D01*
X113125381Y-99338381D02*
X113030143Y-99290762D01*
X112934905Y-99195524D01*
X112887286Y-99005048D01*
X112887286Y-98671714D01*
X112934905Y-98481238D01*
X113030143Y-98386000D01*
X113125381Y-98338381D01*
X113315858Y-98338381D01*
X113411096Y-98386000D01*
X113506334Y-98481238D01*
X113553953Y-98671714D01*
X113553953Y-99005048D01*
X113506334Y-99195524D01*
X113411096Y-99290762D01*
X113315858Y-99338381D01*
X113125381Y-99338381D01*
X114506334Y-99338381D02*
X113934905Y-99338381D01*
X114220619Y-99338381D02*
X114220619Y-98338381D01*
X114125381Y-98481238D01*
X114030143Y-98576476D01*
X113934905Y-98624095D01*
X115363477Y-98338381D02*
X115173000Y-98338381D01*
X115077762Y-98386000D01*
X115030143Y-98433619D01*
X114934905Y-98576476D01*
X114887286Y-98766952D01*
X114887286Y-99147905D01*
X114934905Y-99243143D01*
X114982524Y-99290762D01*
X115077762Y-99338381D01*
X115268239Y-99338381D01*
X115363477Y-99290762D01*
X115411096Y-99243143D01*
X115458715Y-99147905D01*
X115458715Y-98909810D01*
X115411096Y-98814571D01*
X115363477Y-98766952D01*
X115268239Y-98719333D01*
X115077762Y-98719333D01*
X114982524Y-98766952D01*
X114934905Y-98814571D01*
X114887286Y-98909810D01*
X120078572Y-86907619D02*
X119983334Y-86860000D01*
X119888096Y-86764762D01*
X119745239Y-86621905D01*
X119650000Y-86574286D01*
X119554762Y-86574286D01*
X119602381Y-86812381D02*
X119507143Y-86764762D01*
X119411905Y-86669524D01*
X119364286Y-86479048D01*
X119364286Y-86145714D01*
X119411905Y-85955238D01*
X119507143Y-85860000D01*
X119602381Y-85812381D01*
X119792858Y-85812381D01*
X119888096Y-85860000D01*
X119983334Y-85955238D01*
X120030953Y-86145714D01*
X120030953Y-86479048D01*
X119983334Y-86669524D01*
X119888096Y-86764762D01*
X119792858Y-86812381D01*
X119602381Y-86812381D01*
X120983334Y-86812381D02*
X120411905Y-86812381D01*
X120697619Y-86812381D02*
X120697619Y-85812381D01*
X120602381Y-85955238D01*
X120507143Y-86050476D01*
X120411905Y-86098095D01*
X121316667Y-85812381D02*
X121983334Y-85812381D01*
X121554762Y-86812381D01*
X128309619Y-86296428D02*
X128262000Y-86391666D01*
X128166762Y-86486904D01*
X128023905Y-86629761D01*
X127976286Y-86725000D01*
X127976286Y-86820238D01*
X128214381Y-86772619D02*
X128166762Y-86867857D01*
X128071524Y-86963095D01*
X127881048Y-87010714D01*
X127547714Y-87010714D01*
X127357238Y-86963095D01*
X127262000Y-86867857D01*
X127214381Y-86772619D01*
X127214381Y-86582142D01*
X127262000Y-86486904D01*
X127357238Y-86391666D01*
X127547714Y-86344047D01*
X127881048Y-86344047D01*
X128071524Y-86391666D01*
X128166762Y-86486904D01*
X128214381Y-86582142D01*
X128214381Y-86772619D01*
X128214381Y-85391666D02*
X128214381Y-85963095D01*
X128214381Y-85677381D02*
X127214381Y-85677381D01*
X127357238Y-85772619D01*
X127452476Y-85867857D01*
X127500095Y-85963095D01*
X127642952Y-84820238D02*
X127595333Y-84915476D01*
X127547714Y-84963095D01*
X127452476Y-85010714D01*
X127404857Y-85010714D01*
X127309619Y-84963095D01*
X127262000Y-84915476D01*
X127214381Y-84820238D01*
X127214381Y-84629761D01*
X127262000Y-84534523D01*
X127309619Y-84486904D01*
X127404857Y-84439285D01*
X127452476Y-84439285D01*
X127547714Y-84486904D01*
X127595333Y-84534523D01*
X127642952Y-84629761D01*
X127642952Y-84820238D01*
X127690571Y-84915476D01*
X127738190Y-84963095D01*
X127833429Y-85010714D01*
X128023905Y-85010714D01*
X128119143Y-84963095D01*
X128166762Y-84915476D01*
X128214381Y-84820238D01*
X128214381Y-84629761D01*
X128166762Y-84534523D01*
X128119143Y-84486904D01*
X128023905Y-84439285D01*
X127833429Y-84439285D01*
X127738190Y-84486904D01*
X127690571Y-84534523D01*
X127642952Y-84629761D01*
X76898572Y-102592619D02*
X76803334Y-102545000D01*
X76708096Y-102449762D01*
X76565239Y-102306905D01*
X76470000Y-102259286D01*
X76374762Y-102259286D01*
X76422381Y-102497381D02*
X76327143Y-102449762D01*
X76231905Y-102354524D01*
X76184286Y-102164048D01*
X76184286Y-101830714D01*
X76231905Y-101640238D01*
X76327143Y-101545000D01*
X76422381Y-101497381D01*
X76612858Y-101497381D01*
X76708096Y-101545000D01*
X76803334Y-101640238D01*
X76850953Y-101830714D01*
X76850953Y-102164048D01*
X76803334Y-102354524D01*
X76708096Y-102449762D01*
X76612858Y-102497381D01*
X76422381Y-102497381D01*
X77803334Y-102497381D02*
X77231905Y-102497381D01*
X77517619Y-102497381D02*
X77517619Y-101497381D01*
X77422381Y-101640238D01*
X77327143Y-101735476D01*
X77231905Y-101783095D01*
X78279524Y-102497381D02*
X78470000Y-102497381D01*
X78565239Y-102449762D01*
X78612858Y-102402143D01*
X78708096Y-102259286D01*
X78755715Y-102068810D01*
X78755715Y-101687857D01*
X78708096Y-101592619D01*
X78660477Y-101545000D01*
X78565239Y-101497381D01*
X78374762Y-101497381D01*
X78279524Y-101545000D01*
X78231905Y-101592619D01*
X78184286Y-101687857D01*
X78184286Y-101925952D01*
X78231905Y-102021190D01*
X78279524Y-102068810D01*
X78374762Y-102116429D01*
X78565239Y-102116429D01*
X78660477Y-102068810D01*
X78708096Y-102021190D01*
X78755715Y-101925952D01*
X60904381Y-94400666D02*
X60428190Y-94734000D01*
X60904381Y-94972095D02*
X59904381Y-94972095D01*
X59904381Y-94591142D01*
X59952000Y-94495904D01*
X59999619Y-94448285D01*
X60094857Y-94400666D01*
X60237714Y-94400666D01*
X60332952Y-94448285D01*
X60380571Y-94495904D01*
X60428190Y-94591142D01*
X60428190Y-94972095D01*
X60904381Y-93924476D02*
X60904381Y-93734000D01*
X60856762Y-93638761D01*
X60809143Y-93591142D01*
X60666286Y-93495904D01*
X60475810Y-93448285D01*
X60094857Y-93448285D01*
X59999619Y-93495904D01*
X59952000Y-93543523D01*
X59904381Y-93638761D01*
X59904381Y-93829238D01*
X59952000Y-93924476D01*
X59999619Y-93972095D01*
X60094857Y-94019714D01*
X60332952Y-94019714D01*
X60428190Y-93972095D01*
X60475810Y-93924476D01*
X60523429Y-93829238D01*
X60523429Y-93638761D01*
X60475810Y-93543523D01*
X60428190Y-93495904D01*
X60332952Y-93448285D01*
X61587143Y-58872381D02*
X61253809Y-58396190D01*
X61015714Y-58872381D02*
X61015714Y-57872381D01*
X61396667Y-57872381D01*
X61491905Y-57920000D01*
X61539524Y-57967619D01*
X61587143Y-58062857D01*
X61587143Y-58205714D01*
X61539524Y-58300952D01*
X61491905Y-58348571D01*
X61396667Y-58396190D01*
X61015714Y-58396190D01*
X62539524Y-58872381D02*
X61968095Y-58872381D01*
X62253809Y-58872381D02*
X62253809Y-57872381D01*
X62158571Y-58015238D01*
X62063333Y-58110476D01*
X61968095Y-58158095D01*
X63158571Y-57872381D02*
X63253810Y-57872381D01*
X63349048Y-57920000D01*
X63396667Y-57967619D01*
X63444286Y-58062857D01*
X63491905Y-58253333D01*
X63491905Y-58491429D01*
X63444286Y-58681905D01*
X63396667Y-58777143D01*
X63349048Y-58824762D01*
X63253810Y-58872381D01*
X63158571Y-58872381D01*
X63063333Y-58824762D01*
X63015714Y-58777143D01*
X62968095Y-58681905D01*
X62920476Y-58491429D01*
X62920476Y-58253333D01*
X62968095Y-58062857D01*
X63015714Y-57967619D01*
X63063333Y-57920000D01*
X63158571Y-57872381D01*
X86352143Y-46172381D02*
X86018809Y-45696190D01*
X85780714Y-46172381D02*
X85780714Y-45172381D01*
X86161667Y-45172381D01*
X86256905Y-45220000D01*
X86304524Y-45267619D01*
X86352143Y-45362857D01*
X86352143Y-45505714D01*
X86304524Y-45600952D01*
X86256905Y-45648571D01*
X86161667Y-45696190D01*
X85780714Y-45696190D01*
X87304524Y-46172381D02*
X86733095Y-46172381D01*
X87018809Y-46172381D02*
X87018809Y-45172381D01*
X86923571Y-45315238D01*
X86828333Y-45410476D01*
X86733095Y-45458095D01*
X88256905Y-46172381D02*
X87685476Y-46172381D01*
X87971190Y-46172381D02*
X87971190Y-45172381D01*
X87875952Y-45315238D01*
X87780714Y-45410476D01*
X87685476Y-45458095D01*
X86352143Y-59380381D02*
X86018809Y-58904190D01*
X85780714Y-59380381D02*
X85780714Y-58380381D01*
X86161667Y-58380381D01*
X86256905Y-58428000D01*
X86304524Y-58475619D01*
X86352143Y-58570857D01*
X86352143Y-58713714D01*
X86304524Y-58808952D01*
X86256905Y-58856571D01*
X86161667Y-58904190D01*
X85780714Y-58904190D01*
X87304524Y-59380381D02*
X86733095Y-59380381D01*
X87018809Y-59380381D02*
X87018809Y-58380381D01*
X86923571Y-58523238D01*
X86828333Y-58618476D01*
X86733095Y-58666095D01*
X87685476Y-58475619D02*
X87733095Y-58428000D01*
X87828333Y-58380381D01*
X88066429Y-58380381D01*
X88161667Y-58428000D01*
X88209286Y-58475619D01*
X88256905Y-58570857D01*
X88256905Y-58666095D01*
X88209286Y-58808952D01*
X87637857Y-59380381D01*
X88256905Y-59380381D01*
X86352143Y-53792381D02*
X86018809Y-53316190D01*
X85780714Y-53792381D02*
X85780714Y-52792381D01*
X86161667Y-52792381D01*
X86256905Y-52840000D01*
X86304524Y-52887619D01*
X86352143Y-52982857D01*
X86352143Y-53125714D01*
X86304524Y-53220952D01*
X86256905Y-53268571D01*
X86161667Y-53316190D01*
X85780714Y-53316190D01*
X87304524Y-53792381D02*
X86733095Y-53792381D01*
X87018809Y-53792381D02*
X87018809Y-52792381D01*
X86923571Y-52935238D01*
X86828333Y-53030476D01*
X86733095Y-53078095D01*
X87637857Y-52792381D02*
X88256905Y-52792381D01*
X87923571Y-53173333D01*
X88066429Y-53173333D01*
X88161667Y-53220952D01*
X88209286Y-53268571D01*
X88256905Y-53363810D01*
X88256905Y-53601905D01*
X88209286Y-53697143D01*
X88161667Y-53744762D01*
X88066429Y-53792381D01*
X87780714Y-53792381D01*
X87685476Y-53744762D01*
X87637857Y-53697143D01*
X86352143Y-56332381D02*
X86018809Y-55856190D01*
X85780714Y-56332381D02*
X85780714Y-55332381D01*
X86161667Y-55332381D01*
X86256905Y-55380000D01*
X86304524Y-55427619D01*
X86352143Y-55522857D01*
X86352143Y-55665714D01*
X86304524Y-55760952D01*
X86256905Y-55808571D01*
X86161667Y-55856190D01*
X85780714Y-55856190D01*
X87304524Y-56332381D02*
X86733095Y-56332381D01*
X87018809Y-56332381D02*
X87018809Y-55332381D01*
X86923571Y-55475238D01*
X86828333Y-55570476D01*
X86733095Y-55618095D01*
X88161667Y-55665714D02*
X88161667Y-56332381D01*
X87923571Y-55284762D02*
X87685476Y-55999048D01*
X88304524Y-55999048D01*
X86352143Y-43632381D02*
X86018809Y-43156190D01*
X85780714Y-43632381D02*
X85780714Y-42632381D01*
X86161667Y-42632381D01*
X86256905Y-42680000D01*
X86304524Y-42727619D01*
X86352143Y-42822857D01*
X86352143Y-42965714D01*
X86304524Y-43060952D01*
X86256905Y-43108571D01*
X86161667Y-43156190D01*
X85780714Y-43156190D01*
X87304524Y-43632381D02*
X86733095Y-43632381D01*
X87018809Y-43632381D02*
X87018809Y-42632381D01*
X86923571Y-42775238D01*
X86828333Y-42870476D01*
X86733095Y-42918095D01*
X88209286Y-42632381D02*
X87733095Y-42632381D01*
X87685476Y-43108571D01*
X87733095Y-43060952D01*
X87828333Y-43013333D01*
X88066429Y-43013333D01*
X88161667Y-43060952D01*
X88209286Y-43108571D01*
X88256905Y-43203810D01*
X88256905Y-43441905D01*
X88209286Y-43537143D01*
X88161667Y-43584762D01*
X88066429Y-43632381D01*
X87828333Y-43632381D01*
X87733095Y-43584762D01*
X87685476Y-43537143D01*
X86860143Y-75382381D02*
X86526809Y-74906190D01*
X86288714Y-75382381D02*
X86288714Y-74382381D01*
X86669667Y-74382381D01*
X86764905Y-74430000D01*
X86812524Y-74477619D01*
X86860143Y-74572857D01*
X86860143Y-74715714D01*
X86812524Y-74810952D01*
X86764905Y-74858571D01*
X86669667Y-74906190D01*
X86288714Y-74906190D01*
X87812524Y-75382381D02*
X87241095Y-75382381D01*
X87526809Y-75382381D02*
X87526809Y-74382381D01*
X87431571Y-74525238D01*
X87336333Y-74620476D01*
X87241095Y-74668095D01*
X88669667Y-74382381D02*
X88479190Y-74382381D01*
X88383952Y-74430000D01*
X88336333Y-74477619D01*
X88241095Y-74620476D01*
X88193476Y-74810952D01*
X88193476Y-75191905D01*
X88241095Y-75287143D01*
X88288714Y-75334762D01*
X88383952Y-75382381D01*
X88574429Y-75382381D01*
X88669667Y-75334762D01*
X88717286Y-75287143D01*
X88764905Y-75191905D01*
X88764905Y-74953810D01*
X88717286Y-74858571D01*
X88669667Y-74810952D01*
X88574429Y-74763333D01*
X88383952Y-74763333D01*
X88288714Y-74810952D01*
X88241095Y-74858571D01*
X88193476Y-74953810D01*
X86352143Y-77922381D02*
X86018809Y-77446190D01*
X85780714Y-77922381D02*
X85780714Y-76922381D01*
X86161667Y-76922381D01*
X86256905Y-76970000D01*
X86304524Y-77017619D01*
X86352143Y-77112857D01*
X86352143Y-77255714D01*
X86304524Y-77350952D01*
X86256905Y-77398571D01*
X86161667Y-77446190D01*
X85780714Y-77446190D01*
X87304524Y-77922381D02*
X86733095Y-77922381D01*
X87018809Y-77922381D02*
X87018809Y-76922381D01*
X86923571Y-77065238D01*
X86828333Y-77160476D01*
X86733095Y-77208095D01*
X87637857Y-76922381D02*
X88304524Y-76922381D01*
X87875952Y-77922381D01*
X86352143Y-80462381D02*
X86018809Y-79986190D01*
X85780714Y-80462381D02*
X85780714Y-79462381D01*
X86161667Y-79462381D01*
X86256905Y-79510000D01*
X86304524Y-79557619D01*
X86352143Y-79652857D01*
X86352143Y-79795714D01*
X86304524Y-79890952D01*
X86256905Y-79938571D01*
X86161667Y-79986190D01*
X85780714Y-79986190D01*
X87304524Y-80462381D02*
X86733095Y-80462381D01*
X87018809Y-80462381D02*
X87018809Y-79462381D01*
X86923571Y-79605238D01*
X86828333Y-79700476D01*
X86733095Y-79748095D01*
X87875952Y-79890952D02*
X87780714Y-79843333D01*
X87733095Y-79795714D01*
X87685476Y-79700476D01*
X87685476Y-79652857D01*
X87733095Y-79557619D01*
X87780714Y-79510000D01*
X87875952Y-79462381D01*
X88066429Y-79462381D01*
X88161667Y-79510000D01*
X88209286Y-79557619D01*
X88256905Y-79652857D01*
X88256905Y-79700476D01*
X88209286Y-79795714D01*
X88161667Y-79843333D01*
X88066429Y-79890952D01*
X87875952Y-79890952D01*
X87780714Y-79938571D01*
X87733095Y-79986190D01*
X87685476Y-80081429D01*
X87685476Y-80271905D01*
X87733095Y-80367143D01*
X87780714Y-80414762D01*
X87875952Y-80462381D01*
X88066429Y-80462381D01*
X88161667Y-80414762D01*
X88209286Y-80367143D01*
X88256905Y-80271905D01*
X88256905Y-80081429D01*
X88209286Y-79986190D01*
X88161667Y-79938571D01*
X88066429Y-79890952D01*
X86352143Y-83002381D02*
X86018809Y-82526190D01*
X85780714Y-83002381D02*
X85780714Y-82002381D01*
X86161667Y-82002381D01*
X86256905Y-82050000D01*
X86304524Y-82097619D01*
X86352143Y-82192857D01*
X86352143Y-82335714D01*
X86304524Y-82430952D01*
X86256905Y-82478571D01*
X86161667Y-82526190D01*
X85780714Y-82526190D01*
X87304524Y-83002381D02*
X86733095Y-83002381D01*
X87018809Y-83002381D02*
X87018809Y-82002381D01*
X86923571Y-82145238D01*
X86828333Y-82240476D01*
X86733095Y-82288095D01*
X87780714Y-83002381D02*
X87971190Y-83002381D01*
X88066429Y-82954762D01*
X88114048Y-82907143D01*
X88209286Y-82764286D01*
X88256905Y-82573810D01*
X88256905Y-82192857D01*
X88209286Y-82097619D01*
X88161667Y-82050000D01*
X88066429Y-82002381D01*
X87875952Y-82002381D01*
X87780714Y-82050000D01*
X87733095Y-82097619D01*
X87685476Y-82192857D01*
X87685476Y-82430952D01*
X87733095Y-82526190D01*
X87780714Y-82573810D01*
X87875952Y-82621429D01*
X88066429Y-82621429D01*
X88161667Y-82573810D01*
X88209286Y-82526190D01*
X88256905Y-82430952D01*
X82161143Y-86177381D02*
X81827809Y-85701190D01*
X81589714Y-86177381D02*
X81589714Y-85177381D01*
X81970667Y-85177381D01*
X82065905Y-85225000D01*
X82113524Y-85272619D01*
X82161143Y-85367857D01*
X82161143Y-85510714D01*
X82113524Y-85605952D01*
X82065905Y-85653571D01*
X81970667Y-85701190D01*
X81589714Y-85701190D01*
X82542095Y-85272619D02*
X82589714Y-85225000D01*
X82684952Y-85177381D01*
X82923048Y-85177381D01*
X83018286Y-85225000D01*
X83065905Y-85272619D01*
X83113524Y-85367857D01*
X83113524Y-85463095D01*
X83065905Y-85605952D01*
X82494476Y-86177381D01*
X83113524Y-86177381D01*
X83732571Y-85177381D02*
X83827810Y-85177381D01*
X83923048Y-85225000D01*
X83970667Y-85272619D01*
X84018286Y-85367857D01*
X84065905Y-85558333D01*
X84065905Y-85796429D01*
X84018286Y-85986905D01*
X83970667Y-86082143D01*
X83923048Y-86129762D01*
X83827810Y-86177381D01*
X83732571Y-86177381D01*
X83637333Y-86129762D01*
X83589714Y-86082143D01*
X83542095Y-85986905D01*
X83494476Y-85796429D01*
X83494476Y-85558333D01*
X83542095Y-85367857D01*
X83589714Y-85272619D01*
X83637333Y-85225000D01*
X83732571Y-85177381D01*
X79367143Y-88717381D02*
X79033809Y-88241190D01*
X78795714Y-88717381D02*
X78795714Y-87717381D01*
X79176667Y-87717381D01*
X79271905Y-87765000D01*
X79319524Y-87812619D01*
X79367143Y-87907857D01*
X79367143Y-88050714D01*
X79319524Y-88145952D01*
X79271905Y-88193571D01*
X79176667Y-88241190D01*
X78795714Y-88241190D01*
X79748095Y-87812619D02*
X79795714Y-87765000D01*
X79890952Y-87717381D01*
X80129048Y-87717381D01*
X80224286Y-87765000D01*
X80271905Y-87812619D01*
X80319524Y-87907857D01*
X80319524Y-88003095D01*
X80271905Y-88145952D01*
X79700476Y-88717381D01*
X80319524Y-88717381D01*
X81271905Y-88717381D02*
X80700476Y-88717381D01*
X80986190Y-88717381D02*
X80986190Y-87717381D01*
X80890952Y-87860238D01*
X80795714Y-87955476D01*
X80700476Y-88003095D01*
X79192381Y-114942857D02*
X78716190Y-115276191D01*
X79192381Y-115514286D02*
X78192381Y-115514286D01*
X78192381Y-115133333D01*
X78240000Y-115038095D01*
X78287619Y-114990476D01*
X78382857Y-114942857D01*
X78525714Y-114942857D01*
X78620952Y-114990476D01*
X78668571Y-115038095D01*
X78716190Y-115133333D01*
X78716190Y-115514286D01*
X78287619Y-114561905D02*
X78240000Y-114514286D01*
X78192381Y-114419048D01*
X78192381Y-114180952D01*
X78240000Y-114085714D01*
X78287619Y-114038095D01*
X78382857Y-113990476D01*
X78478095Y-113990476D01*
X78620952Y-114038095D01*
X79192381Y-114609524D01*
X79192381Y-113990476D01*
X78287619Y-113609524D02*
X78240000Y-113561905D01*
X78192381Y-113466667D01*
X78192381Y-113228571D01*
X78240000Y-113133333D01*
X78287619Y-113085714D01*
X78382857Y-113038095D01*
X78478095Y-113038095D01*
X78620952Y-113085714D01*
X79192381Y-113657143D01*
X79192381Y-113038095D01*
X200271143Y-102560381D02*
X199937809Y-102084190D01*
X199699714Y-102560381D02*
X199699714Y-101560381D01*
X200080667Y-101560381D01*
X200175905Y-101608000D01*
X200223524Y-101655619D01*
X200271143Y-101750857D01*
X200271143Y-101893714D01*
X200223524Y-101988952D01*
X200175905Y-102036571D01*
X200080667Y-102084190D01*
X199699714Y-102084190D01*
X200652095Y-101655619D02*
X200699714Y-101608000D01*
X200794952Y-101560381D01*
X201033048Y-101560381D01*
X201128286Y-101608000D01*
X201175905Y-101655619D01*
X201223524Y-101750857D01*
X201223524Y-101846095D01*
X201175905Y-101988952D01*
X200604476Y-102560381D01*
X201223524Y-102560381D01*
X201556857Y-101560381D02*
X202175905Y-101560381D01*
X201842571Y-101941333D01*
X201985429Y-101941333D01*
X202080667Y-101988952D01*
X202128286Y-102036571D01*
X202175905Y-102131810D01*
X202175905Y-102369905D01*
X202128286Y-102465143D01*
X202080667Y-102512762D01*
X201985429Y-102560381D01*
X201699714Y-102560381D01*
X201604476Y-102512762D01*
X201556857Y-102465143D01*
X198112143Y-119832381D02*
X197778809Y-119356190D01*
X197540714Y-119832381D02*
X197540714Y-118832381D01*
X197921667Y-118832381D01*
X198016905Y-118880000D01*
X198064524Y-118927619D01*
X198112143Y-119022857D01*
X198112143Y-119165714D01*
X198064524Y-119260952D01*
X198016905Y-119308571D01*
X197921667Y-119356190D01*
X197540714Y-119356190D01*
X198493095Y-118927619D02*
X198540714Y-118880000D01*
X198635952Y-118832381D01*
X198874048Y-118832381D01*
X198969286Y-118880000D01*
X199016905Y-118927619D01*
X199064524Y-119022857D01*
X199064524Y-119118095D01*
X199016905Y-119260952D01*
X198445476Y-119832381D01*
X199064524Y-119832381D01*
X199921667Y-119165714D02*
X199921667Y-119832381D01*
X199683571Y-118784762D02*
X199445476Y-119499048D01*
X200064524Y-119499048D01*
X86352143Y-51252381D02*
X86018809Y-50776190D01*
X85780714Y-51252381D02*
X85780714Y-50252381D01*
X86161667Y-50252381D01*
X86256905Y-50300000D01*
X86304524Y-50347619D01*
X86352143Y-50442857D01*
X86352143Y-50585714D01*
X86304524Y-50680952D01*
X86256905Y-50728571D01*
X86161667Y-50776190D01*
X85780714Y-50776190D01*
X86733095Y-50347619D02*
X86780714Y-50300000D01*
X86875952Y-50252381D01*
X87114048Y-50252381D01*
X87209286Y-50300000D01*
X87256905Y-50347619D01*
X87304524Y-50442857D01*
X87304524Y-50538095D01*
X87256905Y-50680952D01*
X86685476Y-51252381D01*
X87304524Y-51252381D01*
X88161667Y-50252381D02*
X87971190Y-50252381D01*
X87875952Y-50300000D01*
X87828333Y-50347619D01*
X87733095Y-50490476D01*
X87685476Y-50680952D01*
X87685476Y-51061905D01*
X87733095Y-51157143D01*
X87780714Y-51204762D01*
X87875952Y-51252381D01*
X88066429Y-51252381D01*
X88161667Y-51204762D01*
X88209286Y-51157143D01*
X88256905Y-51061905D01*
X88256905Y-50823810D01*
X88209286Y-50728571D01*
X88161667Y-50680952D01*
X88066429Y-50633333D01*
X87875952Y-50633333D01*
X87780714Y-50680952D01*
X87733095Y-50728571D01*
X87685476Y-50823810D01*
X97733345Y-75458921D02*
X97154284Y-75509501D01*
X97447630Y-75953793D02*
X96581605Y-75453793D01*
X96772082Y-75123878D01*
X96860940Y-75065209D01*
X96925989Y-75047779D01*
X97032277Y-75054159D01*
X97155994Y-75125587D01*
X97214663Y-75214446D01*
X97232093Y-75279495D01*
X97225713Y-75385783D01*
X97035237Y-75715698D01*
X97140274Y-74676626D02*
X97122844Y-74611577D01*
X97129224Y-74505289D01*
X97248272Y-74299092D01*
X97337130Y-74240423D01*
X97402179Y-74222993D01*
X97508467Y-74229373D01*
X97590946Y-74276992D01*
X97690854Y-74389660D01*
X97900011Y-75170246D01*
X98209535Y-74634135D01*
X97510177Y-73845460D02*
X97843510Y-73268109D01*
X98495249Y-74139264D01*
X86352143Y-48712381D02*
X86018809Y-48236190D01*
X85780714Y-48712381D02*
X85780714Y-47712381D01*
X86161667Y-47712381D01*
X86256905Y-47760000D01*
X86304524Y-47807619D01*
X86352143Y-47902857D01*
X86352143Y-48045714D01*
X86304524Y-48140952D01*
X86256905Y-48188571D01*
X86161667Y-48236190D01*
X85780714Y-48236190D01*
X86733095Y-47807619D02*
X86780714Y-47760000D01*
X86875952Y-47712381D01*
X87114048Y-47712381D01*
X87209286Y-47760000D01*
X87256905Y-47807619D01*
X87304524Y-47902857D01*
X87304524Y-47998095D01*
X87256905Y-48140952D01*
X86685476Y-48712381D01*
X87304524Y-48712381D01*
X87875952Y-48140952D02*
X87780714Y-48093333D01*
X87733095Y-48045714D01*
X87685476Y-47950476D01*
X87685476Y-47902857D01*
X87733095Y-47807619D01*
X87780714Y-47760000D01*
X87875952Y-47712381D01*
X88066429Y-47712381D01*
X88161667Y-47760000D01*
X88209286Y-47807619D01*
X88256905Y-47902857D01*
X88256905Y-47950476D01*
X88209286Y-48045714D01*
X88161667Y-48093333D01*
X88066429Y-48140952D01*
X87875952Y-48140952D01*
X87780714Y-48188571D01*
X87733095Y-48236190D01*
X87685476Y-48331429D01*
X87685476Y-48521905D01*
X87733095Y-48617143D01*
X87780714Y-48664762D01*
X87875952Y-48712381D01*
X88066429Y-48712381D01*
X88161667Y-48664762D01*
X88209286Y-48617143D01*
X88256905Y-48521905D01*
X88256905Y-48331429D01*
X88209286Y-48236190D01*
X88161667Y-48188571D01*
X88066429Y-48140952D01*
X125547381Y-76207857D02*
X125071190Y-76541191D01*
X125547381Y-76779286D02*
X124547381Y-76779286D01*
X124547381Y-76398333D01*
X124595000Y-76303095D01*
X124642619Y-76255476D01*
X124737857Y-76207857D01*
X124880714Y-76207857D01*
X124975952Y-76255476D01*
X125023571Y-76303095D01*
X125071190Y-76398333D01*
X125071190Y-76779286D01*
X124642619Y-75826905D02*
X124595000Y-75779286D01*
X124547381Y-75684048D01*
X124547381Y-75445952D01*
X124595000Y-75350714D01*
X124642619Y-75303095D01*
X124737857Y-75255476D01*
X124833095Y-75255476D01*
X124975952Y-75303095D01*
X125547381Y-75874524D01*
X125547381Y-75255476D01*
X125547381Y-74779286D02*
X125547381Y-74588810D01*
X125499762Y-74493571D01*
X125452143Y-74445952D01*
X125309286Y-74350714D01*
X125118810Y-74303095D01*
X124737857Y-74303095D01*
X124642619Y-74350714D01*
X124595000Y-74398333D01*
X124547381Y-74493571D01*
X124547381Y-74684048D01*
X124595000Y-74779286D01*
X124642619Y-74826905D01*
X124737857Y-74874524D01*
X124975952Y-74874524D01*
X125071190Y-74826905D01*
X125118810Y-74779286D01*
X125166429Y-74684048D01*
X125166429Y-74493571D01*
X125118810Y-74398333D01*
X125071190Y-74350714D01*
X124975952Y-74303095D01*
X135247143Y-75382381D02*
X134913809Y-74906190D01*
X134675714Y-75382381D02*
X134675714Y-74382381D01*
X135056667Y-74382381D01*
X135151905Y-74430000D01*
X135199524Y-74477619D01*
X135247143Y-74572857D01*
X135247143Y-74715714D01*
X135199524Y-74810952D01*
X135151905Y-74858571D01*
X135056667Y-74906190D01*
X134675714Y-74906190D01*
X135580476Y-74382381D02*
X136199524Y-74382381D01*
X135866190Y-74763333D01*
X136009048Y-74763333D01*
X136104286Y-74810952D01*
X136151905Y-74858571D01*
X136199524Y-74953810D01*
X136199524Y-75191905D01*
X136151905Y-75287143D01*
X136104286Y-75334762D01*
X136009048Y-75382381D01*
X135723333Y-75382381D01*
X135628095Y-75334762D01*
X135580476Y-75287143D01*
X136818571Y-74382381D02*
X136913810Y-74382381D01*
X137009048Y-74430000D01*
X137056667Y-74477619D01*
X137104286Y-74572857D01*
X137151905Y-74763333D01*
X137151905Y-75001429D01*
X137104286Y-75191905D01*
X137056667Y-75287143D01*
X137009048Y-75334762D01*
X136913810Y-75382381D01*
X136818571Y-75382381D01*
X136723333Y-75334762D01*
X136675714Y-75287143D01*
X136628095Y-75191905D01*
X136580476Y-75001429D01*
X136580476Y-74763333D01*
X136628095Y-74572857D01*
X136675714Y-74477619D01*
X136723333Y-74430000D01*
X136818571Y-74382381D01*
X137152143Y-72842381D02*
X136818809Y-72366190D01*
X136580714Y-72842381D02*
X136580714Y-71842381D01*
X136961667Y-71842381D01*
X137056905Y-71890000D01*
X137104524Y-71937619D01*
X137152143Y-72032857D01*
X137152143Y-72175714D01*
X137104524Y-72270952D01*
X137056905Y-72318571D01*
X136961667Y-72366190D01*
X136580714Y-72366190D01*
X137485476Y-71842381D02*
X138104524Y-71842381D01*
X137771190Y-72223333D01*
X137914048Y-72223333D01*
X138009286Y-72270952D01*
X138056905Y-72318571D01*
X138104524Y-72413810D01*
X138104524Y-72651905D01*
X138056905Y-72747143D01*
X138009286Y-72794762D01*
X137914048Y-72842381D01*
X137628333Y-72842381D01*
X137533095Y-72794762D01*
X137485476Y-72747143D01*
X139056905Y-72842381D02*
X138485476Y-72842381D01*
X138771190Y-72842381D02*
X138771190Y-71842381D01*
X138675952Y-71985238D01*
X138580714Y-72080476D01*
X138485476Y-72128095D01*
X97007079Y-113735345D02*
X96956499Y-113156284D01*
X96512207Y-113449630D02*
X97012207Y-112583605D01*
X97342122Y-112774082D01*
X97400791Y-112862940D01*
X97418221Y-112927989D01*
X97411841Y-113034277D01*
X97340413Y-113157994D01*
X97251554Y-113216663D01*
X97186505Y-113234093D01*
X97080217Y-113227713D01*
X96750302Y-113037237D01*
X97795754Y-113035986D02*
X98331865Y-113345510D01*
X97852713Y-113508757D01*
X97976432Y-113580186D01*
X98035101Y-113669044D01*
X98052531Y-113734093D01*
X98046151Y-113840382D01*
X97927103Y-114046578D01*
X97838245Y-114105247D01*
X97773196Y-114122677D01*
X97666908Y-114116297D01*
X97419472Y-113973440D01*
X97360803Y-113884582D01*
X97343373Y-113819533D01*
X98614160Y-113618465D02*
X98679209Y-113601035D01*
X98785497Y-113607415D01*
X98991694Y-113726463D01*
X99050363Y-113815321D01*
X99067793Y-113880370D01*
X99061413Y-113986658D01*
X99013794Y-114069136D01*
X98901127Y-114169044D01*
X98120540Y-114378202D01*
X98656651Y-114687726D01*
X103992079Y-113735345D02*
X103941499Y-113156284D01*
X103497207Y-113449630D02*
X103997207Y-112583605D01*
X104327122Y-112774082D01*
X104385791Y-112862940D01*
X104403221Y-112927989D01*
X104396841Y-113034277D01*
X104325413Y-113157994D01*
X104236554Y-113216663D01*
X104171505Y-113234093D01*
X104065217Y-113227713D01*
X103735302Y-113037237D01*
X104780754Y-113035986D02*
X105316865Y-113345510D01*
X104837713Y-113508757D01*
X104961432Y-113580186D01*
X105020101Y-113669044D01*
X105037531Y-113734093D01*
X105031151Y-113840382D01*
X104912103Y-114046578D01*
X104823245Y-114105247D01*
X104758196Y-114122677D01*
X104651908Y-114116297D01*
X104404472Y-113973440D01*
X104345803Y-113884582D01*
X104328373Y-113819533D01*
X105605540Y-113512177D02*
X106141651Y-113821701D01*
X105662500Y-113984948D01*
X105786218Y-114056377D01*
X105844887Y-114145235D01*
X105862317Y-114210284D01*
X105855937Y-114316573D01*
X105736889Y-114522769D01*
X105648031Y-114581438D01*
X105582982Y-114598868D01*
X105476694Y-114592488D01*
X105229258Y-114449630D01*
X105170589Y-114360772D01*
X105153159Y-114295723D01*
X110977079Y-113735345D02*
X110926499Y-113156284D01*
X110482207Y-113449630D02*
X110982207Y-112583605D01*
X111312122Y-112774082D01*
X111370791Y-112862940D01*
X111388221Y-112927989D01*
X111381841Y-113034277D01*
X111310413Y-113157994D01*
X111221554Y-113216663D01*
X111156505Y-113234093D01*
X111050217Y-113227713D01*
X110720302Y-113037237D01*
X111765754Y-113035986D02*
X112301865Y-113345510D01*
X111822713Y-113508757D01*
X111946432Y-113580186D01*
X112005101Y-113669044D01*
X112022531Y-113734093D01*
X112016151Y-113840382D01*
X111897103Y-114046578D01*
X111808245Y-114105247D01*
X111743196Y-114122677D01*
X111636908Y-114116297D01*
X111389472Y-113973440D01*
X111330803Y-113884582D01*
X111313373Y-113819533D01*
X112877506Y-114062756D02*
X112544173Y-114640107D01*
X112861785Y-113613794D02*
X112298446Y-114113337D01*
X112834557Y-114422861D01*
X117962079Y-113735345D02*
X117911499Y-113156284D01*
X117467207Y-113449630D02*
X117967207Y-112583605D01*
X118297122Y-112774082D01*
X118355791Y-112862940D01*
X118373221Y-112927989D01*
X118366841Y-113034277D01*
X118295413Y-113157994D01*
X118206554Y-113216663D01*
X118141505Y-113234093D01*
X118035217Y-113227713D01*
X117705302Y-113037237D01*
X118750754Y-113035986D02*
X119286865Y-113345510D01*
X118807713Y-113508757D01*
X118931432Y-113580186D01*
X118990101Y-113669044D01*
X119007531Y-113734093D01*
X119001151Y-113840382D01*
X118882103Y-114046578D01*
X118793245Y-114105247D01*
X118728196Y-114122677D01*
X118621908Y-114116297D01*
X118374472Y-113973440D01*
X118315803Y-113884582D01*
X118298373Y-113819533D01*
X120070412Y-113797891D02*
X119658019Y-113559796D01*
X119378684Y-113948379D01*
X119443733Y-113930949D01*
X119550021Y-113937329D01*
X119756218Y-114056377D01*
X119814887Y-114145235D01*
X119832317Y-114210284D01*
X119825937Y-114316573D01*
X119706889Y-114522769D01*
X119618031Y-114581438D01*
X119552982Y-114598868D01*
X119446694Y-114592488D01*
X119240497Y-114473440D01*
X119181828Y-114384582D01*
X119164398Y-114319533D01*
X122372381Y-76207857D02*
X121896190Y-76541191D01*
X122372381Y-76779286D02*
X121372381Y-76779286D01*
X121372381Y-76398333D01*
X121420000Y-76303095D01*
X121467619Y-76255476D01*
X121562857Y-76207857D01*
X121705714Y-76207857D01*
X121800952Y-76255476D01*
X121848571Y-76303095D01*
X121896190Y-76398333D01*
X121896190Y-76779286D01*
X121372381Y-75874524D02*
X121372381Y-75255476D01*
X121753333Y-75588810D01*
X121753333Y-75445952D01*
X121800952Y-75350714D01*
X121848571Y-75303095D01*
X121943810Y-75255476D01*
X122181905Y-75255476D01*
X122277143Y-75303095D01*
X122324762Y-75350714D01*
X122372381Y-75445952D01*
X122372381Y-75731667D01*
X122324762Y-75826905D01*
X122277143Y-75874524D01*
X121372381Y-74922143D02*
X121372381Y-74255476D01*
X122372381Y-74684048D01*
X110161328Y-74546764D02*
X109599890Y-74396244D01*
X109723588Y-74914072D02*
X109080800Y-74148028D01*
X109372627Y-73903156D01*
X109476193Y-73878416D01*
X109543280Y-73884285D01*
X109640976Y-73926633D01*
X109732803Y-74036068D01*
X109757542Y-74139633D01*
X109751673Y-74206721D01*
X109709325Y-74304417D01*
X109417498Y-74549288D01*
X109773888Y-73566458D02*
X110248106Y-73168541D01*
X110237629Y-73674630D01*
X110347065Y-73582803D01*
X110450630Y-73558064D01*
X110517717Y-73563933D01*
X110615414Y-73606281D01*
X110768458Y-73788673D01*
X110793198Y-73892238D01*
X110787329Y-73959325D01*
X110744981Y-74057021D01*
X110526111Y-74240675D01*
X110422545Y-74265415D01*
X110355458Y-74259546D01*
X110961326Y-73129539D02*
X110857760Y-73154278D01*
X110790673Y-73148409D01*
X110692977Y-73106061D01*
X110662368Y-73069583D01*
X110637629Y-72966018D01*
X110643498Y-72898931D01*
X110685846Y-72801234D01*
X110831760Y-72678798D01*
X110935325Y-72654059D01*
X111002412Y-72659928D01*
X111100108Y-72702276D01*
X111130717Y-72738754D01*
X111155457Y-72842319D01*
X111149587Y-72909407D01*
X111107240Y-73007103D01*
X110961326Y-73129539D01*
X110918978Y-73227235D01*
X110913109Y-73294322D01*
X110937849Y-73397888D01*
X111060285Y-73543801D01*
X111157981Y-73586149D01*
X111225068Y-73592018D01*
X111328633Y-73567279D01*
X111474547Y-73444843D01*
X111516895Y-73347147D01*
X111522764Y-73280059D01*
X111498025Y-73176494D01*
X111375589Y-73030581D01*
X111277892Y-72988232D01*
X111210805Y-72982363D01*
X111107240Y-73007103D01*
X119197381Y-76207857D02*
X118721190Y-76541191D01*
X119197381Y-76779286D02*
X118197381Y-76779286D01*
X118197381Y-76398333D01*
X118245000Y-76303095D01*
X118292619Y-76255476D01*
X118387857Y-76207857D01*
X118530714Y-76207857D01*
X118625952Y-76255476D01*
X118673571Y-76303095D01*
X118721190Y-76398333D01*
X118721190Y-76779286D01*
X118197381Y-75874524D02*
X118197381Y-75255476D01*
X118578333Y-75588810D01*
X118578333Y-75445952D01*
X118625952Y-75350714D01*
X118673571Y-75303095D01*
X118768810Y-75255476D01*
X119006905Y-75255476D01*
X119102143Y-75303095D01*
X119149762Y-75350714D01*
X119197381Y-75445952D01*
X119197381Y-75731667D01*
X119149762Y-75826905D01*
X119102143Y-75874524D01*
X119197381Y-74779286D02*
X119197381Y-74588810D01*
X119149762Y-74493571D01*
X119102143Y-74445952D01*
X118959286Y-74350714D01*
X118768810Y-74303095D01*
X118387857Y-74303095D01*
X118292619Y-74350714D01*
X118245000Y-74398333D01*
X118197381Y-74493571D01*
X118197381Y-74684048D01*
X118245000Y-74779286D01*
X118292619Y-74826905D01*
X118387857Y-74874524D01*
X118625952Y-74874524D01*
X118721190Y-74826905D01*
X118768810Y-74779286D01*
X118816429Y-74684048D01*
X118816429Y-74493571D01*
X118768810Y-74398333D01*
X118721190Y-74350714D01*
X118625952Y-74303095D01*
X81732381Y-114942857D02*
X81256190Y-115276191D01*
X81732381Y-115514286D02*
X80732381Y-115514286D01*
X80732381Y-115133333D01*
X80780000Y-115038095D01*
X80827619Y-114990476D01*
X80922857Y-114942857D01*
X81065714Y-114942857D01*
X81160952Y-114990476D01*
X81208571Y-115038095D01*
X81256190Y-115133333D01*
X81256190Y-115514286D01*
X81065714Y-114085714D02*
X81732381Y-114085714D01*
X80684762Y-114323810D02*
X81399048Y-114561905D01*
X81399048Y-113942857D01*
X80732381Y-113371429D02*
X80732381Y-113276190D01*
X80780000Y-113180952D01*
X80827619Y-113133333D01*
X80922857Y-113085714D01*
X81113333Y-113038095D01*
X81351429Y-113038095D01*
X81541905Y-113085714D01*
X81637143Y-113133333D01*
X81684762Y-113180952D01*
X81732381Y-113276190D01*
X81732381Y-113371429D01*
X81684762Y-113466667D01*
X81637143Y-113514286D01*
X81541905Y-113561905D01*
X81351429Y-113609524D01*
X81113333Y-113609524D01*
X80922857Y-113561905D01*
X80827619Y-113514286D01*
X80780000Y-113466667D01*
X80732381Y-113371429D01*
X88590381Y-103258857D02*
X88114190Y-103592191D01*
X88590381Y-103830286D02*
X87590381Y-103830286D01*
X87590381Y-103449333D01*
X87638000Y-103354095D01*
X87685619Y-103306476D01*
X87780857Y-103258857D01*
X87923714Y-103258857D01*
X88018952Y-103306476D01*
X88066571Y-103354095D01*
X88114190Y-103449333D01*
X88114190Y-103830286D01*
X87923714Y-102401714D02*
X88590381Y-102401714D01*
X87542762Y-102639810D02*
X88257048Y-102877905D01*
X88257048Y-102258857D01*
X88590381Y-101354095D02*
X88590381Y-101925524D01*
X88590381Y-101639810D02*
X87590381Y-101639810D01*
X87733238Y-101735048D01*
X87828476Y-101830286D01*
X87876095Y-101925524D01*
X75128381Y-106052857D02*
X74652190Y-106386191D01*
X75128381Y-106624286D02*
X74128381Y-106624286D01*
X74128381Y-106243333D01*
X74176000Y-106148095D01*
X74223619Y-106100476D01*
X74318857Y-106052857D01*
X74461714Y-106052857D01*
X74556952Y-106100476D01*
X74604571Y-106148095D01*
X74652190Y-106243333D01*
X74652190Y-106624286D01*
X74461714Y-105195714D02*
X75128381Y-105195714D01*
X74080762Y-105433810D02*
X74795048Y-105671905D01*
X74795048Y-105052857D01*
X74223619Y-104719524D02*
X74176000Y-104671905D01*
X74128381Y-104576667D01*
X74128381Y-104338571D01*
X74176000Y-104243333D01*
X74223619Y-104195714D01*
X74318857Y-104148095D01*
X74414095Y-104148095D01*
X74556952Y-104195714D01*
X75128381Y-104767143D01*
X75128381Y-104148095D01*
X84272381Y-114942857D02*
X83796190Y-115276191D01*
X84272381Y-115514286D02*
X83272381Y-115514286D01*
X83272381Y-115133333D01*
X83320000Y-115038095D01*
X83367619Y-114990476D01*
X83462857Y-114942857D01*
X83605714Y-114942857D01*
X83700952Y-114990476D01*
X83748571Y-115038095D01*
X83796190Y-115133333D01*
X83796190Y-115514286D01*
X83605714Y-114085714D02*
X84272381Y-114085714D01*
X83224762Y-114323810D02*
X83939048Y-114561905D01*
X83939048Y-113942857D01*
X83272381Y-113657143D02*
X83272381Y-113038095D01*
X83653333Y-113371429D01*
X83653333Y-113228571D01*
X83700952Y-113133333D01*
X83748571Y-113085714D01*
X83843810Y-113038095D01*
X84081905Y-113038095D01*
X84177143Y-113085714D01*
X84224762Y-113133333D01*
X84272381Y-113228571D01*
X84272381Y-113514286D01*
X84224762Y-113609524D01*
X84177143Y-113657143D01*
X90855354Y-115903877D02*
X90609774Y-115377038D01*
X90292607Y-115804650D02*
X90466255Y-114819842D01*
X90841420Y-114885994D01*
X90926942Y-114949427D01*
X90965569Y-115004592D01*
X90995927Y-115106652D01*
X90971120Y-115247339D01*
X90907686Y-115332861D01*
X90852522Y-115371487D01*
X90750462Y-115401845D01*
X90375296Y-115335693D01*
X91815241Y-115396180D02*
X91699475Y-116052719D01*
X91646914Y-114979670D02*
X91288401Y-115641760D01*
X91898045Y-115749257D01*
X92753153Y-115561559D02*
X92637388Y-116218098D01*
X92584826Y-115145050D02*
X92226314Y-115807139D01*
X92835957Y-115914636D01*
X66286143Y-102433381D02*
X65952809Y-101957190D01*
X65714714Y-102433381D02*
X65714714Y-101433381D01*
X66095667Y-101433381D01*
X66190905Y-101481000D01*
X66238524Y-101528619D01*
X66286143Y-101623857D01*
X66286143Y-101766714D01*
X66238524Y-101861952D01*
X66190905Y-101909571D01*
X66095667Y-101957190D01*
X65714714Y-101957190D01*
X67143286Y-101766714D02*
X67143286Y-102433381D01*
X66905190Y-101385762D02*
X66667095Y-102100048D01*
X67286143Y-102100048D01*
X68143286Y-101433381D02*
X67667095Y-101433381D01*
X67619476Y-101909571D01*
X67667095Y-101861952D01*
X67762333Y-101814333D01*
X68000429Y-101814333D01*
X68095667Y-101861952D01*
X68143286Y-101909571D01*
X68190905Y-102004810D01*
X68190905Y-102242905D01*
X68143286Y-102338143D01*
X68095667Y-102385762D01*
X68000429Y-102433381D01*
X67762333Y-102433381D01*
X67667095Y-102385762D01*
X67619476Y-102338143D01*
X65984381Y-94876857D02*
X65508190Y-95210191D01*
X65984381Y-95448286D02*
X64984381Y-95448286D01*
X64984381Y-95067333D01*
X65032000Y-94972095D01*
X65079619Y-94924476D01*
X65174857Y-94876857D01*
X65317714Y-94876857D01*
X65412952Y-94924476D01*
X65460571Y-94972095D01*
X65508190Y-95067333D01*
X65508190Y-95448286D01*
X65317714Y-94019714D02*
X65984381Y-94019714D01*
X64936762Y-94257810D02*
X65651048Y-94495905D01*
X65651048Y-93876857D01*
X64984381Y-93067333D02*
X64984381Y-93257810D01*
X65032000Y-93353048D01*
X65079619Y-93400667D01*
X65222476Y-93495905D01*
X65412952Y-93543524D01*
X65793905Y-93543524D01*
X65889143Y-93495905D01*
X65936762Y-93448286D01*
X65984381Y-93353048D01*
X65984381Y-93162571D01*
X65936762Y-93067333D01*
X65889143Y-93019714D01*
X65793905Y-92972095D01*
X65555810Y-92972095D01*
X65460571Y-93019714D01*
X65412952Y-93067333D01*
X65365333Y-93162571D01*
X65365333Y-93353048D01*
X65412952Y-93448286D01*
X65460571Y-93495905D01*
X65555810Y-93543524D01*
X63444381Y-94876857D02*
X62968190Y-95210191D01*
X63444381Y-95448286D02*
X62444381Y-95448286D01*
X62444381Y-95067333D01*
X62492000Y-94972095D01*
X62539619Y-94924476D01*
X62634857Y-94876857D01*
X62777714Y-94876857D01*
X62872952Y-94924476D01*
X62920571Y-94972095D01*
X62968190Y-95067333D01*
X62968190Y-95448286D01*
X62777714Y-94019714D02*
X63444381Y-94019714D01*
X62396762Y-94257810D02*
X63111048Y-94495905D01*
X63111048Y-93876857D01*
X62444381Y-93591143D02*
X62444381Y-92924476D01*
X63444381Y-93353048D01*
X66332381Y-76846666D02*
X65856190Y-77180000D01*
X66332381Y-77418095D02*
X65332381Y-77418095D01*
X65332381Y-77037142D01*
X65380000Y-76941904D01*
X65427619Y-76894285D01*
X65522857Y-76846666D01*
X65665714Y-76846666D01*
X65760952Y-76894285D01*
X65808571Y-76941904D01*
X65856190Y-77037142D01*
X65856190Y-77418095D01*
X66332381Y-76418095D02*
X65332381Y-76418095D01*
X65332381Y-76037142D01*
X65380000Y-75941904D01*
X65427619Y-75894285D01*
X65522857Y-75846666D01*
X65665714Y-75846666D01*
X65760952Y-75894285D01*
X65808571Y-75941904D01*
X65856190Y-76037142D01*
X65856190Y-76418095D01*
X66332381Y-74894285D02*
X66332381Y-75465714D01*
X66332381Y-75180000D02*
X65332381Y-75180000D01*
X65475238Y-75275238D01*
X65570476Y-75370476D01*
X65618095Y-75465714D01*
X64270095Y-40409762D02*
X64412952Y-40457381D01*
X64651048Y-40457381D01*
X64746286Y-40409762D01*
X64793905Y-40362143D01*
X64841524Y-40266905D01*
X64841524Y-40171667D01*
X64793905Y-40076429D01*
X64746286Y-40028810D01*
X64651048Y-39981190D01*
X64460571Y-39933571D01*
X64365333Y-39885952D01*
X64317714Y-39838333D01*
X64270095Y-39743095D01*
X64270095Y-39647857D01*
X64317714Y-39552619D01*
X64365333Y-39505000D01*
X64460571Y-39457381D01*
X64698667Y-39457381D01*
X64841524Y-39505000D01*
X65270095Y-40457381D02*
X65270095Y-39457381D01*
X65651048Y-39457381D01*
X65746286Y-39505000D01*
X65793905Y-39552619D01*
X65841524Y-39647857D01*
X65841524Y-39790714D01*
X65793905Y-39885952D01*
X65746286Y-39933571D01*
X65651048Y-39981190D01*
X65270095Y-39981190D01*
X66793905Y-40457381D02*
X66222476Y-40457381D01*
X66508190Y-40457381D02*
X66508190Y-39457381D01*
X66412952Y-39600238D01*
X66317714Y-39695476D01*
X66222476Y-39743095D01*
X183388095Y-109942381D02*
X183959524Y-109942381D01*
X183673809Y-110942381D02*
X183673809Y-109942381D01*
X184816667Y-110942381D02*
X184245238Y-110942381D01*
X184530952Y-110942381D02*
X184530952Y-109942381D01*
X184435714Y-110085238D01*
X184340476Y-110180476D01*
X184245238Y-110228095D01*
X198918286Y-65123786D02*
X197829714Y-65123786D01*
X198374000Y-65123786D02*
X198374000Y-63218786D01*
X198192571Y-63490929D01*
X198011143Y-63672357D01*
X197829714Y-63763071D01*
X74168095Y-44537381D02*
X74168095Y-45346905D01*
X74215714Y-45442143D01*
X74263333Y-45489762D01*
X74358571Y-45537381D01*
X74549048Y-45537381D01*
X74644286Y-45489762D01*
X74691905Y-45442143D01*
X74739524Y-45346905D01*
X74739524Y-44537381D01*
X75739524Y-45537381D02*
X75168095Y-45537381D01*
X75453809Y-45537381D02*
X75453809Y-44537381D01*
X75358571Y-44680238D01*
X75263333Y-44775476D01*
X75168095Y-44823095D01*
X80518095Y-101052381D02*
X80518095Y-101861905D01*
X80565714Y-101957143D01*
X80613333Y-102004762D01*
X80708571Y-102052381D01*
X80899048Y-102052381D01*
X80994286Y-102004762D01*
X81041905Y-101957143D01*
X81089524Y-101861905D01*
X81089524Y-101052381D01*
X81518095Y-101147619D02*
X81565714Y-101100000D01*
X81660952Y-101052381D01*
X81899048Y-101052381D01*
X81994286Y-101100000D01*
X82041905Y-101147619D01*
X82089524Y-101242857D01*
X82089524Y-101338095D01*
X82041905Y-101480952D01*
X81470476Y-102052381D01*
X82089524Y-102052381D01*
X85812381Y-67436905D02*
X86621905Y-67436905D01*
X86717143Y-67389286D01*
X86764762Y-67341667D01*
X86812381Y-67246429D01*
X86812381Y-67055952D01*
X86764762Y-66960714D01*
X86717143Y-66913095D01*
X86621905Y-66865476D01*
X85812381Y-66865476D01*
X85812381Y-66484524D02*
X85812381Y-65865476D01*
X86193333Y-66198810D01*
X86193333Y-66055952D01*
X86240952Y-65960714D01*
X86288571Y-65913095D01*
X86383810Y-65865476D01*
X86621905Y-65865476D01*
X86717143Y-65913095D01*
X86764762Y-65960714D01*
X86812381Y-66055952D01*
X86812381Y-66341667D01*
X86764762Y-66436905D01*
X86717143Y-66484524D01*
X88900095Y-95210381D02*
X88900095Y-96019905D01*
X88947714Y-96115143D01*
X88995333Y-96162762D01*
X89090571Y-96210381D01*
X89281048Y-96210381D01*
X89376286Y-96162762D01*
X89423905Y-96115143D01*
X89471524Y-96019905D01*
X89471524Y-95210381D01*
X90376286Y-95543714D02*
X90376286Y-96210381D01*
X90138190Y-95162762D02*
X89900095Y-95877048D01*
X90519143Y-95877048D01*
X60793334Y-54967143D02*
X60745715Y-55014762D01*
X60602858Y-55062381D01*
X60507620Y-55062381D01*
X60364762Y-55014762D01*
X60269524Y-54919524D01*
X60221905Y-54824286D01*
X60174286Y-54633810D01*
X60174286Y-54490952D01*
X60221905Y-54300476D01*
X60269524Y-54205238D01*
X60364762Y-54110000D01*
X60507620Y-54062381D01*
X60602858Y-54062381D01*
X60745715Y-54110000D01*
X60793334Y-54157619D01*
X61745715Y-55062381D02*
X61174286Y-55062381D01*
X61460000Y-55062381D02*
X61460000Y-54062381D01*
X61364762Y-54205238D01*
X61269524Y-54300476D01*
X61174286Y-54348095D01*
X121257143Y-103116666D02*
X121304762Y-103164285D01*
X121352381Y-103307142D01*
X121352381Y-103402380D01*
X121304762Y-103545238D01*
X121209524Y-103640476D01*
X121114286Y-103688095D01*
X120923810Y-103735714D01*
X120780952Y-103735714D01*
X120590476Y-103688095D01*
X120495238Y-103640476D01*
X120400000Y-103545238D01*
X120352381Y-103402380D01*
X120352381Y-103307142D01*
X120400000Y-103164285D01*
X120447619Y-103116666D01*
X120447619Y-102735714D02*
X120400000Y-102688095D01*
X120352381Y-102592857D01*
X120352381Y-102354761D01*
X120400000Y-102259523D01*
X120447619Y-102211904D01*
X120542857Y-102164285D01*
X120638095Y-102164285D01*
X120780952Y-102211904D01*
X121352381Y-102783333D01*
X121352381Y-102164285D01*
D13*
X140425714Y-118820476D02*
X140425714Y-111079524D01*
X144296190Y-114950000D02*
X136555238Y-114950000D01*
D11*
X183348334Y-119737143D02*
X183300715Y-119784762D01*
X183157858Y-119832381D01*
X183062620Y-119832381D01*
X182919762Y-119784762D01*
X182824524Y-119689524D01*
X182776905Y-119594286D01*
X182729286Y-119403810D01*
X182729286Y-119260952D01*
X182776905Y-119070476D01*
X182824524Y-118975238D01*
X182919762Y-118880000D01*
X183062620Y-118832381D01*
X183157858Y-118832381D01*
X183300715Y-118880000D01*
X183348334Y-118927619D01*
X183681667Y-118832381D02*
X184300715Y-118832381D01*
X183967381Y-119213333D01*
X184110239Y-119213333D01*
X184205477Y-119260952D01*
X184253096Y-119308571D01*
X184300715Y-119403810D01*
X184300715Y-119641905D01*
X184253096Y-119737143D01*
X184205477Y-119784762D01*
X184110239Y-119832381D01*
X183824524Y-119832381D01*
X183729286Y-119784762D01*
X183681667Y-119737143D01*
X152162143Y-118931666D02*
X152209762Y-118979285D01*
X152257381Y-119122142D01*
X152257381Y-119217380D01*
X152209762Y-119360238D01*
X152114524Y-119455476D01*
X152019286Y-119503095D01*
X151828810Y-119550714D01*
X151685952Y-119550714D01*
X151495476Y-119503095D01*
X151400238Y-119455476D01*
X151305000Y-119360238D01*
X151257381Y-119217380D01*
X151257381Y-119122142D01*
X151305000Y-118979285D01*
X151352619Y-118931666D01*
X151590714Y-118074523D02*
X152257381Y-118074523D01*
X151209762Y-118312619D02*
X151924048Y-118550714D01*
X151924048Y-117931666D01*
X89241334Y-119864143D02*
X89193715Y-119911762D01*
X89050858Y-119959381D01*
X88955620Y-119959381D01*
X88812762Y-119911762D01*
X88717524Y-119816524D01*
X88669905Y-119721286D01*
X88622286Y-119530810D01*
X88622286Y-119387952D01*
X88669905Y-119197476D01*
X88717524Y-119102238D01*
X88812762Y-119007000D01*
X88955620Y-118959381D01*
X89050858Y-118959381D01*
X89193715Y-119007000D01*
X89241334Y-119054619D01*
X90146096Y-118959381D02*
X89669905Y-118959381D01*
X89622286Y-119435571D01*
X89669905Y-119387952D01*
X89765143Y-119340333D01*
X90003239Y-119340333D01*
X90098477Y-119387952D01*
X90146096Y-119435571D01*
X90193715Y-119530810D01*
X90193715Y-119768905D01*
X90146096Y-119864143D01*
X90098477Y-119911762D01*
X90003239Y-119959381D01*
X89765143Y-119959381D01*
X89669905Y-119911762D01*
X89622286Y-119864143D01*
X71223143Y-106973666D02*
X71270762Y-107021285D01*
X71318381Y-107164142D01*
X71318381Y-107259380D01*
X71270762Y-107402238D01*
X71175524Y-107497476D01*
X71080286Y-107545095D01*
X70889810Y-107592714D01*
X70746952Y-107592714D01*
X70556476Y-107545095D01*
X70461238Y-107497476D01*
X70366000Y-107402238D01*
X70318381Y-107259380D01*
X70318381Y-107164142D01*
X70366000Y-107021285D01*
X70413619Y-106973666D01*
X70318381Y-106116523D02*
X70318381Y-106307000D01*
X70366000Y-106402238D01*
X70413619Y-106449857D01*
X70556476Y-106545095D01*
X70746952Y-106592714D01*
X71127905Y-106592714D01*
X71223143Y-106545095D01*
X71270762Y-106497476D01*
X71318381Y-106402238D01*
X71318381Y-106211761D01*
X71270762Y-106116523D01*
X71223143Y-106068904D01*
X71127905Y-106021285D01*
X70889810Y-106021285D01*
X70794571Y-106068904D01*
X70746952Y-106116523D01*
X70699333Y-106211761D01*
X70699333Y-106402238D01*
X70746952Y-106497476D01*
X70794571Y-106545095D01*
X70889810Y-106592714D01*
X67921143Y-88812666D02*
X67968762Y-88860285D01*
X68016381Y-89003142D01*
X68016381Y-89098380D01*
X67968762Y-89241238D01*
X67873524Y-89336476D01*
X67778286Y-89384095D01*
X67587810Y-89431714D01*
X67444952Y-89431714D01*
X67254476Y-89384095D01*
X67159238Y-89336476D01*
X67064000Y-89241238D01*
X67016381Y-89098380D01*
X67016381Y-89003142D01*
X67064000Y-88860285D01*
X67111619Y-88812666D01*
X67016381Y-88479333D02*
X67016381Y-87812666D01*
X68016381Y-88241238D01*
X70953334Y-95480143D02*
X70905715Y-95527762D01*
X70762858Y-95575381D01*
X70667620Y-95575381D01*
X70524762Y-95527762D01*
X70429524Y-95432524D01*
X70381905Y-95337286D01*
X70334286Y-95146810D01*
X70334286Y-95003952D01*
X70381905Y-94813476D01*
X70429524Y-94718238D01*
X70524762Y-94623000D01*
X70667620Y-94575381D01*
X70762858Y-94575381D01*
X70905715Y-94623000D01*
X70953334Y-94670619D01*
X71524762Y-95003952D02*
X71429524Y-94956333D01*
X71381905Y-94908714D01*
X71334286Y-94813476D01*
X71334286Y-94765857D01*
X71381905Y-94670619D01*
X71429524Y-94623000D01*
X71524762Y-94575381D01*
X71715239Y-94575381D01*
X71810477Y-94623000D01*
X71858096Y-94670619D01*
X71905715Y-94765857D01*
X71905715Y-94813476D01*
X71858096Y-94908714D01*
X71810477Y-94956333D01*
X71715239Y-95003952D01*
X71524762Y-95003952D01*
X71429524Y-95051571D01*
X71381905Y-95099190D01*
X71334286Y-95194429D01*
X71334286Y-95384905D01*
X71381905Y-95480143D01*
X71429524Y-95527762D01*
X71524762Y-95575381D01*
X71715239Y-95575381D01*
X71810477Y-95527762D01*
X71858096Y-95480143D01*
X71905715Y-95384905D01*
X71905715Y-95194429D01*
X71858096Y-95099190D01*
X71810477Y-95051571D01*
X71715239Y-95003952D01*
X212026667Y-49528362D02*
X212169524Y-49575981D01*
X212407620Y-49575981D01*
X212502858Y-49528362D01*
X212550477Y-49480743D01*
X212598096Y-49385505D01*
X212598096Y-49290267D01*
X212550477Y-49195029D01*
X212502858Y-49147410D01*
X212407620Y-49099790D01*
X212217143Y-49052171D01*
X212121905Y-49004552D01*
X212074286Y-48956933D01*
X212026667Y-48861695D01*
X212026667Y-48766457D01*
X212074286Y-48671219D01*
X212121905Y-48623600D01*
X212217143Y-48575981D01*
X212455239Y-48575981D01*
X212598096Y-48623600D01*
X212931429Y-48575981D02*
X213169524Y-49575981D01*
X213360001Y-48861695D01*
X213550477Y-49575981D01*
X213788572Y-48575981D01*
X214693334Y-49575981D02*
X214121905Y-49575981D01*
X214407619Y-49575981D02*
X214407619Y-48575981D01*
X214312381Y-48718838D01*
X214217143Y-48814076D01*
X214121905Y-48861695D01*
%LPC*%
D14*
X158750000Y-116205000D03*
X158750000Y-113665000D03*
X158750000Y-118745000D03*
D15*
X98044000Y-79202409D03*
X103124000Y-70403591D03*
D16*
X106661681Y-72349247D03*
X108294361Y-70403494D03*
X105029000Y-74295000D03*
X113792000Y-76200000D03*
X111252000Y-76200000D03*
X116332000Y-76200000D03*
X95885000Y-86995000D03*
X98425000Y-86995000D03*
X93345000Y-86995000D03*
D17*
X169545000Y-109855000D03*
X164465000Y-109855000D03*
X164465000Y-102235000D03*
X169545000Y-102235000D03*
D18*
X207645000Y-119380000D03*
D19*
X207645000Y-111760000D03*
D18*
X95250000Y-108585000D03*
D19*
X95250000Y-100965000D03*
D18*
X93091000Y-98171000D03*
D19*
X93091000Y-90551000D03*
D18*
X102235000Y-108585000D03*
D19*
X102235000Y-100965000D03*
D18*
X101727000Y-96901000D03*
D19*
X101727000Y-89281000D03*
D18*
X109220000Y-108585000D03*
D19*
X109220000Y-100965000D03*
D18*
X109855000Y-95377000D03*
D19*
X109855000Y-87757000D03*
D18*
X117983000Y-108839000D03*
D19*
X117983000Y-101219000D03*
D18*
X117348000Y-94107000D03*
D19*
X117348000Y-86487000D03*
D20*
X214630000Y-53340000D03*
X214630000Y-58420000D03*
X222250000Y-58420000D03*
X222250000Y-53340000D03*
X147955000Y-82550000D03*
X153035000Y-82550000D03*
X153035000Y-74930000D03*
X147955000Y-74930000D03*
D21*
X64540000Y-116570000D03*
X66540000Y-116570000D03*
X62540000Y-116570000D03*
X60540000Y-116570000D03*
X58540000Y-116570000D03*
X56540000Y-116570000D03*
X57540000Y-114570000D03*
X59540000Y-114570000D03*
X61540000Y-114570000D03*
X63540000Y-114570000D03*
X65540000Y-114570000D03*
X67540000Y-114570000D03*
X68540000Y-116570000D03*
X69540000Y-114570000D03*
X70540000Y-116570000D03*
X71540000Y-114570000D03*
X72540000Y-116570000D03*
X73540000Y-114570000D03*
X74540000Y-116570000D03*
X75540000Y-114570000D03*
D20*
X219075000Y-118745000D03*
X213075000Y-116745000D03*
X213075000Y-104545000D03*
X225075000Y-116745000D03*
D22*
X53340000Y-55245000D03*
D23*
X53340000Y-57785000D03*
D24*
X66040000Y-62230000D03*
D25*
X63500000Y-62230000D03*
X60960000Y-62230000D03*
X58420000Y-62230000D03*
X55880000Y-62230000D03*
X53340000Y-62230000D03*
D24*
X137668000Y-80899000D03*
D25*
X135128000Y-80899000D03*
X132588000Y-80899000D03*
X130048000Y-80899000D03*
D22*
X95631000Y-82423000D03*
D23*
X98171000Y-82423000D03*
D16*
X196850000Y-114935000D03*
X196850000Y-112395000D03*
X199390000Y-114935000D03*
X199390000Y-112395000D03*
X201930000Y-114935000D03*
X201930000Y-112395000D03*
X187325000Y-114935000D03*
X187325000Y-112395000D03*
X189865000Y-114935000D03*
X189865000Y-112395000D03*
X192405000Y-114935000D03*
X192405000Y-112395000D03*
X78105000Y-41275000D03*
X80645000Y-41275000D03*
X75565000Y-41275000D03*
D26*
X205480000Y-106045000D03*
X203200000Y-106045000D03*
X200920000Y-106045000D03*
X90805000Y-102495000D03*
X90805000Y-104775000D03*
X90805000Y-107055000D03*
X97790000Y-96387000D03*
X97790000Y-94107000D03*
X97790000Y-91827000D03*
D16*
X104013000Y-80010000D03*
X101473000Y-80010000D03*
X106553000Y-80010000D03*
D26*
X98425000Y-101225000D03*
X98425000Y-103505000D03*
X98425000Y-105785000D03*
X105918000Y-95625000D03*
X105918000Y-93345000D03*
X105918000Y-91065000D03*
D16*
X103378000Y-85344000D03*
X105918000Y-85344000D03*
X100838000Y-85344000D03*
X114300000Y-83185000D03*
X114300000Y-85725000D03*
X114300000Y-80645000D03*
D26*
X105410000Y-101225000D03*
X105410000Y-103505000D03*
X105410000Y-105785000D03*
X114046000Y-94863000D03*
X114046000Y-92583000D03*
X114046000Y-90303000D03*
D16*
X109855000Y-81915000D03*
X109855000Y-84455000D03*
X109855000Y-79375000D03*
D26*
X114173000Y-101606000D03*
X114173000Y-103886000D03*
X114173000Y-106166000D03*
X121158000Y-93466000D03*
X121158000Y-91186000D03*
X121158000Y-88906000D03*
D16*
X124460000Y-85725000D03*
X124460000Y-88265000D03*
X124460000Y-83185000D03*
X80010000Y-106045000D03*
X82550000Y-106045000D03*
X77470000Y-106045000D03*
D15*
X60452000Y-89154000D03*
X60452000Y-99314000D03*
X57150000Y-58420000D03*
X67310000Y-58420000D03*
X92075000Y-45720000D03*
X81915000Y-45720000D03*
X92075000Y-58928000D03*
X81915000Y-58928000D03*
X92075000Y-53340000D03*
X81915000Y-53340000D03*
X92075000Y-55880000D03*
X81915000Y-55880000D03*
X81915000Y-43180000D03*
X92075000Y-43180000D03*
X82423000Y-74930000D03*
X92583000Y-74930000D03*
X81915000Y-77470000D03*
X92075000Y-77470000D03*
X92075000Y-80010000D03*
X81915000Y-80010000D03*
X92075000Y-82550000D03*
X81915000Y-82550000D03*
X87884000Y-85725000D03*
X77724000Y-85725000D03*
X85090000Y-88265000D03*
X74930000Y-88265000D03*
X78740000Y-119380000D03*
X78740000Y-109220000D03*
X195834000Y-102235000D03*
X205994000Y-102235000D03*
X193675000Y-119380000D03*
X203835000Y-119380000D03*
X190088301Y-120238301D03*
X179481699Y-109631699D03*
X92075000Y-50800000D03*
X81915000Y-50800000D03*
X95123000Y-79075409D03*
X100203000Y-70276591D03*
X92075000Y-48260000D03*
X81915000Y-48260000D03*
X125095000Y-70485000D03*
X125095000Y-80645000D03*
X142875000Y-72390000D03*
X132715000Y-72390000D03*
X130810000Y-74930000D03*
X140970000Y-74930000D03*
X104285191Y-117415000D03*
X91294809Y-109915000D03*
X111270191Y-117415000D03*
X98279809Y-109915000D03*
X118255191Y-117415000D03*
X105264809Y-109915000D03*
X125240191Y-117415000D03*
X112249809Y-109915000D03*
X121920000Y-80645000D03*
X121920000Y-70485000D03*
X106471494Y-77052361D03*
X114254506Y-70521639D03*
X118745000Y-80645000D03*
X118745000Y-70485000D03*
X81280000Y-109220000D03*
X81280000Y-119380000D03*
X88138000Y-97536000D03*
X88138000Y-107696000D03*
X74676000Y-110490000D03*
X74676000Y-100330000D03*
X83820000Y-119380000D03*
X83820000Y-109220000D03*
X86564177Y-114687867D03*
X96569823Y-116452133D03*
X61849000Y-101981000D03*
X72009000Y-101981000D03*
X65532000Y-99314000D03*
X65532000Y-89154000D03*
X62992000Y-89154000D03*
X62992000Y-99314000D03*
D27*
X55880000Y-67310000D03*
D28*
X63500000Y-67310000D03*
X55880000Y-69850000D03*
X63500000Y-69850000D03*
X55880000Y-72390000D03*
X63500000Y-72390000D03*
X55880000Y-74930000D03*
X63500000Y-74930000D03*
X55880000Y-77470000D03*
X63500000Y-77470000D03*
X55880000Y-80010000D03*
X63500000Y-80010000D03*
X55880000Y-82550000D03*
X63500000Y-82550000D03*
X55880000Y-85090000D03*
X63500000Y-85090000D03*
D14*
X55920000Y-45720000D03*
X60920000Y-45720000D03*
D29*
X202692000Y-64770000D03*
X202692000Y-74930000D03*
X202692000Y-85090000D03*
X202692000Y-95250000D03*
X165608000Y-64770000D03*
X165608000Y-74930000D03*
X165608000Y-85090000D03*
X165608000Y-95250000D03*
D17*
X78740000Y-81280000D03*
X78740000Y-78740000D03*
X78740000Y-76200000D03*
X78740000Y-73660000D03*
X78740000Y-71120000D03*
X78740000Y-68580000D03*
X78740000Y-66040000D03*
X78740000Y-63500000D03*
X78740000Y-60960000D03*
X78740000Y-58420000D03*
X78740000Y-55880000D03*
X78740000Y-53340000D03*
X78740000Y-50800000D03*
X78740000Y-48260000D03*
X71120000Y-48260000D03*
X71120000Y-50800000D03*
X71120000Y-53340000D03*
X71120000Y-55880000D03*
X71120000Y-58420000D03*
X71120000Y-60960000D03*
X71120000Y-63500000D03*
X71120000Y-66040000D03*
X71120000Y-68580000D03*
X71120000Y-71120000D03*
X71120000Y-73660000D03*
X71120000Y-76200000D03*
X71120000Y-78740000D03*
X71120000Y-81280000D03*
X77470000Y-92710000D03*
X77470000Y-95250000D03*
X77470000Y-97790000D03*
X77470000Y-100330000D03*
X85090000Y-100330000D03*
X85090000Y-97790000D03*
X85090000Y-95250000D03*
X85090000Y-92710000D03*
X82550000Y-62865000D03*
X82550000Y-65405000D03*
X82550000Y-67945000D03*
X82550000Y-70485000D03*
X90170000Y-70485000D03*
X90170000Y-67945000D03*
X90170000Y-65405000D03*
X90170000Y-62865000D03*
D16*
X89535000Y-91440000D03*
X89535000Y-88900000D03*
X89535000Y-93980000D03*
D30*
X66040000Y-54610000D03*
D31*
X63540000Y-54610000D03*
D32*
X139700000Y-107950000D03*
D20*
X139700000Y-97950000D03*
D33*
X186055000Y-119380000D03*
D34*
X181055000Y-119380000D03*
D30*
X154305000Y-120015000D03*
D31*
X154305000Y-117515000D03*
D33*
X86741000Y-119380000D03*
D34*
X91741000Y-119380000D03*
D33*
X70866000Y-109347000D03*
D34*
X70866000Y-104347000D03*
D33*
X67691000Y-85979000D03*
D34*
X67691000Y-90979000D03*
D33*
X68580000Y-95123000D03*
D34*
X73580000Y-95123000D03*
D35*
X213360000Y-45313600D03*
X220345000Y-45313600D03*
D36*
X222885000Y-90170000D03*
X222885000Y-80645000D03*
X222885000Y-71120000D03*
D37*
X148590000Y-110490000D03*
X148590000Y-103505000D03*
X181610000Y-106680000D03*
X178435000Y-106045000D03*
X70485000Y-84201000D03*
X72136000Y-84201000D03*
X73787000Y-84201000D03*
X67564000Y-106680000D03*
X88646000Y-82296000D03*
X92583000Y-70866000D03*
X100203000Y-75184000D03*
X66040000Y-50546000D03*
X67564000Y-82804000D03*
D38*
X177150000Y-51559993D03*
X184150000Y-51559993D03*
X191150000Y-51559993D03*
D39*
X203900000Y-44259993D03*
X164400000Y-44259993D03*
M02*
