G04 #@! TF.FileFunction,Legend,Bot*
%FSLAX46Y46*%
G04 Gerber Fmt 4.6, Leading zero omitted, Abs format (unit mm)*
G04 Created by KiCad (PCBNEW 4.0.1-3.201512221402+6198~38~ubuntu15.04.1-stable) date Tue 02 Feb 2016 09:09:18 AM EST*
%MOMM*%
G01*
G04 APERTURE LIST*
%ADD10C,0.100000*%
%ADD11C,0.150000*%
%ADD12C,0.254000*%
%ADD13C,2.305000*%
%ADD14C,2.398980*%
%ADD15C,1.924000*%
%ADD16O,2.000000X2.000000*%
%ADD17R,1.797000X1.797000*%
%ADD18C,1.797000*%
%ADD19C,2.940000*%
%ADD20C,1.900000*%
%ADD21R,2.432000X2.432000*%
%ADD22O,2.432000X2.432000*%
%ADD23R,2.127200X2.432000*%
%ADD24O,2.127200X2.432000*%
%ADD25C,2.178000*%
%ADD26R,2.224000X1.924000*%
%ADD27O,2.224000X1.924000*%
%ADD28C,5.480000*%
%ADD29R,1.700000X1.700000*%
%ADD30C,1.700000*%
%ADD31R,2.940000X2.940000*%
%ADD32R,1.800000X1.800000*%
%ADD33C,1.800000*%
%ADD34C,3.448000*%
%ADD35C,3.702000*%
%ADD36C,1.543000*%
%ADD37C,4.210000*%
%ADD38C,6.750000*%
G04 APERTURE END LIST*
D10*
D11*
X171450000Y-107315000D02*
G75*
G02X171450000Y-104775000I1270000J1270000D01*
G01*
X171840000Y-109720000D02*
X170570000Y-109720000D01*
X171840000Y-102370000D02*
X170570000Y-102370000D01*
X162170000Y-102370000D02*
X163440000Y-102370000D01*
X162170000Y-109720000D02*
X163440000Y-109720000D01*
X171840000Y-109720000D02*
X171840000Y-102370000D01*
X162170000Y-109720000D02*
X162170000Y-102370000D01*
X170570000Y-109720000D02*
X170570000Y-110655000D01*
X189275128Y-117629077D02*
X187479077Y-119425128D01*
X187479077Y-119425128D02*
X180294872Y-112240923D01*
X180294872Y-112240923D02*
X182090923Y-110444872D01*
X182090923Y-110444872D02*
X189275128Y-117629077D01*
X180294872Y-110444872D02*
X181192898Y-111342898D01*
X189275128Y-119425128D02*
X188377102Y-118527102D01*
D12*
X227965000Y-97155000D02*
X227965000Y-64135000D01*
X227965000Y-64135000D02*
X208915000Y-64135000D01*
X208915000Y-64135000D02*
X208915000Y-97155000D01*
X208915000Y-97155000D02*
X227965000Y-97155000D01*
X174150000Y-51559993D02*
X159150000Y-51559993D01*
X159150000Y-51559993D02*
X159150000Y-41910000D01*
X209150000Y-51559993D02*
X194150000Y-51559993D01*
X209150000Y-41910000D02*
X209150000Y-51559993D01*
D11*
X175217381Y-109116905D02*
X174217381Y-109116905D01*
X174217381Y-109355000D01*
X174265000Y-109497858D01*
X174360238Y-109593096D01*
X174455476Y-109640715D01*
X174645952Y-109688334D01*
X174788810Y-109688334D01*
X174979286Y-109640715D01*
X175074524Y-109593096D01*
X175169762Y-109497858D01*
X175217381Y-109355000D01*
X175217381Y-109116905D01*
X175217381Y-110640715D02*
X175217381Y-110069286D01*
X175217381Y-110355000D02*
X174217381Y-110355000D01*
X174360238Y-110259762D01*
X174455476Y-110164524D01*
X174503095Y-110069286D01*
X183014687Y-113804450D02*
X183587107Y-113703435D01*
X183418748Y-114208512D02*
X184125855Y-113501405D01*
X183856481Y-113232030D01*
X183755465Y-113198359D01*
X183688122Y-113198359D01*
X183587107Y-113232030D01*
X183486092Y-113333045D01*
X183452420Y-113434061D01*
X183452420Y-113501404D01*
X183486092Y-113602419D01*
X183755466Y-113871794D01*
X183385076Y-112895313D02*
X183385076Y-112827970D01*
X183351405Y-112726955D01*
X183183045Y-112558595D01*
X183082030Y-112524924D01*
X183014687Y-112524924D01*
X182913672Y-112558595D01*
X182846328Y-112625939D01*
X182778985Y-112760626D01*
X182778985Y-113568748D01*
X182341252Y-113131015D01*
X182408595Y-111784145D02*
X182745313Y-112120863D01*
X182442268Y-112491252D01*
X182442268Y-112423908D01*
X182408596Y-112322893D01*
X182240237Y-112154534D01*
X182139222Y-112120862D01*
X182071878Y-112120862D01*
X181970862Y-112154535D01*
X181802504Y-112322893D01*
X181768832Y-112423908D01*
X181768832Y-112491252D01*
X181802504Y-112592267D01*
X181970863Y-112760626D01*
X182071878Y-112794298D01*
X182139222Y-112794298D01*
X218892381Y-79906905D02*
X217892381Y-79906905D01*
X217892381Y-80287858D01*
X217940000Y-80383096D01*
X217987619Y-80430715D01*
X218082857Y-80478334D01*
X218225714Y-80478334D01*
X218320952Y-80430715D01*
X218368571Y-80383096D01*
X218416190Y-80287858D01*
X218416190Y-79906905D01*
X218225714Y-81335477D02*
X218892381Y-81335477D01*
X217844762Y-81097381D02*
X218559048Y-80859286D01*
X218559048Y-81478334D01*
X184483333Y-41012374D02*
X184483333Y-41726660D01*
X184530953Y-41869517D01*
X184626191Y-41964755D01*
X184769048Y-42012374D01*
X184864286Y-42012374D01*
X183483333Y-42012374D02*
X184054762Y-42012374D01*
X183769048Y-42012374D02*
X183769048Y-41012374D01*
X183864286Y-41155231D01*
X183959524Y-41250469D01*
X184054762Y-41298088D01*
%LPC*%
D13*
X158750000Y-116205000D03*
X158750000Y-113665000D03*
X158750000Y-118745000D03*
D14*
X98044000Y-79202409D03*
X103124000Y-70403591D03*
D15*
X106661681Y-72349247D03*
X108294361Y-70403494D03*
X105029000Y-74295000D03*
X113792000Y-76200000D03*
X111252000Y-76200000D03*
X116332000Y-76200000D03*
X95885000Y-86995000D03*
X98425000Y-86995000D03*
X93345000Y-86995000D03*
D16*
X169545000Y-109855000D03*
X164465000Y-109855000D03*
X164465000Y-102235000D03*
X169545000Y-102235000D03*
D17*
X207645000Y-119380000D03*
D18*
X207645000Y-111760000D03*
D17*
X95250000Y-108585000D03*
D18*
X95250000Y-100965000D03*
D17*
X93091000Y-98171000D03*
D18*
X93091000Y-90551000D03*
D17*
X102235000Y-108585000D03*
D18*
X102235000Y-100965000D03*
D17*
X101727000Y-96901000D03*
D18*
X101727000Y-89281000D03*
D17*
X109220000Y-108585000D03*
D18*
X109220000Y-100965000D03*
D17*
X109855000Y-95377000D03*
D18*
X109855000Y-87757000D03*
D17*
X117983000Y-108839000D03*
D18*
X117983000Y-101219000D03*
D17*
X117348000Y-94107000D03*
D18*
X117348000Y-86487000D03*
D19*
X214630000Y-53340000D03*
X214630000Y-58420000D03*
X222250000Y-58420000D03*
X222250000Y-53340000D03*
X147955000Y-82550000D03*
X153035000Y-82550000D03*
X153035000Y-74930000D03*
X147955000Y-74930000D03*
D20*
X64540000Y-116570000D03*
X66540000Y-116570000D03*
X62540000Y-116570000D03*
X60540000Y-116570000D03*
X58540000Y-116570000D03*
X56540000Y-116570000D03*
X57540000Y-114570000D03*
X59540000Y-114570000D03*
X61540000Y-114570000D03*
X63540000Y-114570000D03*
X65540000Y-114570000D03*
X67540000Y-114570000D03*
X68540000Y-116570000D03*
X69540000Y-114570000D03*
X70540000Y-116570000D03*
X71540000Y-114570000D03*
X72540000Y-116570000D03*
X73540000Y-114570000D03*
X74540000Y-116570000D03*
X75540000Y-114570000D03*
D19*
X219075000Y-118745000D03*
X213075000Y-116745000D03*
X213075000Y-104545000D03*
X225075000Y-116745000D03*
D21*
X53340000Y-55245000D03*
D22*
X53340000Y-57785000D03*
D23*
X66040000Y-62230000D03*
D24*
X63500000Y-62230000D03*
X60960000Y-62230000D03*
X58420000Y-62230000D03*
X55880000Y-62230000D03*
X53340000Y-62230000D03*
D23*
X137668000Y-80899000D03*
D24*
X135128000Y-80899000D03*
X132588000Y-80899000D03*
X130048000Y-80899000D03*
D21*
X95631000Y-82423000D03*
D22*
X98171000Y-82423000D03*
D15*
X196850000Y-114935000D03*
X196850000Y-112395000D03*
X199390000Y-114935000D03*
X199390000Y-112395000D03*
X201930000Y-114935000D03*
X201930000Y-112395000D03*
X187325000Y-114935000D03*
X187325000Y-112395000D03*
X189865000Y-114935000D03*
X189865000Y-112395000D03*
X192405000Y-114935000D03*
X192405000Y-112395000D03*
X78105000Y-41275000D03*
X80645000Y-41275000D03*
X75565000Y-41275000D03*
D25*
X205480000Y-106045000D03*
X203200000Y-106045000D03*
X200920000Y-106045000D03*
X90805000Y-102495000D03*
X90805000Y-104775000D03*
X90805000Y-107055000D03*
X97790000Y-96387000D03*
X97790000Y-94107000D03*
X97790000Y-91827000D03*
D15*
X104013000Y-80010000D03*
X101473000Y-80010000D03*
X106553000Y-80010000D03*
D25*
X98425000Y-101225000D03*
X98425000Y-103505000D03*
X98425000Y-105785000D03*
X105918000Y-95625000D03*
X105918000Y-93345000D03*
X105918000Y-91065000D03*
D15*
X103378000Y-85344000D03*
X105918000Y-85344000D03*
X100838000Y-85344000D03*
X114300000Y-83185000D03*
X114300000Y-85725000D03*
X114300000Y-80645000D03*
D25*
X105410000Y-101225000D03*
X105410000Y-103505000D03*
X105410000Y-105785000D03*
X114046000Y-94863000D03*
X114046000Y-92583000D03*
X114046000Y-90303000D03*
D15*
X109855000Y-81915000D03*
X109855000Y-84455000D03*
X109855000Y-79375000D03*
D25*
X114173000Y-101606000D03*
X114173000Y-103886000D03*
X114173000Y-106166000D03*
X121158000Y-93466000D03*
X121158000Y-91186000D03*
X121158000Y-88906000D03*
D15*
X124460000Y-85725000D03*
X124460000Y-88265000D03*
X124460000Y-83185000D03*
X80010000Y-106045000D03*
X82550000Y-106045000D03*
X77470000Y-106045000D03*
D14*
X60452000Y-89154000D03*
X60452000Y-99314000D03*
X57150000Y-58420000D03*
X67310000Y-58420000D03*
X92075000Y-45720000D03*
X81915000Y-45720000D03*
X92075000Y-58928000D03*
X81915000Y-58928000D03*
X92075000Y-53340000D03*
X81915000Y-53340000D03*
X92075000Y-55880000D03*
X81915000Y-55880000D03*
X81915000Y-43180000D03*
X92075000Y-43180000D03*
X82423000Y-74930000D03*
X92583000Y-74930000D03*
X81915000Y-77470000D03*
X92075000Y-77470000D03*
X92075000Y-80010000D03*
X81915000Y-80010000D03*
X92075000Y-82550000D03*
X81915000Y-82550000D03*
X87884000Y-85725000D03*
X77724000Y-85725000D03*
X85090000Y-88265000D03*
X74930000Y-88265000D03*
X78740000Y-119380000D03*
X78740000Y-109220000D03*
X195834000Y-102235000D03*
X205994000Y-102235000D03*
X193675000Y-119380000D03*
X203835000Y-119380000D03*
X190088301Y-120238301D03*
X179481699Y-109631699D03*
X92075000Y-50800000D03*
X81915000Y-50800000D03*
X95123000Y-79075409D03*
X100203000Y-70276591D03*
X92075000Y-48260000D03*
X81915000Y-48260000D03*
X125095000Y-70485000D03*
X125095000Y-80645000D03*
X142875000Y-72390000D03*
X132715000Y-72390000D03*
X130810000Y-74930000D03*
X140970000Y-74930000D03*
X104285191Y-117415000D03*
X91294809Y-109915000D03*
X111270191Y-117415000D03*
X98279809Y-109915000D03*
X118255191Y-117415000D03*
X105264809Y-109915000D03*
X125240191Y-117415000D03*
X112249809Y-109915000D03*
X121920000Y-80645000D03*
X121920000Y-70485000D03*
X106471494Y-77052361D03*
X114254506Y-70521639D03*
X118745000Y-80645000D03*
X118745000Y-70485000D03*
X81280000Y-109220000D03*
X81280000Y-119380000D03*
X88138000Y-97536000D03*
X88138000Y-107696000D03*
X74676000Y-110490000D03*
X74676000Y-100330000D03*
X83820000Y-119380000D03*
X83820000Y-109220000D03*
X86564177Y-114687867D03*
X96569823Y-116452133D03*
X61849000Y-101981000D03*
X72009000Y-101981000D03*
X65532000Y-99314000D03*
X65532000Y-89154000D03*
X62992000Y-89154000D03*
X62992000Y-99314000D03*
D26*
X55880000Y-67310000D03*
D27*
X63500000Y-67310000D03*
X55880000Y-69850000D03*
X63500000Y-69850000D03*
X55880000Y-72390000D03*
X63500000Y-72390000D03*
X55880000Y-74930000D03*
X63500000Y-74930000D03*
X55880000Y-77470000D03*
X63500000Y-77470000D03*
X55880000Y-80010000D03*
X63500000Y-80010000D03*
X55880000Y-82550000D03*
X63500000Y-82550000D03*
X55880000Y-85090000D03*
X63500000Y-85090000D03*
D13*
X55920000Y-45720000D03*
X60920000Y-45720000D03*
D28*
X202692000Y-64770000D03*
X202692000Y-74930000D03*
X202692000Y-85090000D03*
X202692000Y-95250000D03*
X165608000Y-64770000D03*
X165608000Y-74930000D03*
X165608000Y-85090000D03*
X165608000Y-95250000D03*
D16*
X78740000Y-81280000D03*
X78740000Y-78740000D03*
X78740000Y-76200000D03*
X78740000Y-73660000D03*
X78740000Y-71120000D03*
X78740000Y-68580000D03*
X78740000Y-66040000D03*
X78740000Y-63500000D03*
X78740000Y-60960000D03*
X78740000Y-58420000D03*
X78740000Y-55880000D03*
X78740000Y-53340000D03*
X78740000Y-50800000D03*
X78740000Y-48260000D03*
X71120000Y-48260000D03*
X71120000Y-50800000D03*
X71120000Y-53340000D03*
X71120000Y-55880000D03*
X71120000Y-58420000D03*
X71120000Y-60960000D03*
X71120000Y-63500000D03*
X71120000Y-66040000D03*
X71120000Y-68580000D03*
X71120000Y-71120000D03*
X71120000Y-73660000D03*
X71120000Y-76200000D03*
X71120000Y-78740000D03*
X71120000Y-81280000D03*
X77470000Y-92710000D03*
X77470000Y-95250000D03*
X77470000Y-97790000D03*
X77470000Y-100330000D03*
X85090000Y-100330000D03*
X85090000Y-97790000D03*
X85090000Y-95250000D03*
X85090000Y-92710000D03*
X82550000Y-62865000D03*
X82550000Y-65405000D03*
X82550000Y-67945000D03*
X82550000Y-70485000D03*
X90170000Y-70485000D03*
X90170000Y-67945000D03*
X90170000Y-65405000D03*
X90170000Y-62865000D03*
D15*
X89535000Y-91440000D03*
X89535000Y-88900000D03*
X89535000Y-93980000D03*
D29*
X66040000Y-54610000D03*
D30*
X63540000Y-54610000D03*
D31*
X139700000Y-107950000D03*
D19*
X139700000Y-97950000D03*
D32*
X186055000Y-119380000D03*
D33*
X181055000Y-119380000D03*
D29*
X154305000Y-120015000D03*
D30*
X154305000Y-117515000D03*
D32*
X86741000Y-119380000D03*
D33*
X91741000Y-119380000D03*
D32*
X70866000Y-109347000D03*
D33*
X70866000Y-104347000D03*
D32*
X67691000Y-85979000D03*
D33*
X67691000Y-90979000D03*
D32*
X68580000Y-95123000D03*
D33*
X73580000Y-95123000D03*
D34*
X213360000Y-45313600D03*
X220345000Y-45313600D03*
D35*
X222885000Y-90170000D03*
X222885000Y-80645000D03*
X222885000Y-71120000D03*
D36*
X148590000Y-110490000D03*
X148590000Y-103505000D03*
X181610000Y-106680000D03*
X178435000Y-106045000D03*
X70485000Y-84201000D03*
X72136000Y-84201000D03*
X73787000Y-84201000D03*
X67564000Y-106680000D03*
X88646000Y-82296000D03*
X92583000Y-70866000D03*
X100203000Y-75184000D03*
X66040000Y-50546000D03*
X67564000Y-82804000D03*
D37*
X177150000Y-51559993D03*
X184150000Y-51559993D03*
X191150000Y-51559993D03*
D38*
X203900000Y-44259993D03*
X164400000Y-44259993D03*
M02*
