G04 #@! TF.FileFunction,Profile,NP*
%FSLAX46Y46*%
G04 Gerber Fmt 4.6, Leading zero omitted, Abs format (unit mm)*
G04 Created by KiCad (PCBNEW 4.0.1-3.201512221402+6198~38~ubuntu15.04.1-stable) date Tue 02 Feb 2016 09:09:18 AM EST*
%MOMM*%
G01*
G04 APERTURE LIST*
%ADD10C,0.100000*%
%ADD11C,0.150000*%
G04 APERTURE END LIST*
D10*
D11*
X168910000Y-121920000D02*
X50800000Y-121920000D01*
X173990000Y-116840000D02*
X173990000Y-121920000D01*
X168910000Y-116840000D02*
X173990000Y-116840000D01*
X168910000Y-121920000D02*
X168910000Y-116840000D01*
X72390000Y-38100000D02*
X95250000Y-38100000D01*
X72390000Y-43180000D02*
X72390000Y-38100000D01*
X67310000Y-43180000D02*
X72390000Y-43180000D01*
X67310000Y-38100000D02*
X67310000Y-43180000D01*
X50800000Y-121920000D02*
X50800000Y-109220000D01*
X56007000Y-109220000D02*
X50800000Y-109220000D01*
X56007000Y-104140000D02*
X56007000Y-109220000D01*
X50800000Y-104140000D02*
X56007000Y-104140000D01*
X50800000Y-38100000D02*
X50800000Y-104140000D01*
X228600000Y-121920000D02*
X173990000Y-121920000D01*
X67310000Y-38100000D02*
X50800000Y-38100000D01*
X95250000Y-67945000D02*
X95250000Y-38100000D01*
X158750000Y-67945000D02*
X95250000Y-67945000D01*
X158750000Y-38100000D02*
X158750000Y-67945000D01*
X228600000Y-38100000D02*
X228600000Y-121920000D01*
X158750000Y-38100000D02*
X228600000Y-38100000D01*
M02*
