M48
INCH,TZ
T1C0.016
T2C0.025
T3C0.028
T4C0.030
T5C0.031
T6C0.032
T7C0.032
T8C0.035
T9C0.035
T10C0.039
T11C0.039
T12C0.040
T13C0.051
T14C0.059
T15C0.059
T16C0.071
T17C0.073
T18C0.112
T19C0.138
%
G90
G05
T1
X26600Y-42000
T2
X26000Y-19900
X26600Y-32600
X26600Y-42000
X27750Y-33150
X28400Y-33150
X29050Y-33150
X34900Y-32400
X36450Y-27900
X39450Y-29600
X58500Y-40750
X58500Y-43500
X70250Y-41750
X71500Y-42000
T3
X22260Y-45894
X22654Y-45106
X23047Y-45894
X23441Y-45106
X23835Y-45894
X24228Y-45106
X24622Y-45894
X25016Y-45106
X25409Y-45894
X25803Y-45106
X26197Y-45894
X26591Y-45106
X26984Y-45894
X27378Y-45106
X27772Y-45894
X28165Y-45106
X28559Y-45894
X28953Y-45106
X29346Y-45894
X29740Y-45106
T4
X22000Y-26500
X22000Y-27500
X22000Y-28500
X22000Y-29500
X22000Y-30500
X22000Y-31500
X22000Y-32500
X22000Y-33500
X25000Y-26500
X25000Y-27500
X25000Y-28500
X25000Y-29500
X25000Y-30500
X25000Y-31500
X25000Y-32500
X25000Y-33500
X73750Y-44250
X73750Y-45250
X74750Y-44250
X74750Y-45250
X75750Y-44250
X75750Y-45250
X77500Y-44250
X77500Y-45250
X78500Y-44250
X78500Y-45250
X79500Y-44250
X79500Y-45250
T5
X26000Y-21500
X28000Y-19000
X28000Y-20000
X28000Y-21000
X28000Y-22000
X28000Y-23000
X28000Y-24000
X28000Y-25000
X28000Y-26000
X28000Y-27000
X28000Y-28000
X28000Y-29000
X28000Y-30000
X28000Y-31000
X28000Y-32000
X29750Y-16250
X30500Y-36500
X30500Y-37500
X30500Y-38500
X30500Y-39500
X30500Y-41750
X30750Y-16250
X31000Y-19000
X31000Y-20000
X31000Y-21000
X31000Y-22000
X31000Y-23000
X31000Y-24000
X31000Y-25000
X31000Y-26000
X31000Y-27000
X31000Y-28000
X31000Y-29000
X31000Y-30000
X31000Y-31000
X31000Y-32000
X31500Y-41750
X31750Y-16250
X32500Y-24750
X32500Y-25750
X32500Y-26750
X32500Y-27750
X32500Y-41750
X33500Y-36500
X33500Y-37500
X33500Y-38500
X33500Y-39500
X35250Y-35000
X35250Y-36000
X35250Y-37000
X35500Y-24750
X35500Y-25750
X35500Y-26750
X35500Y-27750
X36750Y-34250
X37750Y-34250
X38750Y-34250
X39700Y-33600
X39950Y-31500
X40700Y-33600
X40950Y-31500
X41350Y-29250
X41700Y-33600
X41950Y-31500
X41993Y-28484
X42636Y-27718
X43250Y-31250
X43250Y-32250
X43250Y-33250
X43800Y-30000
X44800Y-30000
X45000Y-31750
X45000Y-32750
X45000Y-33750
X45800Y-30000
X49000Y-32750
X49000Y-33750
X49000Y-34750
X60750Y-47250
X64750Y-40250
X64750Y-43250
X66750Y-40250
X66750Y-43250
T6
X25016Y-21500
X60750Y-46266
T7
X36650Y-35650
X36650Y-38650
X37500Y-39750
X37500Y-42750
X40050Y-35150
X40050Y-38150
X40250Y-39750
X40250Y-42750
X43000Y-39750
X43000Y-42750
X43250Y-34550
X43250Y-37550
X46200Y-34050
X46200Y-37050
X46450Y-39850
X46450Y-42850
X81750Y-44000
X81750Y-47000
T8
X35750Y-40352
X35750Y-41250
X35750Y-42148
X38500Y-36152
X38500Y-37050
X38500Y-37948
X38750Y-39852
X38750Y-40750
X38750Y-41648
X41500Y-39852
X41500Y-40750
X41500Y-41648
X41700Y-35852
X41700Y-36750
X41700Y-37648
X44900Y-35552
X44900Y-36450
X44900Y-37348
X44950Y-40002
X44950Y-40900
X44950Y-41798
X47700Y-35002
X47700Y-35900
X47700Y-36798
X79102Y-41750
X80000Y-41750
X80898Y-41750
T9
X26650Y-33850
X26650Y-35819
X27000Y-37450
X27900Y-41081
X27900Y-43050
X28969Y-37450
X34150Y-47000
X36119Y-47000
X71281Y-47000
X73250Y-47000
T10
X22016Y-18000
X23984Y-18000
T11
X22500Y-23000
X23800Y-35100
X23800Y-39100
X24350Y-40150
X24800Y-35100
X24800Y-39100
X25800Y-35100
X25800Y-39100
X26500Y-23000
X28350Y-40150
X29400Y-39500
X29400Y-43500
X29500Y-34750
X30600Y-33750
X31000Y-43000
X31000Y-47000
X32000Y-43000
X32000Y-47000
X32250Y-17000
X32250Y-18000
X32250Y-19000
X32250Y-20000
X32250Y-21000
X32250Y-22000
X32250Y-23200
X32250Y-30500
X32250Y-31500
X32250Y-32500
X32450Y-29500
X33000Y-43000
X33000Y-47000
X33500Y-34750
X34080Y-45153
X34600Y-33750
X34700Y-38400
X34700Y-42400
X35943Y-43274
X36250Y-17000
X36250Y-18000
X36250Y-19000
X36250Y-20000
X36250Y-21000
X36250Y-22000
X36250Y-23200
X36250Y-30500
X36250Y-31500
X36250Y-32500
X36450Y-29500
X37450Y-31132
X38020Y-45847
X38600Y-31182
X38693Y-43274
X39450Y-27668
X40600Y-27718
X41057Y-46226
X41443Y-43274
X41918Y-30336
X43807Y-46226
X44193Y-43274
X44982Y-27764
X46557Y-46226
X46750Y-27750
X46750Y-31750
X48000Y-27750
X48000Y-31750
X49250Y-27750
X49250Y-31750
X49307Y-46226
X51500Y-29500
X52250Y-28500
X55500Y-29500
X56250Y-28500
X62500Y-44750
X62500Y-45750
X62500Y-46750
X70662Y-43162
X74838Y-47338
X76250Y-47000
X77100Y-40250
X80250Y-47000
X81100Y-40250
T12
X21000Y-21750
X21000Y-22750
X21000Y-24500
X22000Y-24500
X23000Y-24500
X24000Y-24500
X25000Y-24500
X26000Y-24500
X37650Y-32450
X38650Y-32450
X51200Y-31850
X52200Y-31850
X53200Y-31850
X54200Y-31850
T13
X58250Y-29500
X58250Y-32500
X60250Y-29500
X60250Y-32500
X83888Y-41159
X83888Y-45963
X84500Y-21000
X84500Y-23000
X86250Y-46750
X87500Y-21000
X87500Y-23000
X88612Y-45963
T14
X84000Y-17840
X86750Y-17840
T15
X55000Y-38563
X55000Y-42500
T16
X69744Y-20299
X72500Y-20299
X75256Y-20299
T17
X87750Y-28000
X87750Y-31750
X87750Y-35500
T18
X65200Y-25500
X65200Y-29500
X65200Y-33500
X65200Y-37500
X79800Y-25500
X79800Y-29500
X79800Y-33500
X79800Y-37500
T19
X64724Y-17425
X80276Y-17425
T0
M30
