G04 #@! TF.FileFunction,Soldermask,Bot*
%FSLAX46Y46*%
G04 Gerber Fmt 4.6, Leading zero omitted, Abs format (unit mm)*
G04 Created by KiCad (PCBNEW 4.0.0-rc2-stable) date Thu 26 Nov 2015 02:18:43 PM EST*
%MOMM*%
G01*
G04 APERTURE LIST*
%ADD10C,0.100000*%
%ADD11C,1.900000*%
%ADD12C,1.924000*%
%ADD13C,3.650000*%
%ADD14C,5.400000*%
%ADD15C,2.178000*%
%ADD16C,10.400000*%
G04 APERTURE END LIST*
D10*
D11*
X148820000Y-125460000D03*
X146820000Y-125460000D03*
X150820000Y-125460000D03*
X152820000Y-125460000D03*
X154820000Y-125460000D03*
X156820000Y-125460000D03*
X155820000Y-123460000D03*
X153820000Y-123460000D03*
X151820000Y-123460000D03*
X149820000Y-123460000D03*
X147820000Y-123460000D03*
X145820000Y-123460000D03*
X144820000Y-125460000D03*
X143820000Y-123460000D03*
X142820000Y-125460000D03*
X141820000Y-123460000D03*
X140820000Y-125460000D03*
X139820000Y-123460000D03*
X138820000Y-125460000D03*
X137820000Y-123460000D03*
D12*
X144780000Y-59690000D03*
X144780000Y-49530000D03*
X158750000Y-48260000D03*
X148590000Y-48260000D03*
X173990000Y-90170000D03*
X173990000Y-80010000D03*
X168910000Y-81280000D03*
X168910000Y-91440000D03*
X107950000Y-48260000D03*
X118110000Y-48260000D03*
X88900000Y-63500000D03*
X88900000Y-73660000D03*
X130810000Y-110998000D03*
X140970000Y-110998000D03*
X83820000Y-60960000D03*
X83820000Y-71120000D03*
X80010000Y-67310000D03*
X80010000Y-77470000D03*
D13*
X145320000Y-71120000D03*
X149320000Y-71120000D03*
X155480000Y-58420000D03*
X159480000Y-58420000D03*
X165640000Y-71120000D03*
X169640000Y-71120000D03*
X155480000Y-83820000D03*
X159480000Y-83820000D03*
X98330000Y-55880000D03*
X102330000Y-55880000D03*
X98330000Y-51880000D03*
X102330000Y-51880000D03*
X98330000Y-59880000D03*
X102330000Y-59880000D03*
X86900000Y-83820000D03*
X90900000Y-83820000D03*
X86900000Y-79820000D03*
X90900000Y-79820000D03*
X86900000Y-87820000D03*
X90900000Y-87820000D03*
D14*
X95250000Y-120650000D03*
X95250000Y-113000000D03*
X95250000Y-128300000D03*
D15*
X119380000Y-78740000D03*
X116840000Y-78740000D03*
X114300000Y-78740000D03*
X111760000Y-78740000D03*
X109220000Y-78740000D03*
X106680000Y-78740000D03*
X121920000Y-78740000D03*
X124460000Y-78740000D03*
X127000000Y-78740000D03*
X129540000Y-78740000D03*
X132080000Y-78740000D03*
X134620000Y-78740000D03*
X134620000Y-88900000D03*
X132080000Y-88900000D03*
X129540000Y-88900000D03*
X127000000Y-88900000D03*
X124460000Y-88900000D03*
X121920000Y-88900000D03*
X119380000Y-88900000D03*
X116840000Y-88900000D03*
X114300000Y-88900000D03*
X111760000Y-88900000D03*
X109220000Y-88900000D03*
X106680000Y-88900000D03*
D12*
X123190000Y-66040000D03*
X120650000Y-66040000D03*
X118110000Y-66040000D03*
X115570000Y-66040000D03*
X125730000Y-66040000D03*
X128270000Y-66040000D03*
X130810000Y-66040000D03*
X133350000Y-66040000D03*
X115570000Y-55880000D03*
X118110000Y-55880000D03*
X120650000Y-55880000D03*
X123190000Y-55880000D03*
X133350000Y-55880000D03*
X128270000Y-55880000D03*
X130810000Y-55880000D03*
X125730000Y-55880000D03*
D16*
X83820000Y-50800000D03*
X95250000Y-101600000D03*
X170180000Y-50800000D03*
X165100000Y-101600000D03*
M02*
