M48
;DRILL file {KiCad 4.0.0-rc2-stable} date Thu 26 Nov 2015 02:24:57 PM EST
;FORMAT={-:-/ absolute / inch / decimal}
FMAT,2
INCH,TZ
T1C0.015
T2C0.028
T3C0.030
T4C0.032
T5C0.039
T6C0.079
T7C0.110
T8C0.201
%
G90
G05
M72
T1
X4.29Y-2.675
X4.325Y-4.755
X4.58Y-2.965
X4.665Y-4.3
X4.67Y-4.86
X4.74Y-4.435
X4.855Y-4.685
X4.915Y-5.09
X5.145Y-4.86
X5.23Y-3.22
X5.325Y-2.95
X5.33Y-4.6
X5.45Y-4.48
X5.535Y-3.525
X5.635Y-2.95
X5.74Y-4.525
X5.8Y-4.315
X5.895Y-4.37
X5.8984Y-4.6766
T2
X5.426Y-4.8606
X5.4654Y-4.9394
X5.5047Y-4.8606
X5.5441Y-4.9394
X5.5835Y-4.8606
X5.6228Y-4.9394
X5.6622Y-4.8606
X5.7016Y-4.9394
X5.7409Y-4.8606
X5.7803Y-4.9394
X5.8197Y-4.8606
X5.8591Y-4.9394
X5.8984Y-4.8606
X5.9378Y-4.9394
X5.9772Y-4.8606
X6.0165Y-4.9394
X6.0559Y-4.8606
X6.0953Y-4.9394
X6.1346Y-4.8606
X6.174Y-4.9394
T3
X4.55Y-2.2
X4.55Y-2.6
X4.65Y-2.2
X4.65Y-2.6
X4.75Y-2.2
X4.75Y-2.6
X4.85Y-2.2
X4.85Y-2.6
X4.95Y-2.2
X4.95Y-2.6
X5.05Y-2.2
X5.05Y-2.6
X5.15Y-2.2
X5.15Y-2.6
X5.25Y-2.2
X5.25Y-2.6
T4
X3.15Y-2.65
X3.15Y-3.05
X3.3Y-2.4
X3.3Y-2.8
X3.5Y-2.5
X3.5Y-2.9
X4.25Y-1.9
X4.65Y-1.9
X5.15Y-4.37
X5.55Y-4.37
X5.7Y-1.95
X5.7Y-2.35
X5.85Y-1.9
X6.25Y-1.9
X6.65Y-3.2
X6.65Y-3.6
X6.85Y-3.15
X6.85Y-3.55
T5
X4.2Y-3.1
X4.2Y-3.5
X4.3Y-3.1
X4.3Y-3.5
X4.4Y-3.1
X4.4Y-3.5
X4.5Y-3.1
X4.5Y-3.5
X4.6Y-3.1
X4.6Y-3.5
X4.7Y-3.1
X4.7Y-3.5
X4.8Y-3.1
X4.8Y-3.5
X4.9Y-3.1
X4.9Y-3.5
X5.Y-3.1
X5.Y-3.5
X5.1Y-3.1
X5.1Y-3.5
X5.2Y-3.1
X5.2Y-3.5
X5.3Y-3.1
X5.3Y-3.5
T6
X3.4213Y-3.1425
X3.4213Y-3.3
X3.4213Y-3.4575
X3.5787Y-3.1425
X3.5787Y-3.3
X3.5787Y-3.4575
X3.8713Y-2.0425
X3.8713Y-2.2
X3.8713Y-2.3575
X4.0287Y-2.0425
X4.0287Y-2.2
X4.0287Y-2.3575
X5.7213Y-2.8
X5.8787Y-2.8
X6.1213Y-2.3
X6.1213Y-3.3
X6.2787Y-2.3
X6.2787Y-3.3
X6.5213Y-2.8
X6.6787Y-2.8
T7
X3.75Y-4.4488
X3.75Y-4.75
X3.75Y-5.0512
T8
X3.3Y-2.
X3.75Y-4.
X6.5Y-4.
X6.7Y-2.
T0
M30
